<?xml version="1.0" encoding="UTF-8"?>
<svg width="163px" height="76px" viewBox="0 0 163 76" version="1.1" xmlns="http://www.w3.org/2000/svg" xmlns:xlink="http://www.w3.org/1999/xlink">
    <!-- Generator: Sketch 63.1 (92452) - https://sketch.com -->
    <title>LB365-logo</title>
    <desc>Created with Sketch.</desc>
    <g id="LB365-logo" stroke="none" stroke-width="1" fill="none" fill-rule="evenodd">
        <g id="Group" transform="translate(32.000000, 15.000000)">
            <g id="Group-4" transform="translate(0.000000, 38.000000)" fill="#0C1826">
                <polyline id="Fill-1" points="0 0.134769231 0.966952381 0.134769231 0.966952381 7.00369231 4.57909524 7.00369231 4.57909524 7.86092308 0 7.86092308 0 0.134769231"></polyline>
                <path d="M9.0882381,0.864 C7.34004762,0.864 6.23319048,2.19630769 6.23319048,4.00307692 C6.23319048,5.79876923 7.34004762,7.14276923 9.0882381,7.14276923 C10.8240476,7.14276923 11.9432857,5.79876923 11.9432857,4.00307692 C11.9432857,2.19630769 10.8240476,0.864 9.0882381,0.864 Z M9.0882381,0.00676923077 C11.3836667,0.00676923077 12.9449048,1.72184615 12.9449048,4.00307692 C12.9449048,6.28553846 11.3836667,8 9.0882381,8 C6.78042857,8 5.23095238,6.28553846 5.23095238,4.00307692 C5.23095238,1.72184615 6.78042857,0.00676923077 9.0882381,0.00676923077 L9.0882381,0.00676923077 Z" id="Fill-3"></path>
            </g>
            <polyline id="Fill-5" fill="#0C1826" points="15.7782677 42.4011151 14.983937 43.3135802 14.983937 46 14 46 14 38 14.983937 38 14.983937 42.137953 18.4825197 38 19.7152756 38 16.4195276 41.8021505 20 46 18.7785827 46 15.7782677 42.4011151"></polyline>
            <path d="M21.9140035,43.3371565 L25.0749564,43.3371565 L23.4997095,38.8876145 L21.9140035,43.3371565 Z M25.3486345,44.224771 L21.6513655,44.224771 L21.0063916,46 L20,46 L22.9314352,38 L24.0581058,38 L27,46 L25.9941894,46 L25.3486345,44.224771 L25.3486345,44.224771 Z" id="Fill-6" fill="#0C1826"></path>
            <polyline id="Fill-7" fill="#0C1826" points="29 38 29.8446668 38 29.8446668 45.1123855 33 45.1123855 33 46 29 46 29 38"></polyline>
            <polyline id="Fill-8" fill="#0C1826" points="34 38 39 38 39 38.8876145 34.9495441 38.8876145 34.9495441 41.4657109 38.9203647 41.4657109 38.9203647 42.3539626 34.9495441 42.3539626 34.9495441 45.1123855 39 45.1123855 39 46 34 46 34 38"></polyline>
            <path d="M47.4646713,45.1123855 C48.4061999,45.1123855 48.9616248,44.5847869 48.9616248,43.7328554 C48.9616248,43.0019912 48.4549439,42.3539626 47.4646713,42.3539626 L45.0018172,42.3539626 L45.0018172,45.1123855 L47.4646713,45.1123855 Z M47.4165687,41.4657109 C48.3215393,41.4657109 48.8051309,40.9138988 48.8051309,40.1830346 C48.8051309,39.4630028 48.3215393,38.8876145 47.4165687,38.8876145 L45.0018172,38.8876145 L45.0018172,41.4657109 L47.4165687,41.4657109 Z M44,38 L47.5858899,38 C48.9859968,38 49.8428648,38.8391876 49.8428648,40.0390283 C49.8428648,41.0464357 49.1668626,41.7180406 48.4305719,41.8741537 C49.2874399,42.0054162 50,42.8815611 50,43.8411788 C50,45.1244922 49.1424906,46 47.6699091,46 L44,46 L44,38 L44,38 Z" id="Fill-9" fill="#0C1826"></path>
            <g id="Group-15" transform="translate(51.000000, 38.000000)" fill="#0C1826">
                <polyline id="Fill-10" points="0.029627907 0.134769231 5.00227907 0.134769231 5.00227907 0.992 0.973488372 0.992 0.973488372 3.48184615 4.92306977 3.48184615 4.92306977 4.33969231 0.973488372 4.33969231 0.973488372 7.00369231 5.00227907 7.00369231 5.00227907 7.86092308 0.029627907 7.86092308 0.029627907 0.134769231"></polyline>
                <path d="M6.6064186,6.04246154 C7.10706977,6.60923077 7.92637209,7.14276923 8.99660465,7.14276923 C10.3510233,7.14276923 10.7833488,6.40184615 10.7833488,5.81107692 C10.7833488,4.88369231 9.86125581,4.62953846 8.85995349,4.35076923 C7.64218605,4.02646154 6.28776744,3.67938462 6.28776744,2.16184615 C6.28776744,0.888 7.40274419,0.0184615385 8.8944186,0.0184615385 C10.0553488,0.0184615385 10.9538605,0.412307692 11.5911628,1.09538462 L11.022186,1.80246154 C10.4532093,1.16553846 9.65627907,0.875692308 8.82548837,0.875692308 C7.91548837,0.875692308 7.26609302,1.37415385 7.26609302,2.104 C7.26609302,2.88 8.14344186,3.11138462 9.11027907,3.37784615 C10.3510233,3.71384615 11.7622791,4.10769231 11.7622791,5.72984615 C11.7622791,6.85292308 11.0113023,8 8.96213953,8 C7.64218605,8 6.67474419,7.48984615 6.04832558,6.77169231 L6.6064186,6.04246154" id="Fill-12"></path>
                <polyline id="Fill-13" points="14.9814419 0.992 12.5797674 0.992 12.5797674 0.134769231 18.3396744 0.134769231 18.3396744 0.992 15.9265116 0.992 15.9265116 7.86092308 14.9814419 7.86092308 14.9814419 0.992"></polyline>
                <path d="M19.5894884,0.134769231 L20.5339535,0.134769231 L20.5339535,4.83753846 C20.5339535,6.25046154 21.2855349,7.14276923 22.6853023,7.14276923 C24.0850698,7.14276923 24.8360465,6.25046154 24.8360465,4.83753846 L24.8360465,0.134769231 L25.7805116,0.134769231 L25.7805116,4.84923077 C25.7805116,6.77169231 24.7453488,8 22.6853023,8 C20.6252558,8 19.5894884,6.76061538 19.5894884,4.86092308 L19.5894884,0.134769231" id="Fill-14"></path>
            </g>
            <path d="M81.1982437,38.8876145 L79.0287596,38.8876145 L79.0287596,41.9455197 L81.1982437,41.9455197 C82.177607,41.9455197 82.8467618,41.3095978 82.8467618,40.4105137 C82.8467618,39.5107925 82.177607,38.8876145 81.1982437,38.8876145 Z M80.6772777,42.8210275 L79.0287596,42.8210275 L79.0287596,46 L78,46 L78,38 L81.3227223,38 C82.8349067,38 83.9137212,38.9354042 83.9137212,40.4105137 C83.9137212,41.8499403 82.8968167,42.6413381 81.7686059,42.7369176 L84,46 L82.7855104,46 L80.6772777,42.8210275 L80.6772777,42.8210275 Z" id="Fill-16" fill="#0C1826"></path>
            <polyline id="Fill-17" fill="#0C1826" points="86 38 91 38 91 38.8876145 86.9495441 38.8876145 86.9495441 41.4657109 90.9203647 41.4657109 90.9203647 42.3539626 86.9495441 42.3539626 86.9495441 45.1123855 91 45.1123855 91 46 86 46 86 38"></polyline>
            <g id="Group-21" fill="#0C1826">
                <polyline id="Fill-18" points="93.0994785 39.7337105 93.0994785 45.8632105 92.1501718 45.8632105 92.1501718 38.2641316 93.1219509 38.2641316 97.5125706 44.2683421 97.5125706 38.2641316 98.4612699 38.2641316 98.4612699 45.8632105 97.5459755 45.8632105 93.0994785 39.7337105"></polyline>
                <polyline id="Fill-20" points="0 0.391605263 7.99713497 0.391605263 7.99713497 26.0045263 18.6332577 26.0045263 18.6332577 32.9947105 0 32.9947105 0 0.391605263"></polyline>
            </g>
            <path d="M30.1922998,27.3778822 C33.1750973,27.3778822 34.1968052,25.8297627 34.1968052,22.9369175 C34.1968052,19.3922326 33.2156461,18.2110793 30.233463,18.2110793 L29.0894942,18.2110793 L29.0894942,27.3778822 L30.1922998,27.3778822 Z M30.151751,13.036795 C33.2979726,13.036795 33.8693426,11.4482419 33.8693426,9.00323024 C33.8693426,6.96684365 32.562564,5.33724427 30.4380504,5.33724427 L29.0894942,5.33724427 L29.0894942,13.036795 L30.151751,13.036795 Z M21,0 L29.9471636,0 C35.5041982,0 40.9377432,0.936713326 40.9377432,8.75940296 C40.9377432,12.7108751 39.0178169,14.7068281 36.0755683,15.2778005 C39.8754864,15.644154 42,18.4555193 42,23.0998775 C42,30.2701147 38.077821,33 31.5814049,33 L21,33 L21,0 L21,0 Z" id="Fill-22" fill="#0C1826"></path>
            <path d="M83.5715423,24.2715371 L86.4327574,24.2715371 C86.4327574,28.21629 87.413022,30.6087578 90.7456804,30.6087578 C94.353247,30.6087578 95.1363735,27.7787331 95.1363735,22.3981318 C95.1363735,16.5395272 93.999363,14.3866738 90.7854697,14.3866738 C89.1378294,14.3866738 87.7271166,15.2642389 86.6684791,17.0567513 L84.275693,17.0567513 L84.275693,0.318056046 L96.6278707,0.318056046 L96.5874785,3.0678007 L86.8258278,3.0678007 L86.6684791,14.267173 C87.6089543,13.0715519 89.1782217,12.1149325 91.5306155,12.1149325 C96.2348003,12.1149325 98,15.8212966 98,22.0390165 C98,29.0141878 95.9996815,32.9601664 90.6287239,32.9601664 C85.5314686,32.9601664 83.5715423,29.8905272 83.5715423,24.2715371 Z M76.1261133,23.7132537 C76.1261133,18.4521532 75.6558757,15.8212966 71.5400908,15.8212966 C69.697121,15.8212966 67.8535484,16.8974169 67.0686133,17.6554811 L67.0686133,23.2346376 C67.0686133,28.4160709 68.4811348,30.5683114 71.5400908,30.5683114 C74.6370275,30.5683114 76.1261133,28.5754053 76.1261133,23.7132537 Z M64.2073982,22.8767479 L64.2073982,10.0031384 C64.2073982,4.10408736 66.1293438,0 71.4996986,0 C76.2834621,0 78.5966694,2.510743 78.6358559,7.45256179 L78.6756452,8.12973314 L75.8120187,8.12973314 C75.8120187,3.9839737 74.6370275,2.39062935 71.6184637,2.39062935 C68.9519752,2.39062935 67.0686133,4.14392096 67.0686133,9.32535423 L67.0686133,15.4223477 C68.0488779,14.5061747 69.9322398,13.5501681 72.1658685,13.5501681 C77.3818889,13.5501681 79.0277206,16.45986 79.0277206,23.1549704 C79.0277206,29.093855 76.9490292,33 71.5400908,33 C66.3240704,33 64.2073982,29.1336886 64.2073982,22.8767479 Z M45,25.1484893 L45,24.3505915 L47.7828421,24.3505915 L47.7828421,25.0283756 C47.8232343,28.4559045 48.8818719,30.6087578 52.0571815,30.6087578 C55.0371617,30.6087578 56.6835963,28.7347397 56.6835963,23.8327546 C56.6835963,19.8469424 55.46761,17.0971977 51.9408279,16.9776969 L51.1558928,16.9776969 L51.1558928,14.1875058 L51.9408279,14.1875058 C55.3892371,14.1875058 56.6835963,12.354547 56.6835963,8.0494531 C56.6835963,4.70220431 55.6647481,2.35079574 52.3706733,2.35079574 C49.1549714,2.35079574 47.8232343,4.14392096 47.7828421,7.96978588 L47.7828421,8.52806923 L45,8.52806923 L45,7.77061784 C45,3.02796709 47.0786914,0 52.3326925,0 C57.350972,0 59.6255958,3.34724879 59.6255958,8.0494531 C59.6255958,12.5935486 57.7036502,14.9847908 55.0775539,15.6221285 C57.3895556,16.2606919 59.6255958,18.6513213 59.6255958,23.7929209 C59.6255958,29.2538023 57.4679285,33 52.0571815,33 C47.117275,33 45,29.9303608 45,25.1484893 L45,25.1484893 Z" id="Fill-23" fill="#1CAEAA"></path>
        </g>
    </g>
</svg>