<?xml version="1.0" encoding="utf-8"?>
<!-- Generator: Adobe Illustrator 23.0.4, SVG Export Plug-In . SVG Version: 6.00 Build 0)  -->
<svg version="1.1" id="Layer_1" xmlns="http://www.w3.org/2000/svg" xmlns:xlink="http://www.w3.org/1999/xlink" x="0px" y="0px"
	 viewBox="0 0 2232.3 825.5" style="enable-background:new 0 0 2232.3 825.5;" xml:space="preserve">
<style type="text/css">
	.st0{fill:#333333;}
	.st1{fill-rule:evenodd;clip-rule:evenodd;fill:#C90813;}
</style>
<title>logo-flanders</title>
<desc>Created with Sketch.</desc>
<g id="Artboard">
	<g id="logo-redpencil" transform="translate(40.000000, 18.000000)">
		<path id="word" class="st0" d="M-7.9,318.4c4.4-8.6,9.6-15.3,15.7-20.3s13.2-7.4,21.5-7.4c6.5,0,11.8,1.4,15.7,4.3l-2.2,25.9
			c-0.5,1.7-1.1,2.9-2,3.6s-2,1.1-3.5,1.1c-1.4,0-3.4-0.2-6.1-0.7c-2.7-0.5-5.3-0.7-7.9-0.7c-3.8,0-7.1,0.6-10.1,1.7
			s-5.6,2.7-7.9,4.8c-2.3,2.1-4.4,4.6-6.2,7.6s-3.5,6.4-5,10.2v88.6h-34V293.4h20c3.5,0,5.9,0.6,7.3,1.9s2.3,3.5,2.8,6.8L-7.9,318.4
			z M153.7,348.8c0-4.5-0.6-8.7-1.9-12.7c-1.2-4-3.1-7.5-5.6-10.4c-2.5-3-5.6-5.3-9.4-7.1c-3.8-1.7-8.2-2.6-13.3-2.6
			c-9.8,0-17.6,2.8-23.2,8.5c-5.6,5.7-9.2,13.8-10.8,24.2H153.7z M88.9,369.7c0.6,7.4,1.8,13.8,3.9,19.1c2,5.4,4.7,9.8,8,13.3
			c3.3,3.5,7.2,6.1,11.8,7.8c4.5,1.7,9.6,2.6,15.1,2.6s10.3-0.7,14.3-2c4-1.3,7.5-2.8,10.5-4.3c3-1.6,5.6-3,7.8-4.3
			c2.2-1.3,4.4-2,6.5-2c2.8,0,5,1.1,6.3,3.2l9.8,12.6c-3.8,4.5-8,8.2-12.7,11.3c-4.7,3-9.6,5.5-14.7,7.3c-5.1,1.8-10.3,3.1-15.6,3.9
			c-5.3,0.7-10.4,1.1-15.4,1.1c-9.8,0-19-1.7-27.4-5c-8.4-3.3-15.8-8.2-22-14.7c-6.2-6.5-11.2-14.5-14.7-24.1S55,374.9,55,362.3
			c0-9.8,1.6-19,4.7-27.7c3.1-8.6,7.6-16.2,13.4-22.6c5.8-6.4,12.9-11.5,21.3-15.2c8.4-3.7,17.9-5.6,28.4-5.6
			c8.9,0,17.1,1.4,24.6,4.3c7.5,2.9,14,7.1,19.4,12.7c5.4,5.6,9.7,12.4,12.7,20.5c3.1,8.1,4.6,17.3,4.6,27.7c0,5.2-0.6,8.8-1.7,10.6
			s-3.2,2.7-6.3,2.7H88.9z M298.5,330.2c-3.9-4.8-8.1-8.1-12.6-10.1c-4.5-2-9.4-2.9-14.7-2.9c-5.1,0-9.8,1-13.9,2.9
			c-4.1,2-7.7,4.9-10.6,8.9c-2.9,4-5.2,9-6.7,15.1s-2.3,13.3-2.3,21.7c0,8.4,0.7,15.5,2,21.4s3.2,10.6,5.7,14.3
			c2.5,3.7,5.5,6.4,9.1,8s7.6,2.5,12,2.5c7.1,0,13.1-1.5,18-4.5c5-3,9.6-7.2,14-12.8V330.2z M332.5,229v208.3h-20.8
			c-4.5,0-7.3-2.1-8.5-6.3l-2.9-13.9c-5.7,6.6-12.2,12-19.6,16.1c-7.4,4.1-16,6.2-25.8,6.2c-7.7,0-14.8-1.6-21.2-4.9
			c-6.4-3.3-12-8-16.6-14.2c-4.6-6.2-8.2-13.9-10.7-23.1c-2.5-9.2-3.8-19.6-3.8-31.4c0-10.7,1.4-20.6,4.3-29.7
			c2.8-9.2,6.9-17.1,12.3-23.8c5.3-6.7,11.7-12,19.1-15.8c7.4-3.8,15.8-5.7,25.1-5.7c7.9,0,14.6,1.3,20.2,3.8
			c5.6,2.5,10.6,5.9,15,10.2V229H332.5z M400.1,400c3.9,4.8,8.1,8.1,12.6,10.1c4.5,2,9.5,2.9,14.8,2.9c5.1,0,9.8-1,13.9-2.9
			c4.1-2,7.6-5,10.5-9c2.9-4,5.1-9.1,6.7-15.2s2.3-13.3,2.3-21.7c0-8.4-0.7-15.5-2-21.4c-1.3-5.8-3.2-10.6-5.7-14.2s-5.5-6.3-9-8
			c-3.5-1.7-7.6-2.5-12-2.5c-7.1,0-13.1,1.5-18,4.6c-5,3-9.6,7.3-14,12.8V400z M398.3,313.1c5.8-6.6,12.3-12,19.7-16.1
			c7.3-4.1,16-6.2,25.9-6.2c7.7,0,14.8,1.6,21.1,4.9c6.4,3.3,11.9,8,16.5,14.2c4.6,6.2,8.2,13.9,10.7,23c2.5,9.1,3.8,19.5,3.8,31.3
			c0,10.7-1.4,20.7-4.3,29.9c-2.8,9.2-6.9,17.1-12.2,23.8c-5.3,6.7-11.7,12-19.1,15.8c-7.5,3.8-15.9,5.7-25.1,5.7
			c-7.9,0-14.6-1.2-20.2-3.7s-10.6-5.9-15-10.3v58.9h-34V293.4h20.8c4.4,0,7.3,2.1,8.7,6.3L398.3,313.1z M613.5,348.8
			c0-4.5-0.6-8.7-1.9-12.7s-3.1-7.5-5.6-10.4c-2.5-3-5.6-5.3-9.4-7.1c-3.8-1.7-8.2-2.6-13.3-2.6c-9.8,0-17.6,2.8-23.2,8.5
			c-5.6,5.7-9.2,13.8-10.8,24.2H613.5z M548.7,369.7c0.6,7.4,1.8,13.8,3.9,19.1s4.7,9.8,8,13.3c3.3,3.5,7.2,6.1,11.8,7.8
			c4.5,1.7,9.6,2.6,15.1,2.6s10.3-0.7,14.3-2c4-1.3,7.5-2.8,10.5-4.3c3-1.6,5.6-3,7.8-4.3s4.4-2,6.5-2c2.8,0,5,1.1,6.3,3.2l9.8,12.6
			c-3.8,4.5-8,8.2-12.7,11.3s-9.6,5.5-14.7,7.3c-5.1,1.8-10.3,3.1-15.6,3.9c-5.3,0.7-10.4,1.1-15.4,1.1c-9.8,0-19-1.7-27.4-5
			c-8.4-3.3-15.8-8.2-22-14.7c-6.2-6.5-11.2-14.5-14.7-24.1s-5.4-20.7-5.4-33.3c0-9.8,1.6-19,4.7-27.7c3.1-8.6,7.6-16.2,13.4-22.6
			c5.8-6.4,12.9-11.5,21.3-15.2c8.4-3.7,17.9-5.6,28.4-5.6c8.9,0,17.1,1.4,24.6,4.3c7.5,2.9,14,7.1,19.4,12.7
			c5.4,5.6,9.7,12.4,12.7,20.5c3.1,8.1,4.6,17.3,4.6,27.7c0,5.2-0.6,8.8-1.7,10.6s-3.2,2.7-6.3,2.7H548.7z M701.4,311.1
			c2.8-2.9,5.9-5.6,9-8.1c3.2-2.5,6.5-4.6,10.1-6.3c3.5-1.7,7.3-3.1,11.4-4.1c4-1,8.4-1.5,13.2-1.5c7.7,0,14.6,1.3,20.5,4
			c6,2.7,10.9,6.4,14.9,11.2c4,4.8,7,10.6,9.1,17.2c2.1,6.7,3.1,14,3.1,22.1v91.5h-34v-91.5c0-8.8-2-15.6-5.9-20.4
			c-3.9-4.8-10-7.2-18-7.2c-5.9,0-11.4,1.4-16.5,4.1c-5.1,2.7-10,6.4-14.6,11.1v104h-34V293.4h20.8c4.4,0,7.3,2.1,8.7,6.3
			L701.4,311.1z M926.1,323.9c-1,1.3-2,2.3-3,3.1c-1,0.7-2.4,1.1-4.2,1.1c-1.7,0-3.4-0.5-5.1-1.6c-1.7-1.1-3.6-2.3-5.9-3.6
			c-2.3-1.4-5-2.6-8.2-3.6c-3.2-1.1-7.1-1.6-11.8-1.6c-6,0-11.2,1.1-15.7,3.3s-8.2,5.3-11.2,9.5c-3,4.1-5.2,9.1-6.7,14.9
			s-2.2,12.4-2.2,19.8c0,7.7,0.8,14.5,2.4,20.5c1.6,6,3.9,11,7,15.1c3,4.1,6.7,7.1,11,9.2c4.3,2.1,9.2,3.2,14.6,3.2s9.8-0.7,13.2-2
			c3.4-1.4,6.2-2.8,8.5-4.5c2.3-1.6,4.3-3.1,6-4.5c1.7-1.4,3.6-2,5.7-2c2.8,0,4.8,1.1,6.2,3.2l9.8,12.6c-3.8,4.5-7.8,8.2-12.3,11.3
			s-9,5.5-13.7,7.3c-4.7,1.8-9.6,3.1-14.6,3.9c-5,0.7-10,1.1-14.9,1.1c-8.7,0-16.9-1.7-24.6-5c-7.7-3.3-14.5-8.2-20.2-14.5
			c-5.8-6.4-10.4-14.1-13.7-23.3c-3.4-9.2-5-19.7-5-31.5c0-10.6,1.5-20.3,4.5-29.4c3-9,7.4-16.8,13.2-23.4
			c5.8-6.6,12.9-11.7,21.5-15.5c8.5-3.7,18.4-5.6,29.5-5.6c10.6,0,19.8,1.7,27.7,5.2c7.9,3.5,15.1,8.4,21.4,14.9L926.1,323.9z
			 M992.9,293.4v143.8h-34.2V293.4H992.9z M997.6,251.5c0,3-0.6,5.8-1.8,8.4c-1.2,2.6-2.8,4.9-4.8,6.9c-2,2-4.3,3.5-7,4.7
			c-2.7,1.2-5.5,1.8-8.5,1.8c-2.9,0-5.7-0.6-8.3-1.8c-2.6-1.2-4.9-2.7-6.8-4.7c-1.9-2-3.5-4.3-4.6-6.9c-1.1-2.6-1.7-5.4-1.7-8.4
			c0-3.1,0.6-6,1.7-8.7c1.1-2.7,2.7-5,4.6-7s4.2-3.5,6.8-4.7c2.6-1.2,5.4-1.8,8.3-1.8c3,0,5.9,0.6,8.5,1.8c2.7,1.2,5,2.7,7,4.7
			c2,2,3.6,4.3,4.8,7S997.6,248.5,997.6,251.5z M1062,229v208.3h-34V229H1062z M1196.7,293.4v143.8h-34.2V293.4H1196.7z
			 M1201.4,251.5c0,3-0.6,5.8-1.8,8.4c-1.2,2.6-2.8,4.9-4.8,6.9c-2,2-4.3,3.5-7,4.7c-2.7,1.2-5.5,1.8-8.5,1.8
			c-2.9,0-5.7-0.6-8.3-1.8c-2.6-1.2-4.9-2.7-6.8-4.7c-1.9-2-3.5-4.3-4.6-6.9c-1.1-2.6-1.7-5.4-1.7-8.4c0-3.1,0.6-6,1.7-8.7
			c1.1-2.7,2.7-5,4.6-7s4.2-3.5,6.8-4.7c2.6-1.2,5.4-1.8,8.3-1.8c3,0,5.9,0.6,8.5,1.8c2.7,1.2,5,2.7,7,4.7s3.6,4.3,4.8,7
			S1201.4,248.5,1201.4,251.5z M1293.9,291.2c10.5,0,20,1.7,28.6,5.2s15.9,8.4,22,14.7s10.8,14.1,14.1,23.3c3.3,9.2,5,19.4,5,30.7
			c0,11.4-1.7,21.7-5,30.8c-3.3,9.2-8,17-14.1,23.4s-13.4,11.4-22,14.9s-18.1,5.2-28.6,5.2c-10.6,0-20.2-1.7-28.8-5.2
			s-16-8.4-22.1-14.9c-6.1-6.4-10.8-14.2-14.2-23.4c-3.4-9.2-5-19.4-5-30.8c0-11.3,1.7-21.5,5-30.7c3.4-9.2,8.1-16.9,14.2-23.3
			c6.1-6.4,13.5-11.3,22.1-14.7S1283.4,291.2,1293.9,291.2z M1293.9,412.7c11.8,0,20.4-4,26.1-12.1c5.6-8,8.5-19.8,8.5-35.3
			c0-15.5-2.8-27.3-8.5-35.5c-5.6-8.1-14.3-12.2-26.1-12.2c-11.9,0-20.8,4.1-26.5,12.3c-5.7,8.2-8.6,20-8.6,35.4
			c0,15.4,2.9,27.2,8.6,35.2C1273.2,408.7,1282,412.7,1293.9,412.7z"/>
		<path id="dot" class="st1" d="M1095.6,414.1c0-2.6,0.5-5.1,1.5-7.5c1-2.4,2.3-4.4,4-6.1c1.7-1.7,3.7-3.1,6.1-4.1
			c2.4-1,4.9-1.5,7.6-1.5s5.2,0.5,7.5,1.5c2.3,1,4.3,2.4,6.1,4.1c1.7,1.7,3.1,3.7,4.1,6.1s1.5,4.9,1.5,7.5c0,2.7-0.5,5.2-1.5,7.6
			s-2.4,4.3-4.1,6c-1.7,1.7-3.7,3-6.1,4c-2.3,1-4.8,1.5-7.5,1.5s-5.2-0.5-7.6-1.5c-2.4-1-4.4-2.3-6.1-4c-1.7-1.7-3-3.7-4-6
			C1096.1,419.3,1095.6,416.8,1095.6,414.1z"/>
	</g>
</g>
</svg>
