<?xml version="1.0" encoding="utf-8"?>
<!-- Generator: Adobe Illustrator 23.0.4, SVG Export Plug-In . SVG Version: 6.00 Build 0)  -->
<svg version="1.1" id="Layer_1" xmlns="http://www.w3.org/2000/svg" xmlns:xlink="http://www.w3.org/1999/xlink" x="0px" y="0px"
	 viewBox="0 0 2213.7 825.5" style="enable-background:new 0 0 2213.7 825.5;" xml:space="preserve">
<style type="text/css">
	.st0{fill:#333333;}
	.st1{fill-rule:evenodd;clip-rule:evenodd;fill:#333333;}
</style>
<g>
	<title>Artboard</title>
	<desc>Created with Sketch.</desc>
	<g id="Artboard">
		<g id="logo-kanselarij-bestuur">
			<path id="Shape" class="st0" d="M375.8,394.2c-20.7-15.7-30.5,0-43.5,0s-21.5-19.2-29.9-14.4c-16.3,8.2,6.5,38.3,16.5,43.5
				c7.3,4.2,14.9,7.9,22.6,11.3c11.6,5.4,19.1,16.9,19.2,29.7c0.6,4.8,0.6,9.6,0,14.4c-5.9,25.3-50.6,48.3-76.7,30.9
				c-14-8.4-23.7-22.3-26.8-38.3c-6.9-33.2-31.1-57.5-38.3-90.1c-4.8-19.2-8.2-40.6-13.4-60.4s-10.5-41.6-15-60.8
				c-4.8-20-10.9-39.7-18-59c-24.7-63.5-35.7-58.9-35.7-58.9s8.8,17.6,41.2,172.5c5.4,33.3,12.6,66.2,21.7,98.7
				c3.1,8.1,8.4,25.3,11.9,33c10.4,22.2,38.3,56,39.3,86.5c1,17.6,3.1,32.2,3.5,45.4c0.7,9.1,2.2,18.1,4.6,26.8
				c6.7,19.2,60.2,78.4,116.9,78.4v-46.2c-39.6-0.9-78.1-13-111-34.9c0.7-11.1,3-22.1,6.7-32.6c6.4-20.5,24.5-35.2,45.8-37.2
				c19.3,0.4,38.5,2.3,57.5,5.9V394.2H375.8z M130.6,228.6c-2.1,33.9-55,80.5-71.5,110.2c-9.4,17.1-16.4,35.4-20.9,54.4
				c-5.7,30.3-1.5,61.7,11.9,89.5c17.4,41.8-2.3,57.5,11.3,48.7c16.9-13.8,14.4-45.8,13-65.8c-1.7-18-1.7-36.1,0-54.1
				c7.6-37.1,23.4-72,46.2-102.2C136.3,285.5,140,255.7,130.6,228.6z M141.4,324.5c0,0,5.6,26.8-19.2,95.9
				c-62.5,181.2,57.5,198.2,90.9,240.8c0,0,13.2-19.2-41-76.7c-19.2-21.5-38.3-69-22-137.1c22.4-98.3-9.6-122.5-9.6-122.5
				L141.4,324.5z M23.1,206.4c-2.9-9.3-4.3-19-4-28.8c3.8-42.6,42.8-59.8,52.3-66.1c8.9-5.8,15.8-14.1,19.7-24
				c10.4,26,0.6,55.7-23.2,70.4C48.6,169.3,33,186.2,23.1,206.4z M121,165.1c2.1,4.4,19.2,27.8-47.5,81.9s-45.2,92.8-45.2,92.8
				s-70.2-38.3,10.7-106s64.2-80.5,64.2-80.5c7.8,0.2,14.7,4.9,17.8,12.1V165.1z M206.5,186c11.3,1.5,19.2,36.8,45.1,44.5
				c19.2,5.6,39.9,2.5,44.5,14.2c-4.3,3.5-4.9,9.8-1.4,14c2.1,2.5,5.2,3.9,8.5,3.6c7.5-21.5,11.1-100.5-96.4-76.3L206.5,186
				L206.5,186z M242.2,202.5c0-2.5,2.3,0,5.2-2.3c3-3.9,6.9-7.1,11.3-9.2c3.9-1.3,8-1.3,11.9,0c2.3,0,0,6.3,0,7.7
				c0,1.3-14.2-1.7-14.2,6.1c0,12.8,17.4,0,26.5,0c4.4,31.4-47.5,22.8-39.9-3.1L242.2,202.5z"/>
			
				<rect id="Rectangle" x="529" y="-24.2" transform="matrix(0.94 -0.3412 0.3412 0.94 -108.7064 207.3027)" class="st1" width="12" height="873.8"/>
		</g>
	</g>
	<g>
		<path class="st0" d="M700,275.4V159.6h22.8c19.2,0,33.5,3,43,8.9c9.5,6,14.2,15.5,14.2,28.6c0,10.1-2.6,18.1-7.9,24.2
			c-9.7,11.1-26.4,16.7-50.1,16.7h-8.3v37.4H700z M713.6,172.2v53.1h10.9c13.6,0,24-2,31.1-5.9s10.7-10.7,10.7-20.4
			c0-17.9-13.9-26.8-41.8-26.8H713.6L713.6,172.2z"/>
		<path class="st0" d="M832,264.5c6.3,0,14.4-2.9,24.1-8.7v-71.6h13.6v91.2h-8.6l-2.7-8.8c-10.7,7-20.4,10.5-29,10.5
			c-8.7,0-16-2.8-22-8.3s-9-14.3-9-26.4V184H812v57.5C812.1,256.9,818.7,264.5,832,264.5z"/>
		<path class="st0" d="M911.5,148.2v42.3c7-5.3,14.6-8,22.9-8c8.3,0,15.5,2.1,21.6,6.4c6.1,4.3,10.7,9.9,13.7,16.9
			s4.6,14.8,4.6,23.4c0,14.4-4,26-12.1,34.8c-8.1,8.8-19.4,13.2-33.8,13.2c-9.9,0-20.1-2.2-30.5-6.6V149.9l12.7-1.8L911.5,148.2
			L911.5,148.2z M929.3,264.5c9.7,0,17.3-3.4,22.9-10.1c5.6-6.7,8.4-15.3,8.4-25.7s-2.3-18.6-6.9-24.5c-4.6-6.1-11.6-9.1-21.1-9.1
			s-16.6,3.3-21.2,9.9v56.7C916.2,263.6,922.2,264.5,929.3,264.5z"/>
		<path class="st0" d="M1009,148.2v127.3h-13.6V149.9l12.7-1.8L1009,148.2L1009,148.2z"/>
		<path class="st0" d="M1037.1,159.2c0-2.6,0.9-4.8,2.7-6.6c1.8-1.8,4.1-2.7,6.7-2.7c2.7,0,4.9,0.9,6.8,2.7s2.7,4,2.7,6.6
			s-0.9,4.8-2.8,6.7s-4.1,2.8-6.6,2.7c-2.6,0-4.8-0.9-6.7-2.8C1038,164,1037.1,161.8,1037.1,159.2z M1039.7,184.2h13.6v91.2h-13.6
			V184.2z"/>
		<path class="st0" d="M1119.6,277.2c-12,0-21.8-3.7-29.4-11.2c-8.8-8.6-13.2-20.8-13.2-36.7s4-27.7,12-35.3
			c8-7.7,18.2-11.5,30.5-11.5c8.7,0,17.4,2.2,26.1,6.5v12l-0.6,0.4c-8.2-4.2-16.5-6.2-25-6.2s-15.4,2.7-21,8.1
			c-5.6,5.4-8.4,13.9-8.4,25.7c-0.1,11.6,2.8,20.4,8.5,26.5c5.7,6.1,12.8,9.1,21.1,9.1c8.3,0,16.6-2.1,24.8-6.2l0.6,0.4v12
			C1137,275,1128.3,277.2,1119.6,277.2z"/>
		<path class="st0" d="M751.4,350.5c-14.5,0-25.6,4.3-33.3,12.8s-11.6,19.5-11.5,33.1c0,13.6,3.9,25,11.7,34.3s17.2,13.9,28.2,13.9
			s19.5-3.4,25.3-10.3v-29.8h-24.7v-12.7h38.3v63.8h-5.3l-8.3-6.2c-7.5,5.2-16,7.8-25.6,7.8c-15.8,0-28.7-5.7-38.5-17.1
			s-14.8-25.7-14.8-43.1s4.9-31.6,14.7-42.6c9.8-11.1,24-16.6,42.7-16.6c10.1,0,19.2,1.2,27.3,3.6v12.4l-0.7,0.4
			C769.2,351.7,760.7,350.5,751.4,350.5z"/>
		<path class="st0" d="M888.1,409.7c0,13.4-4,24.6-11.9,33.8s-18,13.7-30.2,13.7s-22.2-4.5-30-13.6c-7.7-9.1-11.6-20.3-11.6-33.6
			c0-13.3,4-24.6,11.9-33.8c7.9-9.2,18-13.8,30.3-13.8s22.3,4.6,30,13.7C884.3,385.3,888.1,396.5,888.1,409.7z M818.1,409.5
			c0,10.1,2.5,18.4,7.6,25s12.1,9.9,21,9.9s15.8-3.2,20.6-9.5s7.2-14.5,7.3-24.6c0-10.2-2.4-18.6-7.3-25.3c-4.8-6.7-11.7-10-20.7-10
			s-16,3.2-20.9,9.7C820.6,391.2,818.1,399.5,818.1,409.5z"/>
		<path class="st0" d="M978.6,364.2l-31.4,91.2H929l-31.3-91.2h14.1l26.4,76.7l26.4-76.7H978.6L978.6,364.2z"/>
		<path class="st0" d="M1058.9,413.2H1002c0.6,9.6,3.7,17.2,9.1,22.9c5.4,5.6,12.2,8.4,20.5,8.4c8.3,0,16.7-2.2,25.2-6.5l0.3,0.1
			v12.6c-8.8,4.3-17.6,6.5-26.2,6.5c-13.2,0-23.6-4.3-31.1-13s-11.2-20.2-11.2-34.5c0-14.2,3.2-25.6,9.6-34.3
			c6.4-8.6,16.2-12.9,29.2-12.9c13.1,0,22.1,5.3,27.1,15.8c2.9,6,4.3,13.6,4.4,22.7V413.2z M1027.2,375.1c-6.9,0-12.4,2.4-16.6,7.1
			s-6.9,10.9-8.2,18.4h42.9c-0.2-12.5-3.3-20.3-9.3-23.6C1033.5,375.7,1030.6,375.1,1027.2,375.1z"/>
		<path class="st0" d="M1079.3,364.2h9.1l3.2,10.5c7-8.1,14.4-12.2,22.4-12.2c5.4,0,10.4,1.1,15.1,3.2l-4.7,12.3
			c-3.9-1.9-8.1-2.8-12.6-2.8c-7.3,0-13.6,4.1-18.9,12.2v68.1h-13.6V364.2z"/>
		<path class="st0" d="M1183.1,375.1c-6.2,0-14.2,2.9-24.1,8.8v71.6h-13.6v-91.2h9.1l2.5,8.5c10.5-6.8,20.1-10.3,28.7-10.3
			s15.9,2.8,21.9,8.3s9,14.3,9,26.4v58.4H1203v-57.5C1203,382.7,1196.4,375.1,1183.1,375.1z"/>
		<path class="st0" d="M1266.6,457.2c-7.8,0-14.2-1.8-19.4-5.5c-6.9-4.9-10.3-12.2-10.3-21.9c0-9.7,3-16.7,8.9-21
			c5.9-4.2,14.6-6.2,26-6.2c4.2,0,10.3,0.4,18.3,1.1v-11.2c-0.1-6-1.5-10.4-4.3-13.1s-7.1-4.1-12.9-4.1c-9.7,0-18.8,2.1-27.4,6.4
			l-3.6-11.8c6.7-2.7,12.4-4.6,16.8-5.7c4.5-1.1,10-1.6,16.6-1.6c19,0,28.4,10,28.4,29.9v29.1c0.1,9.7,2.1,16.2,6.1,19.6
			c1.8,1.5,3.9,2.6,6.5,3.4l-7.7,12.7c-6.1-2-10.7-6.2-13.9-12.7C1287.3,452.9,1278,457.2,1266.6,457.2z M1265.3,444.5
			c16.6,0,24.9-7.3,24.8-21.9v-7.4c-4.3-0.1-8.2-0.1-11.7-0.1c-13.4-0.1-21.9,1.8-25.4,5.8c-1.8,1.9-2.6,4.9-2.5,9
			c0,4.1,1.5,7.6,4.6,10.4C1258.1,443.1,1261.6,444.5,1265.3,444.5z"/>
		<path class="st0" d="M1371.4,375.1c-6.2,0-14.2,2.9-24.1,8.8v71.6h-13.6v-91.2h9.1l2.5,8.5c10.5-6.8,20.1-10.3,28.7-10.3
			s15.9,2.8,21.9,8.3s9,14.3,9,26.4v58.4h-13.6v-57.5C1391.4,382.7,1384.7,375.1,1371.4,375.1z"/>
		<path class="st0" d="M1467.7,457.2c-12,0-21.8-3.7-29.4-11.2c-8.8-8.6-13.2-20.8-13.2-36.7c0-15.9,4-27.7,12-35.3
			c8-7.7,18.2-11.5,30.5-11.5c8.7,0,17.4,2.2,26.1,6.5v12l-0.6,0.4c-8.2-4.2-16.5-6.2-25-6.2s-15.4,2.7-21,8.1s-8.4,13.9-8.4,25.7
			c-0.1,11.6,2.8,20.4,8.5,26.5s12.8,9.1,21.1,9.1c8.3,0,16.6-2.1,24.8-6.2l0.6,0.4v12C1485.1,455,1476.4,457.2,1467.7,457.2z"/>
		<path class="st0" d="M1576.2,413.2h-56.9c0.6,9.6,3.7,17.2,9.1,22.9c5.4,5.6,12.2,8.4,20.5,8.4s16.7-2.2,25.2-6.5l0.3,0.1v12.6
			c-8.8,4.3-17.6,6.5-26.2,6.5c-13.2,0-23.6-4.3-31.1-13s-11.2-20.2-11.2-34.5c0-14.2,3.2-25.6,9.6-34.3
			c6.4-8.6,16.2-12.9,29.2-12.9c13.1,0,22.1,5.3,27.1,15.8c2.9,6,4.3,13.6,4.4,22.7V413.2z M1544.5,375.1c-6.9,0-12.4,2.4-16.6,7.1
			s-6.9,10.9-8.2,18.4h42.9c-0.2-12.5-3.3-20.3-9.3-23.6C1550.9,375.7,1547.9,375.1,1544.5,375.1z"/>
		<path class="st0" d="M1679.5,457.2c-10.9,0-19.9-3-26.8-9.1s-10.4-14.3-10.4-24.7c0-6.7,1.7-12.6,5-17.7c3.3-5,8.6-9.7,15.8-14
			c-7-7.2-10.4-15.4-10.4-24.7c0-9.3,2.6-16.4,7.8-21.4c5.2-5.2,11.9-7.7,20.2-7.7s15,2.2,20.3,6.5c5.2,4.3,7.9,10.5,7.9,18.5
			s-2.7,14.5-8.1,19.7c-3.5,3.4-9.1,6.9-16.7,10.5l28.5,28.4c3.9-7.8,6.9-17.9,9.1-30.2h0.8l12.9,4.7c-2.5,14.2-6.7,25.9-12.4,35.2
			l17,16.3l-9.7,9.6l-15.9-14.9C1704.9,452.2,1693.4,457.2,1679.5,457.2z M1655.9,423.6c0,6.3,2.1,11.4,6.2,15.2
			c4.1,3.8,9.8,5.7,17.1,5.7c10.1,0,18.6-3.9,25.5-11.6l-33.4-33.3C1661.1,406,1655.9,414,1655.9,423.6z M1695,363.3
			c0-8.6-4.5-12.8-13.5-12.8c-5.1,0-8.9,1.3-11.4,3.9c-2.6,2.6-3.8,6.1-3.8,10.6c0,7.3,3.2,13.9,9.5,20c0.2,0,0.5-0.1,0.7-0.4
			c5.2-2,9.7-4.6,13.3-7.9C1693.3,373.5,1695,369,1695,363.3z"/>
		<path class="st0" d="M689.5,544.2h10.1v-16.4l12.7-2.4h0.9v18.7h25.3v12.7h-25.3v44.8c0,7.7,1.5,13.5,4.4,17.2s7,5.6,12.1,5.7
			c5,0,10.7-1.8,17.1-5.4l3.7,12.5c-8.1,3.7-16.1,5.6-23.7,5.6c-7.7,0-14.1-2.9-19.3-8.6c-5.2-5.7-7.8-14.7-7.8-26.9v-44.8h-10.1
			v-12.7L689.5,544.2L689.5,544.2z"/>
		<path class="st0" d="M823.1,577.8c0-15.2-6.7-22.7-20-22.7c-3.9,0.1-7.8,0.8-11.5,2.4c-3.8,1.5-7.9,3.7-12.6,6.4v71.6h-13.6V509.9
			l12.7-1.8h0.9v43.3c9.8-6,18.3-9,25.4-9c9.5,0,17.3,2.8,23.3,8.3s9,14.3,9,26.4v58.4h-13.6L823.1,577.8L823.1,577.8z"/>
		<path class="st0" d="M927.6,593.2h-56.9c0.6,9.6,3.7,17.2,9.1,22.9c5.4,5.6,12.2,8.4,20.5,8.4s16.7-2.2,25.2-6.5l0.3,0.1v12.6
			c-8.8,4.3-17.6,6.5-26.2,6.5c-13.2,0-23.6-4.3-31.1-13s-11.2-20.2-11.2-34.5c0-14.2,3.2-25.6,9.6-34.3
			c6.4-8.6,16.2-12.9,29.2-12.9s22.1,5.3,27.1,15.8c2.9,6,4.3,13.6,4.4,22.7L927.6,593.2L927.6,593.2z M895.8,555.1
			c-6.9,0-12.4,2.4-16.6,7.1s-6.9,10.9-8.2,18.4h43c-0.2-12.5-3.3-20.3-9.3-23.6C902.2,555.7,899.3,555.1,895.8,555.1z"/>
		<path class="st0" d="M1051.5,517.8c9.3,0,18.2,1.2,26.7,3.6v12.4l-0.6,0.4c-7.7-2.5-16.2-3.7-25.4-3.7c-14.6,0-25.7,4.2-33.4,12.7
			c-7.7,8.4-11.5,19.8-11.5,34.1s3.8,25.8,11.5,34.3c7.7,8.6,18.8,12.9,33.4,12.9c9.2,0,17.7-1.2,25.4-3.7l0.6,0.4v12.4
			c-8.6,2.4-17.5,3.6-26.7,3.6c-18.8,0-33.1-5.6-43-16.9c-9.9-11.2-14.8-26.1-14.8-44.6c0.4-17.2,5.4-31.2,15.2-41.8
			C1018.6,523.2,1032.8,517.8,1051.5,517.8z"/>
		<path class="st0" d="M1153.4,577.8c0-15.2-6.7-22.7-20-22.7c-3.9,0.1-7.8,0.8-11.5,2.4c-3.8,1.5-7.9,3.7-12.6,6.4v71.6h-13.6
			V509.9l12.7-1.8h0.9v43.3c9.8-6,18.3-9,25.4-9c9.5,0,17.3,2.8,23.3,8.3s9,14.3,9,26.4v58.4h-13.6L1153.4,577.8L1153.4,577.8z"/>
		<path class="st0" d="M1217,637.2c-7.8,0-14.2-1.8-19.4-5.5c-6.9-4.9-10.3-12.2-10.3-21.9s3-16.7,8.9-21c5.9-4.2,14.6-6.2,26-6.2
			c4.2,0,10.3,0.4,18.3,1.1v-11.2c-0.1-6-1.5-10.4-4.3-13.1c-2.8-2.7-7.1-4.1-12.9-4.1c-9.7,0-18.8,2.1-27.4,6.4l-3.6-11.8
			c6.7-2.7,12.4-4.6,16.8-5.7c4.5-1.1,10-1.6,16.6-1.6c19,0,28.4,10,28.4,29.9v29.1c0.1,9.7,2.1,16.2,6.1,19.6
			c1.8,1.5,3.9,2.6,6.5,3.4l-7.7,12.7c-6.1-2-10.7-6.2-13.9-12.7C1237.7,632.9,1228.3,637.2,1217,637.2z M1215.6,624.5
			c16.6,0,24.9-7.3,24.8-21.9v-7.4c-4.3-0.1-8.2-0.1-11.7-0.1c-13.4-0.1-21.9,1.8-25.4,5.8c-1.8,1.9-2.6,4.9-2.5,9
			c0,4.1,1.5,7.6,4.6,10.4C1208.5,623.1,1211.9,624.5,1215.6,624.5z"/>
		<path class="st0" d="M1321.8,555.1c-6.2,0-14.2,2.9-24.1,8.8v71.6h-13.6v-91.2h9.1l2.5,8.5c10.5-6.8,20.1-10.3,28.7-10.3
			s15.9,2.8,21.9,8.3s9,14.3,9,26.4v58.4h-13.6v-57.5C1341.7,562.7,1335.1,555.1,1321.8,555.1z"/>
		<path class="st0" d="M1418.1,637.2c-12,0-21.8-3.7-29.4-11.2c-8.8-8.6-13.2-20.8-13.2-36.7s4-27.7,12-35.3
			c8-7.7,18.2-11.5,30.5-11.5c8.7,0,17.4,2.2,26.1,6.5v12l-0.6,0.4c-8.2-4.2-16.5-6.2-25-6.2s-15.4,2.7-21,8.1
			c-5.6,5.4-8.4,13.9-8.4,25.7c-0.1,11.6,2.8,20.4,8.5,26.5s12.8,9.1,21.1,9.1c8.3,0,16.6-2.1,24.8-6.2l0.6,0.4v12
			C1435.5,635,1426.8,637.2,1418.1,637.2z"/>
		<path class="st0" d="M1526.5,593.2h-56.9c0.6,9.6,3.7,17.2,9.1,22.9c5.4,5.6,12.2,8.4,20.5,8.4s16.7-2.2,25.2-6.5l0.3,0.1v12.6
			c-8.8,4.3-17.6,6.5-26.2,6.5c-13.2,0-23.6-4.3-31.1-13s-11.2-20.2-11.2-34.5c0-14.2,3.2-25.6,9.6-34.3
			c6.4-8.6,16.2-12.9,29.2-12.9c13.1,0,22.1,5.3,27.1,15.8c2.9,6,4.3,13.6,4.4,22.7V593.2z M1494.8,555.1c-6.9,0-12.4,2.4-16.6,7.1
			s-6.9,10.9-8.2,18.4h42.9c-0.2-12.5-3.3-20.3-9.3-23.6C1501.2,555.7,1498.3,555.1,1494.8,555.1z"/>
		<path class="st0" d="M1560.6,508.2v127.3H1547V509.9l12.7-1.8L1560.6,508.2L1560.6,508.2z"/>
		<path class="st0" d="M1602.2,508.2v127.3h-13.6V509.9l12.7-1.8L1602.2,508.2L1602.2,508.2z"/>
		<path class="st0" d="M1693.9,593.2H1637c0.6,9.6,3.7,17.2,9.1,22.9c5.4,5.6,12.2,8.4,20.5,8.4s16.7-2.2,25.2-6.5l0.3,0.1v12.6
			c-8.8,4.3-17.6,6.5-26.2,6.5c-13.2,0-23.6-4.3-31.1-13s-11.2-20.2-11.2-34.5c0-14.2,3.2-25.6,9.6-34.3
			c6.4-8.6,16.2-12.9,29.2-12.9c13.1,0,22.1,5.3,27.1,15.8c2.9,6,4.3,13.6,4.4,22.7V593.2z M1662.2,555.1c-6.9,0-12.4,2.4-16.6,7.1
			s-6.9,10.9-8.2,18.4h42.9c-0.2-12.5-3.3-20.3-9.3-23.6C1668.5,555.7,1665.6,555.1,1662.2,555.1z"/>
		<path class="st0" d="M1714.3,544.2h9.1l3.2,10.5c7-8.1,14.4-12.2,22.4-12.2c5.4,0,10.4,1.1,15.1,3.2l-4.7,12.3
			c-3.9-1.9-8.1-2.8-12.6-2.8c-7.3,0-13.6,4.1-18.9,12.2v68.1h-13.6V544.2z"/>
		<path class="st0" d="M1783.5,677.4c-6.7,0-14.2-1.9-22.5-5.6l3.7-12.5c6.3,3.6,11.5,5.4,15.8,5.4c8.4,0,13.8-3.3,16.3-9.8
			l6.8-19.6h-4.2l-31.4-91.2h14.1l26.5,76.7l26.5-76.7h14.1l-39.1,113.4C1805.3,670.8,1796.5,677.4,1783.5,677.4z"/>
	</g>
</g>
</svg>
