<?xml version="1.0" encoding="utf-8"?>
<!-- Generator: Adobe Illustrator 23.0.4, SVG Export Plug-In . SVG Version: 6.00 Build 0)  -->
<svg version="1.1" id="Layer_1" xmlns="http://www.w3.org/2000/svg" xmlns:xlink="http://www.w3.org/1999/xlink" x="0px" y="0px"
	 viewBox="0 0 7385.2 3132" style="enable-background:new 0 0 7385.2 3132;" xml:space="preserve">
<style type="text/css">
	.st0{fill:#495261;}
	.st1{fill:#3E3E40;}
	.st2{fill:#E4762C;}
</style>
<g>
	<g>
		<path class="st0" d="M2591.5,1570.1c0-47.1,7.6-91.1,22.7-132s36.7-76.6,64.7-107.1c28-30.5,61.1-54.1,99.3-70.9
			c38.2-16.7,80.3-25.1,126.2-25.1c18.7,0,39.5,1.8,62.7,5.3s44.5,9.1,64.2,16.7c19.7,7.6,36.1,18,49.3,31.3
			c13.2,13.3,19.8,29.6,19.8,48.9c0,16.6-5.4,30.9-16.2,42.9c-10.8,12-24.2,18-40.2,18c-9.8,0-23.5-3.4-41.1-10.2
			c-17.6-6.8-32.9-12.1-45.8-16c-12.9-3.8-30.4-5.8-52.7-5.8c-27.8,0-52.4,5.4-73.8,16.2c-21.3,10.8-39.1,25.5-53.3,44.2
			s-25.1,40.6-32.7,65.8c-7.6,25.2-11.3,52-11.3,80.4c0,57.2,15.1,105,45.3,143.5c30.2,38.5,72.1,57.8,125.7,57.8
			c22.5,0,40.4-2.2,53.5-6.7c13.2-4.4,29.2-10.8,48-19.1c18.8-8.3,33.2-12.4,43.3-12.4c18.7,0,33.3,7,44,21.1
			c10.7,14.1,16,27.6,16,40.7c0,26.7-11.4,48-34.2,64c-22.8,16-50,27.3-81.5,33.8c-31.5,6.5-61.2,9.8-89.1,9.8
			c-60.4,0-114.4-14.7-162-44.2c-47.5-29.5-84.6-69.8-111.1-121.1C2604.8,1688.6,2591.5,1632,2591.5,1570.1z"/>
		<path class="st0" d="M3901,1570.1c0-47.1,7.6-91.1,22.7-132s36.7-76.6,64.7-107.1c28-30.5,61.1-54.1,99.3-70.9
			c38.2-16.7,80.3-25.1,126.2-25.1c18.7,0,39.5,1.8,62.7,5.3s44.5,9.1,64.2,16.7c19.7,7.6,36.1,18,49.3,31.3
			c13.2,13.3,19.8,29.6,19.8,48.9c0,16.6-5.4,30.9-16.2,42.9c-10.8,12-24.2,18-40.2,18c-9.8,0-23.5-3.4-41.1-10.2
			c-17.6-6.8-32.9-12.1-45.8-16c-12.9-3.8-30.4-5.8-52.7-5.8c-27.8,0-52.4,5.4-73.8,16.2c-21.3,10.8-39.1,25.5-53.3,44.2
			c-14.2,18.7-25.1,40.6-32.7,65.8c-7.6,25.2-11.3,52-11.3,80.4c0,57.2,15.1,105,45.3,143.5c30.2,38.5,72.1,57.8,125.7,57.8
			c22.5,0,40.4-2.2,53.5-6.7c13.2-4.4,29.2-10.8,48-19.1c18.8-8.3,33.2-12.4,43.3-12.4c18.7,0,33.3,7,44,21.1
			c10.7,14.1,16,27.6,16,40.7c0,26.7-11.4,48-34.2,64c-22.8,16-50,27.3-81.5,33.8c-31.5,6.5-61.2,9.8-89.1,9.8
			c-60.4,0-114.4-14.7-162-44.2c-47.5-29.5-84.6-69.8-111.1-121.1C3914.2,1688.6,3901,1632,3901,1570.1z"/>
		<path class="st0" d="M4736.9,1819.3v-507.9c0-21.9,6.4-39.2,19.3-51.8c12.9-12.6,29.2-18.9,49.1-18.9c20.1,0,36.5,6.2,49.1,18.4
			c12.6,12.3,18.9,29.7,18.9,52.2v456.8h162.2c21.9,0,38.3,6.6,49.1,19.8c10.8,13.2,16.2,28.5,16.2,46c-0.9,16-7.3,30-19.1,42
			c-11.9,12-27.3,18-46.2,18H4808c-21.9,0-39.3-6.7-52-20.2C4743.3,1860.3,4736.9,1842.2,4736.9,1819.3z"/>
		<path class="st0" d="M5379.2,1825.6v-500.3c0-23.7,6.1-42.8,18.2-57.3c12.1-14.5,29.8-21.8,52.9-21.8H5676
			c20.7,0,36.7,6.2,47.8,18.5c11.1,12.3,16.7,27.1,16.7,44.4c0,11.3-2.5,21.6-7.6,31c-5,9.4-12.4,17-22,23
			c-9.6,5.9-21.3,8.9-34.9,8.9h-160.4v132.4h149.3c21.3,0,37.8,6.1,49.3,18.2c11.6,12.1,17.3,27.1,17.3,44.9
			c0,16.6-5.9,31.2-17.8,43.8c-11.9,12.6-28.1,18.9-48.9,18.9h-149.3v138.2H5684c21,0,37.1,6.2,48.2,18.4
			c11.1,12.3,16.7,27.2,16.7,44.7c0,9.8-2.5,19.7-7.6,29.8c-5,10.1-12.4,18.1-22.2,24c-9.8,5.9-21.5,8.9-35.1,8.9h-234.6
			c-20.1,0-36.9-6.3-50.2-18.9C5385.9,1862.5,5379.2,1846,5379.2,1825.6z"/>
		<path class="st0" d="M6022.4,1805.6l183.1-495c8.6-22.8,21.4-41.1,38.4-54.9c17-13.8,36.7-20.7,58.9-20.7
			c23.4,0,43.5,6.8,60.2,20.4c16.7,13.6,29.1,32,37.1,55.1l178.6,495c4.7,13,7.1,24.3,7.1,33.8c0,11.6-2.9,21.9-8.7,31.1
			c-5.8,9.2-13.4,16.3-22.9,21.3c-9.5,5-19.8,7.6-31.1,7.6c-33.8,0-56-15.6-66.7-46.9l-27.1-85.5h-252.8l-27.5,84.6
			c-10.1,31.9-31.8,47.8-65.3,47.8c-18.7,0-34.6-6.1-47.8-18.4c-13.2-12.3-19.8-27.3-19.8-45.1
			C6016.1,1827.2,6018.2,1817.1,6022.4,1805.6z M6301.8,1377.2l-86.2,263.9h172.8l-84.9-263.9H6301.8z"/>
		<path class="st0" d="M6883.2,1828.7v-511.4c0-22.2,6-39.6,18-52.2c12-12.6,29.4-18.9,52.2-18.9h160c72.6,0,128.5,16.8,167.7,50.4
			c39.2,33.6,58.9,85.4,58.9,155.3c0,24.6-4.3,46.8-12.9,66.7c-8.6,19.8-20.7,37-36.2,51.3c-15.6,14.4-33.3,25.9-53.3,34.7
			c-20,8.7-42,15.2-66,19.3l155.1,165.3c11.8,13,17.8,26.5,17.8,40.4c0,18.4-6.6,34.6-19.8,48.7c-13.2,14.1-29.3,21.1-48.2,21.1
			c-21.9,0-39.5-7.8-52.9-23.5l-202.2-244.8h-1.8v197.7c0,22.5-6.3,39.9-18.9,52.2c-12.6,12.3-29,18.4-49.1,18.4
			c-19.8,0-36.2-6.3-49.1-18.9C6889.7,1867.9,6883.2,1850.6,6883.2,1828.7z M7019.6,1371.9v160.8h93.8c25.2,0,45.6-7.2,61.3-21.7
			c15.7-14.5,23.5-34.1,23.5-58.9c0-25.7-7.8-45.5-23.3-59.4c-15.6-13.9-36.1-20.8-61.5-20.8H7019.6z"/>
	</g>
	<circle class="st1" cx="1566" cy="1572" r="180"/>
	<circle class="st2" cx="2940" cy="180" r="180"/>
	<circle class="st2" cx="1560" cy="180" r="180"/>
	<circle class="st2" cx="180" cy="1572" r="180"/>
	<circle class="st2" cx="2940" cy="2952" r="180"/>
	<circle class="st2" cx="1560" cy="2952" r="180"/>
	<circle class="st2" cx="3511.5" cy="1579.5" r="58.5"/>
	<g>
		<path class="st0" d="M3777.4,2505.4v-224.8c0-9.6,2.7-17.3,8.2-22.9c5.5-5.6,13.1-8.4,23-8.4h70.6c19.1,0,36.6,4,52.4,12
			c15.8,8,28.1,19.3,36.9,33.8c8.8,14.5,13.2,31.1,13.2,49.7c0,14.4-2.6,27.5-7.9,39.3c-5.3,11.8-12.4,21.8-21.5,30
			c-9,8.2-19.7,14.5-31.9,18.9c-12.2,4.4-25.1,6.6-38.6,6.6h-44.5v65.8c0,9.9-2.8,17.6-8.3,23c-5.5,5.4-12.7,8.1-21.6,8.1
			c-8.7,0-15.9-2.8-21.6-8.3C3780.3,2522.7,3777.4,2515.1,3777.4,2505.4z M3837.4,2302.1v84.8h40.8c12.2,0,22.2-4,29.8-11.9
			c7.6-7.9,11.4-18.1,11.4-30.5c0-7.9-1.7-15.1-5.1-21.6c-3.4-6.4-8.2-11.5-14.5-15.2s-13.5-5.6-21.7-5.6H3837.4z"/>
		<path class="st0" d="M4249.4,2495.3l80.5-217.6c3.8-10,9.4-18.1,16.9-24.1c7.5-6.1,16.1-9.1,25.9-9.1c10.3,0,19.1,3,26.5,9
			c7.4,6,12.8,14.1,16.3,24.2l78.5,217.6c2.1,5.7,3.1,10.7,3.1,14.8c0,5.1-1.3,9.6-3.8,13.7c-2.5,4-5.9,7.2-10.1,9.4
			c-4.2,2.2-8.7,3.3-13.7,3.3c-14.8,0-24.6-6.9-29.3-20.6l-11.9-37.6h-111.1l-12.1,37.2c-4.4,14-14,21-28.7,21
			c-8.2,0-15.2-2.7-21-8.1c-5.8-5.4-8.7-12-8.7-19.8C4246.7,2504.8,4247.6,2500.4,4249.4,2495.3z M4372.3,2307l-37.9,116h76
			l-37.3-116H4372.3z"/>
		<path class="st0" d="M4779.8,2505.4v-224.8c0-9.8,2.6-17.4,7.9-22.9c5.3-5.5,12.9-8.3,22.9-8.3h70.3c31.9,0,56.5,7.4,73.7,22.2
			c17.3,14.8,25.9,37.5,25.9,68.3c0,10.8-1.9,20.6-5.7,29.3c-3.8,8.7-9.1,16.2-15.9,22.6c-6.8,6.3-14.6,11.4-23.4,15.2
			c-8.8,3.8-18.5,6.7-29,8.5l68.2,72.7c5.2,5.7,7.8,11.7,7.8,17.8c0,8.1-2.9,15.2-8.7,21.4c-5.8,6.2-12.9,9.3-21.2,9.3
			c-9.6,0-17.4-3.4-23.2-10.4l-88.9-107.6h-0.8v86.9c0,9.9-2.8,17.5-8.3,22.9c-5.5,5.4-12.7,8.1-21.6,8.1c-8.7,0-15.9-2.8-21.6-8.3
			C4782.7,2522.7,4779.8,2515.1,4779.8,2505.4z M4839.8,2304.7v70.7h41.2c11.1,0,20-3.2,27-9.5c6.9-6.4,10.4-15,10.4-25.9
			c0-11.3-3.4-20-10.3-26.1s-15.9-9.2-27.1-9.2H4839.8z"/>
		<path class="st0" d="M5314.3,2505.5v-200.8h-43.6c-8.9,0-15.6-2.7-20.3-8.1s-7-11.9-7-19.5c0-4.7,1.1-9.2,3.4-13.5
			c2.3-4.3,5.5-7.7,9.8-10.3c4.2-2.5,9-3.8,14.2-3.8h147.1c5.2,0,9.9,1.3,14.2,3.8c4.2,2.5,7.5,6,9.8,10.3c2.3,4.3,3.4,8.8,3.4,13.5
			c0,7.6-2.3,14.1-6.8,19.5c-4.6,5.4-11.4,8.1-20.5,8.1h-43.6v200.8c0,9.9-2.8,17.5-8.3,22.9c-5.5,5.4-12.7,8.1-21.6,8.1
			c-9,0-16.2-2.7-21.8-8.1C5317.1,2523,5314.3,2515.4,5314.3,2505.5z"/>
		<path class="st0" d="M5719.9,2505.4v-227.3c0-9.8,2.8-17.4,8.4-22.9c5.6-5.5,12.8-8.2,21.5-8.2c4.2,0,8.8,1.3,13.9,3.9
			c5.1,2.6,8.9,5.7,11.3,9.2l127,169.1h0.8v-151.2c0-9.8,2.8-17.4,8.4-22.9c5.6-5.5,12.8-8.2,21.5-8.2c9,0,16.2,2.7,21.8,8.1
			c5.5,5.4,8.3,13.1,8.3,22.9v227.3c0,9.9-2.8,17.5-8.3,22.9c-5.5,5.4-12.8,8.1-21.8,8.1c-3.6,0-8-1.3-13-3.8
			c-5-2.5-9.1-5.6-12.2-9.3l-126.8-167.2h-0.8v149.2c0,9.9-2.8,17.5-8.3,22.9c-5.5,5.4-12.8,8.1-21.8,8.1c-8.7,0-15.9-2.7-21.5-8.2
			C5722.7,2522.8,5719.9,2515.2,5719.9,2505.4z"/>
		<path class="st0" d="M6260.3,2504.1v-219.9c0-10.4,2.7-18.8,8-25.2c5.3-6.4,13.1-9.6,23.2-9.6h99.2c9.1,0,16.1,2.7,21,8.1
			s7.3,11.9,7.3,19.5c0,5-1.1,9.5-3.3,13.6c-2.2,4.1-5.4,7.5-9.7,10.1c-4.2,2.6-9.3,3.9-15.3,3.9h-70.5v58.2h65.6
			c9.4,0,16.6,2.7,21.7,8c5.1,5.3,7.6,11.9,7.6,19.7c0,7.3-2.6,13.7-7.8,19.2c-5.2,5.5-12.4,8.3-21.5,8.3h-65.6v60.7h74
			c9.2,0,16.3,2.7,21.2,8.1c4.9,5.4,7.3,11.9,7.3,19.6c0,4.3-1.1,8.7-3.3,13.1c-2.2,4.4-5.5,7.9-9.8,10.5c-4.3,2.6-9.4,3.9-15.4,3.9
			h-103.1c-8.9,0-16.2-2.8-22.1-8.3C6263.2,2520.3,6260.3,2513.1,6260.3,2504.1z"/>
		<path class="st0" d="M6709.5,2505.4v-224.8c0-9.8,2.6-17.4,7.9-22.9c5.3-5.5,12.9-8.3,22.9-8.3h70.3c31.9,0,56.5,7.4,73.7,22.2
			c17.3,14.8,25.9,37.5,25.9,68.3c0,10.8-1.9,20.6-5.7,29.3c-3.8,8.7-9.1,16.2-15.9,22.6c-6.8,6.3-14.6,11.4-23.4,15.2
			c-8.8,3.8-18.5,6.7-29,8.5l68.2,72.7c5.2,5.7,7.8,11.7,7.8,17.8c0,8.1-2.9,15.2-8.7,21.4c-5.8,6.2-12.9,9.3-21.2,9.3
			c-9.6,0-17.4-3.4-23.2-10.4l-88.9-107.6h-0.8v86.9c0,9.9-2.8,17.5-8.3,22.9c-5.5,5.4-12.7,8.1-21.6,8.1c-8.7,0-15.9-2.8-21.6-8.3
			C6712.3,2522.7,6709.5,2515.1,6709.5,2505.4z M6769.4,2304.7v70.7h41.2c11.1,0,20-3.2,27-9.5c6.9-6.4,10.4-15,10.4-25.9
			c0-11.3-3.4-20-10.3-26.1s-15.9-9.2-27.1-9.2H6769.4z"/>
		<path class="st0" d="M7286,2244.5c9.1,0,19.9,1.3,32.3,3.9c12.4,2.6,23.2,6.9,32.3,13c9.1,6.1,13.7,13.8,13.7,23.1
			c0,8.2-2.5,15.2-7.4,21c-5,5.8-11.4,8.7-19.3,8.7c-3.6,0-7.6-0.7-11.8-2.1c-4.2-1.4-8.6-2.9-13.1-4.6c-4.5-1.7-9-3-13.5-4
			s-9.4-1.5-14.7-1.5c-9,0-16.7,2.3-23.1,7s-9.7,11-9.7,18.9c0,8.6,7.3,15.5,21.8,20.6c14.5,5.1,30.7,10.6,48.4,16.5
			s32.8,14.9,45,27.2c12.2,12.3,18.4,30.2,18.4,53.6c0,18.2-4.6,34.4-13.9,48.6c-9.2,14.2-21.7,25.1-37.3,32.8s-32.7,11.5-51.2,11.5
			c-22.8,0-44.7-3.4-65.7-10.1c-21-6.7-31.5-18.3-31.5-34.9c0-8.1,2.4-14.8,7.3-20.2c4.9-5.4,11.4-8.1,19.4-8.1
			c3.9,0,8.2,0.7,12.9,2c4.7,1.3,10.7,3.2,18,5.8c7.3,2.5,13.7,4.5,19.1,5.9s11.2,2.1,17.2,2.1c8.6,0,15.9-1.5,22.1-4.4
			c6.1-2.9,10.8-7,14-12.2c3.2-5.2,4.8-11.1,4.8-17.8c0-10.2-3.5-16.8-10.6-19.9c-7.1-3.1-23.4-8.7-48.9-16.8
			c-25.5-8.1-44.2-17.4-56.2-27.9s-17.9-26.2-17.9-47.1c0-18.2,4.5-34.2,13.6-47.9c9-13.7,21.2-24.3,36.4-31.7
			S7268.4,2244.5,7286,2244.5z"/>
	</g>
</g>
</svg>
