<?xml version="1.0" encoding="UTF-8"?>
<svg width="190px" height="56px" viewBox="0 0 190 56" version="1.1" xmlns="http://www.w3.org/2000/svg" xmlns:xlink="http://www.w3.org/1999/xlink">
    <!-- Generator: Sketch 52.6 (67491) - http://www.bohemiancoding.com/sketch -->
    <title>Artboard</title>
    <desc>Created with Sketch.</desc>
    <g id="Artboard" stroke="none" stroke-width="1" fill="none" fill-rule="evenodd">
        <g id="logo-redpencil" transform="translate(40.000000, 18.000000)">
            <path d="M2.51447072,7.00713893 C2.85980748,6.33351301 3.26988873,5.80450494 3.74472677,5.42009885 C4.21956482,5.03569275 4.78072864,4.84349259 5.42823506,4.84349259 C5.93904569,4.84349259 6.34912694,4.95698221 6.65849112,5.18396485 L6.4858236,7.21581549 C6.44985103,7.34761186 6.39769157,7.44096622 6.32934367,7.49588138 C6.26099577,7.55079653 6.16926707,7.57825371 6.05415481,7.57825371 C5.94623707,7.57825371 5.7861615,7.55994893 5.57392328,7.52333882 C5.36168507,7.48672872 5.15484584,7.46842394 4.95339939,7.46842394 C4.65842424,7.46842394 4.39582835,7.51235541 4.16560385,7.60021966 C3.93537934,7.68808391 3.72854012,7.81438687 3.54507996,7.97913234 C3.36161981,8.14387781 3.19974563,8.34339989 3.05945257,8.57770456 C2.91915951,8.81200923 2.78786156,9.07925898 2.66555479,9.37946183 L2.66555479,16.3207029 L0,16.3207029 L0,5.05216914 L1.56479937,5.05216914 C1.83819097,5.05216914 2.02884278,5.10159203 2.13676052,5.20043932 C2.24467826,5.29928659 2.31662234,5.47684294 2.35259492,5.73311367 L2.51447072,7.00713893 Z M15.1839498,9.39044481 C15.1839498,9.03898781 15.1353875,8.70767133 15.0382616,8.39648545 C14.9411356,8.08529955 14.7954488,7.81255837 14.6011969,7.57825371 C14.406945,7.34394904 14.1605364,7.15907078 13.8619641,7.0236134 C13.5633917,6.88815601 13.2162616,6.82042834 12.8205631,6.82042834 C12.0507499,6.82042834 11.4446211,7.04374662 11.0021583,7.4903899 C10.5596956,7.93703317 10.2773151,8.57037847 10.1550083,9.39044481 L15.1839498,9.39044481 Z M10.1010497,11.0269083 C10.1442168,11.605348 10.2449385,12.1050684 10.4032179,12.5260846 C10.5614972,12.9471007 10.7701351,13.2948916 11.0291376,13.5694673 C11.2881402,13.8440431 11.5957012,14.0490566 11.9518297,14.184514 C12.3079582,14.3199714 12.7018521,14.3876991 13.133523,14.3876991 C13.565194,14.3876991 13.9375046,14.3364457 14.250466,14.2339374 C14.5634274,14.1314291 14.8368149,14.0179395 15.0706367,13.8934651 C15.3044585,13.7689908 15.5094991,13.6555011 15.6857647,13.5529929 C15.8620303,13.4504846 16.0328976,13.3992312 16.1983714,13.3992312 C16.4214014,13.3992312 16.5868729,13.4834332 16.6947905,13.6518396 L17.4610026,14.6403075 C17.1660275,14.9917645 16.8350847,15.2864714 16.4681644,15.5244371 C16.1012442,15.7624028 15.7181419,15.9527725 15.3188463,16.0955519 C14.9195506,16.2383313 14.5130666,16.3390076 14.0993819,16.3975837 C13.6856973,16.4561599 13.284609,16.4854476 12.8961052,16.4854476 C12.126292,16.4854476 11.4104484,16.3554837 10.7485529,16.0955519 C10.0866575,15.8356201 9.51110484,15.4512198 9.02187776,14.9423394 C8.53265068,14.4334589 8.14774986,13.8037746 7.86716374,13.0532674 C7.58657762,12.3027603 7.44628667,11.4332834 7.44628667,10.4448105 C7.44628667,9.67599835 7.5685916,8.95295963 7.81320514,8.27567271 C8.05781868,7.59838577 8.40854607,7.00897193 8.86539782,6.50741351 C9.32224958,6.00585507 9.8798162,5.60864141 10.5381144,5.31576057 C11.1964126,5.02287974 11.9392353,4.87644152 12.7666045,4.87644152 C13.4644726,4.87644152 14.108372,4.98993114 14.6983224,5.21691378 C15.2882727,5.44389643 15.7954784,5.7752129 16.2199549,6.21087315 C16.6444313,6.64653338 16.9771727,7.18103289 17.218189,7.8143877 C17.4592052,8.4477425 17.5797116,9.17078122 17.5797116,9.98352554 C17.5797116,10.3935587 17.5365452,10.6699608 17.4502109,10.8127403 C17.3638767,10.9555197 17.1984053,11.0269083 16.9537918,11.0269083 L10.1010497,11.0269083 Z M26.5260473,7.92970895 C26.2238776,7.55628589 25.8947335,7.29269709 25.5386049,7.13893465 C25.1824764,6.98517221 24.7993742,6.90829215 24.3892868,6.90829215 C23.9863939,6.90829215 23.6230763,6.98517221 23.2993231,7.13893465 C22.9755699,7.29269709 22.6985852,7.52516776 22.4683606,7.83635365 C22.2381361,8.14753953 22.0618731,8.54292273 21.9395664,9.0225151 C21.8172596,9.50210746 21.7561071,10.0677251 21.7561071,10.719385 C21.7561071,11.3783668 21.8082666,11.9366625 21.9125871,12.3942889 C22.0169075,12.8519152 22.1661915,13.2253326 22.3604434,13.5145524 C22.5546954,13.8037723 22.7921108,14.0124468 23.0726969,14.1405821 C23.3532831,14.2687174 23.6662399,14.3327842 24.0115766,14.3327842 C24.5655543,14.3327842 25.036788,14.2156337 25.4252919,13.9813289 C25.8137957,13.7470242 26.1807106,13.4138774 26.5260473,12.9818781 L26.5260473,7.92970895 Z M29.1916021,0 L29.1916021,16.3207029 L27.5620524,16.3207029 C27.2095211,16.3207029 26.9864945,16.1559599 26.8929658,15.826469 L26.6663396,14.7391543 C26.2202796,15.2590178 25.7076781,15.6800277 25.1285196,16.0021966 C24.5493611,16.3243655 23.8748853,16.4854476 23.1050721,16.4854476 C22.5007328,16.4854476 21.9467634,16.3573141 21.4431473,16.1010434 C20.9395311,15.8447726 20.5060681,15.4731857 20.142745,14.9862713 C19.779422,14.4993569 19.49884,13.8971297 19.3009909,13.1795717 C19.1031417,12.4620137 19.0042186,11.6419596 19.0042186,10.719385 C19.0042186,9.88467457 19.1157319,9.108552 19.3387619,8.39099396 C19.5617919,7.67343591 19.8819431,7.05107348 20.299225,6.52388797 C20.7165068,5.99670247 21.2165183,5.58484497 21.799274,5.28830313 C22.3820298,4.99176128 23.036721,4.84349259 23.763367,4.84349259 C24.3820954,4.84349259 24.9108844,4.94233839 25.3497498,5.14003295 C25.7886153,5.33772751 26.1807106,5.60497727 26.5260473,5.94179023 L26.5260473,0 L29.1916021,0 Z M34.4903365,13.3992312 C34.7925062,13.7726542 35.1216503,14.0362431 35.4777789,14.1900055 C35.8339074,14.3437679 36.2206069,14.420648 36.6378887,14.420648 C37.0407817,14.420648 37.4040993,14.3437679 37.7278524,14.1900055 C38.0516057,14.0362431 38.3267918,13.8019419 38.553419,13.487095 C38.7800462,13.1722481 38.9545107,12.7750345 39.0768174,12.2954421 C39.1991242,11.8158497 39.2602767,11.2502321 39.2602767,10.5985722 C39.2602767,9.93959033 39.2081172,9.38129461 39.1037967,8.92366831 C38.9994763,8.466042 38.8501923,8.09445502 38.6559404,7.80889621 C38.4616884,7.5233374 38.2260716,7.31466293 37.9490827,7.18286656 C37.6720938,7.05107018 37.3573385,6.98517298 37.0048072,6.98517298 C36.4508295,6.98517298 35.9795958,7.10415403 35.5910919,7.34211971 C35.2025881,7.58008539 34.8356732,7.91506282 34.4903365,8.34706205 L34.4903365,13.3992312 Z M34.3500441,6.58978583 C34.8032987,6.06992235 35.3176988,5.64891247 35.8932601,5.32674355 C36.4688213,5.00457463 37.1450957,4.84349259 37.9221034,4.84349259 C38.5264427,4.84349259 39.0786135,4.97162603 39.5786324,5.22789676 C40.0786513,5.48416749 40.5103157,5.85575447 40.8736388,6.34266886 C41.2369618,6.82958324 41.5175438,7.42997995 41.7153929,8.14387699 C41.9132421,8.85777402 42.0121652,9.67599758 42.0121652,10.5985722 C42.0121652,11.4406046 41.9006519,12.2203882 41.6776219,12.9379462 C41.4545919,13.6555042 41.1362393,14.2778666 40.7225547,14.8050522 C40.3088701,15.3322377 39.8088586,15.7440952 39.2225056,16.040637 C38.6361527,16.3371788 37.9796628,16.4854476 37.2530168,16.4854476 C36.6342884,16.4854476 36.1054994,16.3884322 35.666634,16.1943987 C35.2277685,16.0003651 34.8356732,15.7312849 34.4903365,15.3871499 L34.4903365,20 L31.8247817,20 L31.8247817,5.05216914 L33.4543314,5.05216914 C33.7996681,5.05216914 34.0262921,5.21691214 34.1342098,5.54640308 L34.3500441,6.58978583 Z M51.2175022,9.39044481 C51.2175022,9.03898781 51.1689399,8.70767133 51.071814,8.39648545 C50.974688,8.08529955 50.8290013,7.81255837 50.6347493,7.57825371 C50.4404974,7.34394904 50.1940889,7.15907078 49.8955165,7.0236134 C49.5969442,6.88815601 49.249814,6.82042834 48.8541156,6.82042834 C48.0843024,6.82042834 47.4781735,7.04374662 47.0357108,7.4903899 C46.5932481,7.93703317 46.3108675,8.57037847 46.1885608,9.39044481 L51.2175022,9.39044481 Z M46.1346022,11.0269083 C46.1777693,11.605348 46.2784909,12.1050684 46.4367703,12.5260846 C46.5950497,12.9471007 46.8036875,13.2948916 47.0626901,13.5694673 C47.3216927,13.8440431 47.6292536,14.0490566 47.9853821,14.184514 C48.3415107,14.3199714 48.7354045,14.3876991 49.1670754,14.3876991 C49.5987464,14.3876991 49.971057,14.3364457 50.2840184,14.2339374 C50.5969799,14.1314291 50.8703674,14.0179395 51.1041891,13.8934651 C51.3380109,13.7689908 51.5430516,13.6555011 51.7193172,13.5529929 C51.8955828,13.4504846 52.06645,13.3992312 52.2319239,13.3992312 C52.4549538,13.3992312 52.6204253,13.4834332 52.728343,13.6518396 L53.4945551,14.6403075 C53.19958,14.9917645 52.8686371,15.2864714 52.5017169,15.5244371 C52.1347966,15.7624028 51.7516944,15.9527725 51.3523987,16.0955519 C50.953103,16.2383313 50.546619,16.3390076 50.1329344,16.3975837 C49.7192497,16.4561599 49.3181614,16.4854476 48.9296576,16.4854476 C48.1598444,16.4854476 47.4440009,16.3554837 46.7821054,16.0955519 C46.1202099,15.8356201 45.5446572,15.4512198 45.0554302,14.9423394 C44.5662032,14.4334589 44.1813023,13.8037746 43.9007162,13.0532674 C43.62013,12.3027603 43.4798391,11.4332834 43.4798391,10.4448105 C43.4798391,9.67599835 43.6021441,8.95295963 43.8467576,8.27567271 C44.0913711,7.59838577 44.4420985,7.00897193 44.8989503,6.50741351 C45.355802,6.00585507 45.9133687,5.60864141 46.5716668,5.31576057 C47.229965,5.02287974 47.9727877,4.87644152 48.800157,4.87644152 C49.498025,4.87644152 50.1419245,4.98993114 50.7318748,5.21691378 C51.3218252,5.44389643 51.8290308,5.7752129 52.2535073,6.21087315 C52.6779838,6.64653338 53.0107251,7.18103289 53.2517414,7.8143877 C53.4927577,8.4477425 53.613264,9.17078122 53.613264,9.98352554 C53.613264,10.3935587 53.5700976,10.6699608 53.4837634,10.8127403 C53.3974291,10.9555197 53.2319578,11.0269083 52.9873443,11.0269083 L46.1346022,11.0269083 Z M58.1026194,6.43602416 C58.3256494,6.20904152 58.5612663,5.99853657 58.8094771,5.80450302 C59.0576878,5.61046946 59.3202837,5.44572646 59.5972726,5.31026908 C59.8742616,5.17481169 60.1710308,5.06864398 60.4875895,4.99176277 C60.8041482,4.91488154 61.1494798,4.87644152 61.5235946,4.87644152 C62.1279339,4.87644152 62.6639174,4.98077874 63.1315609,5.18945634 C63.5992045,5.39813393 63.989501,5.69101037 64.3024625,6.06809445 C64.6154239,6.44517852 64.8528393,6.89547605 65.014716,7.41900055 C65.1765926,7.94252504 65.2575297,8.51912554 65.2575297,9.14881933 L65.2575297,16.3207029 L62.5919749,16.3207029 L62.5919749,9.14881933 C62.5919749,8.46054937 62.4372951,7.92788033 62.1279309,7.55079627 C61.8185667,7.17371219 61.347333,6.98517298 60.7142156,6.98517298 C60.2537666,6.98517298 59.8221022,7.09134069 59.4192093,7.3036793 C59.0163164,7.5160179 58.6350128,7.80523339 58.275287,8.17133443 L58.275287,16.3207029 L55.6097322,16.3207029 L55.6097322,5.05216914 L57.2392819,5.05216914 C57.5846186,5.05216914 57.8112425,5.21691214 57.9191602,5.54640308 L58.1026194,6.43602416 Z M75.7147062,7.43547501 C75.6355665,7.53798331 75.5582266,7.61852433 75.4826842,7.67710049 C75.4071418,7.73567666 75.2974271,7.76496431 75.1535367,7.76496431 C75.0168409,7.76496431 74.8837443,7.72286331 74.7542431,7.63866008 C74.6247419,7.55445683 74.4700621,7.45927199 74.2901992,7.35310269 C74.1103363,7.24693338 73.8963026,7.15174854 73.6480918,7.0675453 C73.3998811,6.98334206 73.0923201,6.94124108 72.7253998,6.94124108 C72.2577563,6.94124108 71.847675,7.02727352 71.4951437,7.19934102 C71.1426124,7.37140851 70.8494404,7.61852301 70.6156186,7.94069193 C70.3817968,8.26286085 70.2073324,8.6527526 70.0922202,9.11037891 C69.9771079,9.56800521 69.9195526,10.0860304 69.9195526,10.6644701 C69.9195526,11.2648758 69.9825037,11.7993753 70.1084077,12.2679846 C70.2343117,12.7365939 70.4159705,13.1301467 70.6533896,13.4486546 C70.8908086,13.7671625 71.1785849,14.0087855 71.5167272,14.173531 C71.8548694,14.3382765 72.236173,14.420648 72.6606495,14.420648 C73.0851259,14.420648 73.4286589,14.3675641 73.6912587,14.2613948 C73.9538585,14.1552256 74.1750866,14.0380749 74.3549495,13.9099396 C74.5348124,13.7818043 74.6912907,13.6646536 74.8243893,13.5584843 C74.9574879,13.4523151 75.1067718,13.3992312 75.2722457,13.3992312 C75.4880811,13.3992312 75.6499554,13.4834332 75.7578731,13.6518396 L76.5240852,14.6403075 C76.22911,14.9917645 75.9089588,15.2864714 75.5636221,15.5244371 C75.2182854,15.7624028 74.8603635,15.9527725 74.489846,16.0955519 C74.1193285,16.2383313 73.7380247,16.3390076 73.3459237,16.3975837 C72.9538226,16.4561599 72.5635259,16.4854476 72.1750221,16.4854476 C71.4915431,16.4854476 70.8476435,16.3554837 70.2433042,16.0955519 C69.6389649,15.8356201 69.1101759,15.4567112 68.6569214,14.9588138 C68.2036669,14.4609165 67.8457451,13.8513674 67.5831453,13.1301483 C67.3205455,12.4089292 67.1892475,11.5870447 67.1892475,10.6644701 C67.1892475,9.83708171 67.3061566,9.07011153 67.5399784,8.36353652 C67.7738002,7.6569615 68.1173331,7.04558193 68.5705877,6.52937946 C69.0238422,6.01317698 69.585006,5.60864141 70.2540959,5.31576057 C70.9231859,5.02287974 71.6929876,4.87644152 72.563524,4.87644152 C73.3908934,4.87644152 74.1157299,5.01189687 74.7380555,5.28281164 C75.3603812,5.55372641 75.9197463,5.9417877 76.416168,6.44700714 L75.7147062,7.43547501 Z M80.9486903,5.05216914 L80.9486903,16.3207029 L78.2723438,16.3207029 L78.2723438,5.05216914 L80.9486903,5.05216914 Z M81.3156088,1.7682592 C81.3156088,2.00256387 81.2688451,2.2222212 81.1753164,2.42723778 C81.0817877,2.63225437 80.9576841,2.81164119 80.8030021,2.96540362 C80.64832,3.11916606 80.4666612,3.24180807 80.2580202,3.33333333 C80.0493792,3.42485859 79.8263526,3.47062054 79.5889336,3.47062054 C79.358709,3.47062054 79.1410783,3.42485859 78.9360345,3.33333333 C78.7309908,3.24180807 78.5529292,3.11916606 78.4018444,2.96540362 C78.2507596,2.81164119 78.1302533,2.63225437 78.0403218,2.42723778 C77.9503903,2.2222212 77.9054253,2.00256387 77.9054253,1.7682592 C77.9054253,1.52663251 77.9503903,1.29965327 78.0403218,1.08731466 C78.1302533,0.874976057 78.2507596,0.691928281 78.4018444,0.538165843 C78.5529292,0.384403405 78.7309908,0.261761395 78.9360345,0.170236134 C79.1410783,0.0787108731 79.358709,0.0329489292 79.5889336,0.0329489292 C79.8263526,0.0329489292 80.0493792,0.0787108731 80.2580202,0.170236134 C80.4666612,0.261761395 80.64832,0.384403405 80.8030021,0.538165843 C80.9576841,0.691928281 81.0817877,0.874976057 81.1753164,1.08731466 C81.2688451,1.29965327 81.3156088,1.52663251 81.3156088,1.7682592 Z M86.3661336,0 L86.3661336,16.3207029 L83.7005788,16.3207029 L83.7005788,0 L86.3661336,0 Z M96.9204356,5.05216914 L96.9204356,16.3207029 L94.2440891,16.3207029 L94.2440891,5.05216914 L96.9204356,5.05216914 Z M97.2873541,1.7682592 C97.2873541,2.00256387 97.2405904,2.2222212 97.1470617,2.42723778 C97.053533,2.63225437 96.9294294,2.81164119 96.7747474,2.96540362 C96.6200653,3.11916606 96.4384065,3.24180807 96.2297655,3.33333333 C96.0211245,3.42485859 95.7980979,3.47062054 95.5606789,3.47062054 C95.3304543,3.47062054 95.1128236,3.42485859 94.9077798,3.33333333 C94.7027361,3.24180807 94.5246745,3.11916606 94.3735897,2.96540362 C94.2225049,2.81164119 94.1019986,2.63225437 94.0120671,2.42723778 C93.9221356,2.2222212 93.8771706,2.00256387 93.8771706,1.7682592 C93.8771706,1.52663251 93.9221356,1.29965327 94.0120671,1.08731466 C94.1019986,0.874976057 94.2225049,0.691928281 94.3735897,0.538165843 C94.5246745,0.384403405 94.7027361,0.261761395 94.9077798,0.170236134 C95.1128236,0.0787108731 95.3304543,0.0329489292 95.5606789,0.0329489292 C95.7980979,0.0329489292 96.0211245,0.0787108731 96.2297655,0.170236134 C96.4384065,0.261761395 96.6200653,0.384403405 96.7747474,0.538165843 C96.9294294,0.691928281 97.053533,0.874976057 97.1470617,1.08731466 C97.2405904,1.29965327 97.2873541,1.52663251 97.2873541,1.7682592 Z M104.53939,4.87644152 C105.359565,4.87644152 106.105984,5.01189687 106.778672,5.28281164 C107.451359,5.55372641 108.026911,5.93812674 108.505347,6.43602416 C108.983782,6.93392158 109.352495,7.5416402 109.611498,8.25919824 C109.870501,8.97675629 110,9.77850555 110,10.6644701 C110,11.5577567 109.870501,12.3631669 109.611498,13.0807249 C109.352495,13.7982829 108.983782,14.4096625 108.505347,14.9148819 C108.026911,15.4201014 107.451359,15.8081627 106.778672,16.0790774 C106.105984,16.3499922 105.359565,16.4854476 104.53939,16.4854476 C103.712021,16.4854476 102.960205,16.3499922 102.28392,16.0790774 C101.607636,15.8081627 101.030285,15.4201014 100.551849,14.9148819 C100.073414,14.4096625 99.702902,13.7982829 99.4403022,13.0807249 C99.1777023,12.3631669 99.0464044,11.5577567 99.0464044,10.6644701 C99.0464044,9.77850555 99.1777023,8.97675629 99.4403022,8.25919824 C99.702902,7.5416402 100.073414,6.93392158 100.551849,6.43602416 C101.030285,5.93812674 101.607636,5.55372641 102.28392,5.28281164 C102.960205,5.01189687 103.712021,4.87644152 104.53939,4.87644152 Z M104.53939,14.398682 C105.460288,14.398682 106.141958,14.0838399 106.584421,13.4541461 C107.026883,12.8244523 107.248111,11.9018915 107.248111,10.686436 C107.248111,9.47098056 107.026883,8.54475881 106.584421,7.907743 C106.141958,7.27072718 105.460288,6.95222405 104.53939,6.95222405 C103.604103,6.95222405 102.911641,7.27255765 102.461984,7.91323449 C102.012326,8.55391131 101.787501,9.47830258 101.787501,10.686436 C101.787501,11.8945694 102.012326,12.8152998 102.461984,13.4486546 C102.911641,14.0820094 103.604103,14.398682 104.53939,14.398682 Z" id="word" fill="#333333" fill-rule="nonzero"></path>
            <path d="M89,14.5049834 C89,14.2990023 89.0379535,14.1029909 89.1138614,13.9169435 C89.1897693,13.7308961 89.2937287,13.5714292 89.4257426,13.4385382 C89.5577564,13.3056472 89.7161707,13.199336 89.9009901,13.1196013 C90.0858095,13.0398667 90.2838273,13 90.4950495,13 C90.7062717,13 90.9026394,13.0398667 91.0841584,13.1196013 C91.2656774,13.199336 91.4240917,13.3056472 91.5594059,13.4385382 C91.6947201,13.5714292 91.8019798,13.7308961 91.8811881,13.9169435 C91.9603965,14.1029909 92,14.2990023 92,14.5049834 C92,14.7176091 91.9603965,14.9152815 91.8811881,15.0980066 C91.8019798,15.2807318 91.6947201,15.4385375 91.5594059,15.5714286 C91.4240917,15.7043196 91.2656774,15.8089698 91.0841584,15.8853821 C90.9026394,15.9617944 90.7062717,16 90.4950495,16 C90.2838273,16 90.0858095,15.9617944 89.9009901,15.8853821 C89.7161707,15.8089698 89.5577564,15.7043196 89.4257426,15.5714286 C89.2937287,15.4385375 89.1897693,15.2807318 89.1138614,15.0980066 C89.0379535,14.9152815 89,14.7176091 89,14.5049834 Z" id="dot" fill="#C90813"></path>
        </g>
    </g>
</svg>