<?xml version="1.0" encoding="utf-8"?>
<!-- Generator: Adobe Illustrator 23.0.4, SVG Export Plug-In . SVG Version: 6.00 Build 0)  -->
<svg version="1.1" id="Layer_1" xmlns="http://www.w3.org/2000/svg" xmlns:xlink="http://www.w3.org/1999/xlink" x="0px" y="0px"
	 viewBox="0 0 2232.3 825.5" style="enable-background:new 0 0 2232.3 825.5;" xml:space="preserve">
<style type="text/css">
	.st0{fill:#333333;}
	.st1{fill-rule:evenodd;clip-rule:evenodd;fill:#333333;}
</style>
<title>logo-flanders</title>
<desc>Created with Sketch.</desc>
<g>
	<g id="Page-1">
		<g id="logo-flanders">
			<path id="Shape" class="st0" d="M375.8,394.2c-20.7-15.7-30.5,0-43.5,0s-21.5-19.2-29.9-14.4c-16.3,8.2,6.5,38.3,16.5,43.5
				c7.3,4.2,14.9,7.9,22.6,11.3c11.6,5.4,19.1,16.9,19.2,29.7c0.6,4.8,0.6,9.6,0,14.4c-5.9,25.3-50.6,48.3-76.7,30.9
				c-14-8.4-23.7-22.3-26.8-38.3c-6.9-33.2-31.1-57.5-38.3-90.1c-4.8-19.2-8.2-40.6-13.4-60.4s-10.5-41.6-15-60.8
				c-4.8-20-10.9-39.7-18-59c-24.7-63.5-35.7-58.9-35.7-58.9s8.8,17.6,41.2,172.5c5.4,33.3,12.6,66.2,21.7,98.7
				c3.1,8.1,8.4,25.3,11.9,33c10.4,22.2,38.3,56,39.3,86.5c1,17.6,3.1,32.2,3.5,45.4c0.7,9.1,2.2,18.1,4.6,26.8
				c6.7,19.2,60.2,78.4,116.9,78.4v-46.2c-39.6-0.9-78.1-13-111-34.9c0.7-11.1,3-22.1,6.7-32.6c6.4-20.5,24.5-35.2,45.8-37.2
				c19.3,0.4,38.5,2.3,57.5,5.9V394.2H375.8z M130.6,228.6c-2.1,33.9-55,80.5-71.5,110.2c-9.4,17.1-16.4,35.4-20.9,54.4
				c-5.7,30.3-1.5,61.7,11.9,89.5c17.4,41.8-2.3,57.5,11.3,48.7c16.9-13.8,14.4-45.8,13-65.8c-1.7-18-1.7-36.1,0-54.1
				c7.6-37.1,23.4-72,46.2-102.2C136.3,285.5,140,255.7,130.6,228.6z M141.4,324.5c0,0,5.6,26.8-19.2,95.9
				c-62.5,181.2,57.5,198.2,90.9,240.8c0,0,13.2-19.2-41-76.7c-19.2-21.5-38.3-69-22-137.1c22.4-98.3-9.6-122.5-9.6-122.5
				L141.4,324.5z M23.1,206.4c-2.9-9.3-4.3-19-4-28.8c3.8-42.6,42.8-59.8,52.3-66.1c8.9-5.8,15.8-14.1,19.7-24
				c10.4,26,0.6,55.7-23.2,70.4C48.6,169.3,33,186.2,23.1,206.4z M121,165.1c2.1,4.4,19.2,27.8-47.5,81.9s-45.2,92.8-45.2,92.8
				s-70.2-38.3,10.7-106s64.2-80.5,64.2-80.5c7.8,0.2,14.7,4.9,17.8,12.1V165.1z M206.5,186c11.3,1.5,19.2,36.8,45.1,44.5
				c19.2,5.6,39.9,2.5,44.5,14.2c-4.3,3.5-4.9,9.8-1.4,14c2.1,2.5,5.2,3.9,8.5,3.6c7.5-21.5,11.1-100.5-96.4-76.3H206.5z
				 M242.2,202.5c0-2.5,2.3,0,5.2-2.3c3-3.9,6.9-7.1,11.3-9.2c3.9-1.3,8-1.3,11.9,0c2.3,0,0,6.3,0,7.7c0,1.3-14.2-1.7-14.2,6.1
				c0,12.8,17.4,0,26.5,0c4.4,31.4-47.5,22.8-39.9-3.1L242.2,202.5z"/>
			
				<rect id="Rectangle" x="529" y="-24.2" transform="matrix(0.94 -0.3412 0.3412 0.94 -108.7216 207.2927)" class="st1" width="12" height="873.8"/>
		</g>
	</g>
	<g>
		<path class="st0" d="M823.3,205.2h-56.8l-10.4,30h-15.6l44.2-128.7h20.2l44.3,128.7h-15.6L823.3,205.2z M771.2,191.2h47.3
			l-23.6-68.5L771.2,191.2z"/>
		<path class="st0" d="M907.3,214c13.6,0,23.9,2.8,30.9,8.3c7,5.5,10.5,12.4,10.5,20.6c0,10.6-5.5,19.8-16.4,27.5
			c-10.9,7.7-22.5,11.5-34.8,11.5c-12.2,0-21.8-3.1-28.8-9.2c-6.9-6.1-10.4-13.8-10.4-23.1c0-4.1,1.1-8.4,3.2-12.8
			c2.1-4.4,5.2-8.5,9.2-12.2c-2.6-1.6-4.6-4-6.1-7.4c-1.4-3.4-2.2-6.6-2.2-9.6c0-6,2.4-12.1,7.3-18.4c-2.7-2.7-4.8-6.3-6.2-10.7
			c-1.4-4.4-2.1-8.7-2.1-12.9c0-9.8,3.5-17.8,10.5-24.2c7-6.4,16-9.6,27-9.6c7.4,0,14,1.6,19.6,4.9c4.3-3.3,8.8-5.8,13.6-7.7
			c4.7-1.9,9-2.8,12.7-2.8l4.5,14.1c-6.7,1-13,3.2-18.9,6.6c4.1,5.4,6.2,11.5,6.2,18.3c0,9.8-3.7,18.2-11,25.2
			c-7.3,7-16.6,10.5-27.7,10.5c-6.5,0-12.8-1.5-18.8-4.6c-2.3,3-3.4,5.9-3.4,8.5s1.1,4.9,3.3,6.5c2.2,1.7,5.3,2.5,9.2,2.5H907.3z
			 M873.4,248.3c0,13,8.2,19.5,24.6,19.5c9.8,0,18.2-2.5,25.1-7.4c6.9-4.9,10.4-10.5,10.4-16.8c0-6.3-3.9-10.7-11.6-13.1
			c-5.5-1.6-14.8-2.4-27.9-2.4h-11.6C876.4,234.6,873.4,241.3,873.4,248.3z M898.4,146c-7,0-12.6,2.1-16.8,6.3
			c-4.2,4.2-6.2,8.9-6.2,14.2c0,5.3,2.1,10.1,6.2,14.3c4.2,4.2,9.8,6.3,17,6.3c7.2,0,12.7-2,16.7-6.1c4-4,6.1-8.7,6.1-14.1
			s-2.1-10.3-6.2-14.5C911,148.1,905.4,146,898.4,146z"/>
		<path class="st0" d="M1031.7,188.3h-63.2c0.7,10.7,4.1,19.1,10.1,25.4c6,6.2,13.6,9.4,22.8,9.4s18.5-2.4,28-7.2l0.3,0.1v14
			c-9.8,4.8-19.5,7.2-29.1,7.2c-14.7,0-26.2-4.8-34.6-14.5c-8.3-9.7-12.5-22.4-12.5-38.4c0-15.8,3.6-28.5,10.7-38.1
			c7.1-9.5,18-14.3,32.5-14.3s24.6,5.9,30.2,17.6c3.2,6.7,4.8,15.1,4.9,25.2V188.3z M996.4,146c-7.6,0-13.8,2.6-18.5,7.9
			s-7.7,12.1-9.1,20.4h47.7c-0.2-13.9-3.6-22.6-10.4-26.2C1003.5,146.7,1000.3,146,996.4,146z"/>
		<path class="st0" d="M1096.2,146c-6.9,0-15.8,3.3-26.8,9.8v79.5h-15.1V133.8h10.2l2.8,9.5c11.7-7.6,22.4-11.4,31.9-11.4
			s17.7,3.1,24.3,9.2c6.6,6.1,10,15.9,10,29.3v64.8h-15.1v-63.9C1118.4,154.4,1111,146,1096.2,146z"/>
		<path class="st0" d="M1203.3,237.2c-13.3,0-24.2-4.2-32.6-12.5c-9.8-9.5-14.6-23.1-14.6-40.7c0-17.6,4.5-30.7,13.4-39.3
			c8.9-8.5,20.2-12.8,33.9-12.8c9.6,0,19.3,2.4,29,7.2v13.3l-0.7,0.5c-9.1-4.6-18.4-6.9-27.7-6.9s-17.2,3-23.3,9
			c-6.2,6-9.4,15.5-9.4,28.5c-0.1,12.9,3.1,22.7,9.5,29.5c6.4,6.8,14.2,10.2,23.4,10.2c9.2,0,18.4-2.3,27.5-6.9l0.7,0.5v13.3
			C1222.6,234.8,1212.9,237.2,1203.3,237.2z"/>
		<path class="st0" d="M1256.6,281.9c-7.5,0-15.8-2.1-25-6.2l4.1-13.9c7,4,12.8,6.1,17.6,6.1c9.3,0,15.3-3.6,18.1-10.9l7.5-21.8
			h-4.7l-34.9-101.3h15.6l29.4,85.2l29.4-85.2h15.6l-43.5,126C1280.7,274.5,1271,281.9,1256.6,281.9z"/>
		<path class="st0" d="M1444.4,104.5c-12.6,0-19,9.4-19,28.1v1.3h24.9v11h-24.9v90.3h-11.1v-90.3h-18.5v-11h18.5v-1.3
			c0-14.1,2.6-24.1,7.8-30c5.2-5.9,12.5-8.8,21.9-8.8c7,0,14.8,1.4,23.3,4.1l-4.1,10.3C1456.6,105.7,1450.4,104.5,1444.4,104.5z"/>
		<path class="st0" d="M1479.7,222c-8.3-10.1-12.5-22.6-12.5-37.5c0-14.9,4.3-27.4,12.9-37.5c8.6-10.1,19.6-15.1,33-15.1
			c13.5,0,24.5,5,32.8,15c8.3,10,12.5,22.5,12.5,37.5c0,14.8-4.3,27.3-12.9,37.5s-19.6,15.2-33.1,15.2S1488.1,232.1,1479.7,222z
			 M1478.4,184c0,12,3.1,22.1,9.3,30.3c6.2,8.2,14.6,12.3,25.4,12.2c10.7,0,19.1-3.9,25.2-11.6c6.1-7.7,9.1-17.6,9.1-29.9
			c0-12.2-3-22.4-9.1-30.5c-6.1-8.1-14.5-12.1-25.3-12c-10.8,0-19.3,3.9-25.4,11.7C1481.4,162.1,1478.4,172.1,1478.4,184z"/>
		<path class="st0" d="M1586.8,133.8h8.1l3.1,10.4c7.6-8.3,16-12.4,25.3-12.4c4.5,0,9.1,1,13.9,3l-3.7,10.1
			c-4.7-1.6-8.4-2.4-11.1-2.4c-9.1,0-17.3,4.7-24.4,14.2v78.5h-11.1V133.8z"/>
		<path class="st0" d="M756.6,314.5h11.1v117.7h60.5v11h-71.7V314.5z"/>
		<path class="st0" d="M856.3,430c-8.3-10.1-12.5-22.6-12.5-37.5c0-14.9,4.3-27.4,12.9-37.5c8.6-10.1,19.6-15.1,33-15.1
			c13.5,0,24.5,5,32.8,15c8.3,10,12.5,22.5,12.5,37.5c0,14.8-4.3,27.3-12.9,37.5s-19.6,15.2-33.1,15.2S864.6,440.1,856.3,430z
			 M854.9,392c0,12,3.1,22.1,9.3,30.3c6.2,8.2,14.6,12.3,25.4,12.2c10.7,0,19.1-3.9,25.2-11.6c6.1-7.7,9.1-17.6,9.1-29.9
			c0-12.2-3-22.4-9.1-30.5c-6.1-8.1-14.5-12.1-25.3-12c-10.8,0-19.3,3.9-25.4,11.7C858,370.1,854.9,380.1,854.9,392z"/>
		<path class="st0" d="M1000.5,445.2c-13.3,0-24.3-4.4-33-13.3c-8.7-8.8-13-22.1-13-39.9s4.2-30.9,12.6-39.5
			c8.7-8.4,19.8-12.7,33.3-12.7c8.1,0,16,1.6,23.7,4.7v8.7l-1,1.1c-6.8-2.6-13.7-3.9-20.8-3.9c-11.1,0-20,3.3-26.7,9.8
			c-6.7,6.5-10.1,16.9-10.1,31.1c-0.1,14.2,3.4,24.9,10.3,32.1c6.9,7.3,15.7,11,26.5,11c7,0,13.9-1.3,20.9-3.9l0.9,0.8v9
			C1016.5,443.6,1008.6,445.2,1000.5,445.2z"/>
		<path class="st0" d="M1102,371.6c0-14.1-8-21.1-24-21.1c-7.7,0-16.1,2.3-25.2,6.8l-2.8-10.3c10.3-4.8,20.5-7.2,30.4-7.2
			c9.9,0,17.9,2.6,23.9,7.8c6,5.2,9,13.7,8.9,25.5v36c0,6.3,1.3,11.8,3.9,16.6c2.6,4.8,6.5,7.7,11.7,8.9l-6.3,10.4
			c-7.3-2.3-12.7-7.6-16.2-15.8c-2.4,4.6-6.4,8.3-11.8,11.3c-5.5,3-12.1,4.5-19.9,4.5s-14.5-2.1-20.1-6.2
			c-7.5-5.4-11.2-13.4-11.2-23.9s3-18.3,9.1-23.2c6.1-4.9,15.8-7.4,29.3-7.4c4.6,0,11.4,0.4,20.4,1.2V371.6z M1083.3,395.2
			c-19.3,0-29,6.1-29,18.3c0,6.1,2,11.1,6.1,15.1c4,4,9.4,6,16.1,6c11.1,0,19.6-5.6,25.4-16.8V396
			C1096.5,395.5,1090.3,395.2,1083.3,395.2z"/>
		<path class="st0" d="M1164.6,303.8v139.5h-11.1V305.7l10-2H1164.6z"/>
		<path class="st0" d="M1288.3,445.2c-12,0-21.7-3.4-29.3-10.1c-7.6-6.7-11.4-15.9-11.4-27.4c0-7.5,1.8-14,5.4-19.6
			c3.6-5.6,9.3-10.8,17.2-15.5c-7.8-8-11.7-17.1-11.7-27.4c0-10.3,2.6-18.3,7.8-24.1c5.2-5.7,12.2-8.5,21.1-8.5
			c8.9,0,16.3,2.2,22.2,6.7c5.9,4.5,8.8,11.2,8.8,20.2s-3.1,16.6-9.4,22.7c-4.1,4-10.6,8.2-19.6,12.7l35.9,36.2
			c6.2-11.7,10.4-24.3,12.6-37.8h0.8l10.3,4c-1.2,7.3-3.3,14.8-6.1,22.4c-2.8,7.7-6,14.2-9.4,19.7l17.7,17.6l-7.9,8l-17-16.5
			C1316.1,439.7,1303.4,445.2,1288.3,445.2z M1258.7,409.2c0,7.2,2.6,13.2,7.9,18.1c5.3,4.9,12.5,7.3,21.7,7.3
			c12.3,0,22.3-4.6,30.2-13.7l-41-41.4c-5.8,3.6-10.4,7.7-13.8,12.1C1260.4,396.1,1258.7,402,1258.7,409.2z M1307.2,339.8
			c0-5.7-2.1-9.9-6.2-12.6c-4.1-2.7-8.8-4-13.9-4c-5.1,0-9.3,1.7-12.6,5.2c-3.2,3.5-4.8,8-4.8,13.5c-0.1,5.5,1.1,10.2,3.5,14.1
			c2.4,4,5.3,7.7,8.8,11.1C1298.7,359.9,1307.2,350.8,1307.2,339.8z"/>
		<path class="st0" d="M1434.7,443.2V314.5h22.3c21.2,0,37,3.3,47.5,10s15.8,17.6,15.8,33c0,15.4-6.4,26.9-19.1,34.6
			c-10.8,6.5-25.9,9.8-45.1,9.8h-10.3v41.4H1434.7z M1509.2,358.7c0-22.4-17.3-33.6-51.8-33.6h-11.6v66h11.6
			c16.7,0,29.5-2.5,38.4-7.4C1504.7,378.8,1509.2,370.5,1509.2,358.7z"/>
		<path class="st0" d="M1546.9,341.8h8.1l3.1,10.4c7.6-8.3,16-12.4,25.3-12.4c4.5,0,9.1,1,13.9,3l-3.7,10.1
			c-4.7-1.6-8.4-2.4-11.1-2.4c-9.1,0-17.3,4.7-24.4,14.2v78.5h-11.1V341.8z"/>
		<path class="st0" d="M1616.7,430c-8.3-10.1-12.5-22.6-12.5-37.5c0-14.9,4.3-27.4,12.9-37.5c8.6-10.1,19.6-15.1,33-15.1
			c13.5,0,24.5,5,32.8,15c8.3,10,12.5,22.5,12.5,37.5c0,14.8-4.3,27.3-12.9,37.5s-19.6,15.2-33.1,15.2S1625,440.1,1616.7,430z
			 M1615.3,392c0,12,3.1,22.1,9.3,30.3c6.2,8.2,14.6,12.3,25.4,12.2c10.7,0,19.1-3.9,25.2-11.6c6.1-7.7,9.1-17.6,9.1-29.9
			c0-12.2-3-22.4-9.1-30.5c-6.1-8.1-14.5-12.1-25.3-12c-10.8,0-19.3,3.9-25.4,11.7C1618.3,370.1,1615.3,380.1,1615.3,392z"/>
		<path class="st0" d="M1714.3,341.8l28.7,83.6l28.7-83.6h12.3l-34.9,101.4h-12.3l-34.7-101.4H1714.3z"/>
		<path class="st0" d="M1811.1,325c-2.2,0-4.2-0.8-5.9-2.4c-1.7-1.6-2.5-3.5-2.5-5.7c0-2.2,0.8-4.2,2.5-5.9c1.8-1.6,3.7-2.4,5.9-2.4
			s4.1,0.8,5.9,2.4c1.7,1.7,2.5,3.6,2.5,5.9c0,2.2-0.8,4.1-2.5,5.7C1815.3,324.1,1813.3,325,1811.1,325z M1816.7,443.2h-11.1V341.8
			h11.1V443.2z"/>
		<path class="st0" d="M1894.3,350.5c-9.5,0-19.3,3.9-29.4,11.7v80.9h-11.1V341.8h8.1l2.7,9.3c11.7-7.5,22.2-11.2,31.3-11.2
			s16.9,2.8,23.4,8.3c6.5,5.5,9.7,13.6,9.6,24.2v70.8h-11.1v-66.8c0-8.5-2.2-15-6.7-19.4C1906.7,352.7,1901.1,350.5,1894.3,350.5z"
			/>
		<path class="st0" d="M2001.4,445.2c-13.3,0-24.3-4.4-33-13.3c-8.7-8.8-13-22.1-13-39.9s4.2-30.9,12.6-39.5
			c8.7-8.4,19.8-12.7,33.3-12.7c8.1,0,16,1.6,23.7,4.7v8.7l-1,1.1c-6.8-2.6-13.7-3.9-20.8-3.9c-11.1,0-20,3.3-26.7,9.8
			c-6.7,6.5-10.1,16.9-10.1,31.1c-0.1,14.2,3.4,24.9,10.3,32.1c6.9,7.3,15.7,11,26.5,11c7,0,13.9-1.3,20.9-3.9l0.9,0.8v9
			C2017.4,443.6,2009.5,445.2,2001.4,445.2z"/>
		<path class="st0" d="M2058.5,325c-2.2,0-4.2-0.8-5.9-2.4c-1.7-1.6-2.5-3.5-2.5-5.7c0-2.2,0.8-4.2,2.5-5.9c1.8-1.6,3.7-2.4,5.9-2.4
			s4.1,0.8,5.9,2.4c1.7,1.7,2.5,3.6,2.5,5.9c0,2.2-0.8,4.1-2.5,5.7C2062.6,324.1,2060.7,325,2058.5,325z M2064,443.2h-11.1V341.8
			h11.1V443.2z"/>
		<path class="st0" d="M2151.1,371.6c0-14.1-8-21.1-24-21.1c-7.7,0-16.1,2.3-25.2,6.8l-2.8-10.3c10.3-4.8,20.5-7.2,30.4-7.2
			c9.9,0,17.9,2.6,23.9,7.8c6,5.2,9,13.7,8.9,25.5v36c0,6.3,1.3,11.8,3.9,16.6c2.6,4.8,6.5,7.7,11.7,8.9l-6.3,10.4
			c-7.3-2.3-12.7-7.6-16.2-15.8c-2.4,4.6-6.4,8.3-11.8,11.3c-5.5,3-12.1,4.5-19.9,4.5s-14.5-2.1-20.1-6.2
			c-7.5-5.4-11.2-13.4-11.2-23.9s3-18.3,9.1-23.2c6.1-4.9,15.8-7.4,29.3-7.4c4.6,0,11.4,0.4,20.4,1.2V371.6z M2132.4,395.2
			c-19.3,0-29,6.1-29,18.3c0,6.1,2,11.1,6.1,15.1c4,4,9.4,6,16.1,6c11.1,0,19.6-5.6,25.4-16.8V396
			C2145.6,395.5,2139.4,395.2,2132.4,395.2z"/>
		<path class="st0" d="M2213.7,303.8v139.5h-11.1V305.7l10-2H2213.7z"/>
		<path class="st0" d="M807.6,642.5c8.8,0,17.8-3,27.1-9v-41.9h-26v-11h37.1v70.6h-4.9l-3.5-8.5c-6.1,3.8-10.2,6.2-12.3,7
			c-5.3,2.3-11.5,3.4-18.4,3.4c-17.9,0-32.2-6.4-42.9-19.2c-10.7-12.8-16-28.9-16-48.1c0-19.3,5.3-35,16-47.1
			c10.7-12.1,26.5-18.2,47.5-18.2c9.1,0,17.5,1.2,25.4,3.5v10.1l-0.8,0.4c-8-2.2-15.6-3.3-22.8-3.3c-17.9,0.1-31.4,5.1-40.5,15.1
			c-9.1,10-13.7,23.2-13.7,39.5c0,16.3,4.6,29.8,13.7,40.6C781.8,637.2,793.4,642.5,807.6,642.5z"/>
		<path class="st0" d="M884.7,638c-8.3-10.1-12.5-22.6-12.5-37.5c0-14.9,4.3-27.4,12.9-37.5c8.6-10.1,19.6-15.1,33-15.1
			c13.5,0,24.5,5,32.8,15c8.3,10,12.5,22.5,12.5,37.5c0,14.8-4.3,27.3-12.9,37.5s-19.6,15.2-33.1,15.2S893.1,648.1,884.7,638z
			 M883.4,600c0,12,3.1,22.1,9.3,30.3c6.2,8.2,14.6,12.3,25.4,12.2c10.7,0,19.1-3.9,25.2-11.6c6.1-7.7,9.1-17.6,9.1-29.9
			c0-12.2-3-22.4-9.1-30.5c-6.1-8.1-14.5-12.1-25.3-12c-10.8,0-19.3,3.9-25.4,11.7C886.4,578.1,883.4,588.1,883.4,600z"/>
		<path class="st0" d="M982.4,549.8l28.7,83.6l28.7-83.6h12.3l-34.9,101.4h-12.3l-34.7-101.4H982.4z"/>
		<path class="st0" d="M1104.4,642.5c9,0,18.5-2.4,28.4-7.3l0.4,0.3v10.4c-9.5,4.8-19.1,7.2-28.5,7.2c-13.4,0-24.4-4.6-32.9-13.7
			c-8.6-9.1-12.8-22-12.8-38.7c0-16.7,3.3-29.7,10-39.1c6.7-9.2,17.2-13.8,31.6-13.8c16.8,0,27.1,7.9,30.9,23.8
			c1.2,5.2,1.9,11.9,2,20.1v11h-63.4c0.5,12.8,4,22.6,10.8,29.4C1087.6,639,1095.4,642.5,1104.4,642.5z M1122.3,591.8
			c0-10.2-1.3-17.9-4-23.2c-3.5-6.7-9.7-10.1-18.4-10.1s-15.5,3-20.4,8.9c-4.9,5.9-7.9,14.1-9.1,24.4H1122.3z"/>
		<path class="st0" d="M1161.5,549.8h8.1l3.1,10.4c7.6-8.3,16-12.4,25.3-12.4c4.5,0,9.1,1,13.9,3l-3.7,10.1
			c-4.7-1.6-8.4-2.4-11.1-2.4c-9.1,0-17.3,4.7-24.4,14.2v78.5h-11.1V549.8z"/>
		<path class="st0" d="M1277.8,558.5c-9.5,0-19.3,3.9-29.4,11.7v80.9h-11.1V549.8h8.1l2.7,9.3c11.7-7.5,22.2-11.2,31.3-11.2
			s16.9,2.8,23.4,8.3c6.5,5.5,9.7,13.6,9.6,24.2v70.8h-11.1v-66.8c0-8.5-2.2-15-6.7-19.4C1290.2,560.7,1284.6,558.5,1277.8,558.5z"
			/>
		<path class="st0" d="M1405.7,584.4c0-8.7-1.9-15.2-5.8-19.5c-3.9-4.3-9.1-6.5-15.8-6.5s-15.1,3.9-25.3,11.7v80.9h-11.1V549.8h8.2
			l2.6,9.3c6-3.7,11.2-6.6,15.6-8.4c4.4-1.9,8.8-2.8,13.3-2.8c9.8,0,17.6,3.7,23.2,11.1c11.5-7.4,21.8-11.1,31-11.1s17,2.8,23.5,8.3
			c6.5,5.5,9.7,13.6,9.7,24.2v70.8h-11.1v-66.8c0.1-8.5-2.2-15-6.7-19.4c-4.6-4.4-10.5-6.6-17.8-6.6c-7.3,0-15.4,2.9-24.3,8.8
			c1.4,3.7,2.1,8,2.1,13v70.9h-11.1V584.4z"/>
		<path class="st0" d="M1547.7,642.5c9,0,18.5-2.4,28.4-7.3l0.4,0.3v10.4c-9.5,4.8-19.1,7.2-28.5,7.2c-13.4,0-24.4-4.6-32.9-13.7
			c-8.6-9.1-12.8-22-12.8-38.7c0-16.7,3.3-29.7,10-39.1c6.7-9.2,17.2-13.8,31.6-13.8c16.8,0,27.1,7.9,30.9,23.8
			c1.2,5.2,1.9,11.9,2,20.1v11h-63.4c0.5,12.8,4,22.6,10.8,29.4C1530.8,639,1538.7,642.5,1547.7,642.5z M1565.6,591.8
			c0-10.2-1.3-17.9-4-23.2c-3.5-6.7-9.7-10.1-18.4-10.1s-15.5,3-20.4,8.9c-4.9,5.9-7.9,14.1-9.1,24.4H1565.6z"/>
		<path class="st0" d="M1645.3,558.5c-9.5,0-19.3,3.9-29.4,11.7v80.9h-11.1V549.8h8.1l2.7,9.3c11.7-7.5,22.2-11.2,31.3-11.2
			s16.9,2.8,23.4,8.3c6.5,5.5,9.7,13.6,9.6,24.2v70.8h-11.1v-66.8c0-8.5-2.2-15-6.7-19.4C1657.7,560.7,1652.1,558.5,1645.3,558.5z"
			/>
		<path class="st0" d="M1723.7,613c0,19.4,6.4,29.2,19.3,29.2c3.8,0,9-1.1,15.3-3.4l3.2,10.7c-6.5,2.5-13.3,3.7-20.3,3.7
			s-13-2-18-5.9c-7.2-5.6-10.7-15-10.7-28.2v-58.2h-11.1v-11h11.1v-18.4l10-1.9h1.2v20.2h25v11h-25V613z"/>
	</g>
</g>
</svg>
