<?xml version="1.0" encoding="utf-8"?>
<!-- Generator: Adobe Illustrator 23.0.4, SVG Export Plug-In . SVG Version: 6.00 Build 0)  -->
<svg version="1.1" id="Layer_1" xmlns="http://www.w3.org/2000/svg" xmlns:xlink="http://www.w3.org/1999/xlink" x="0px" y="0px"
	 viewBox="0 0 2213.7 825.5" style="enable-background:new 0 0 2213.7 825.5;" xml:space="preserve">
<style type="text/css">
	.st0{fill:#333333;}
	.st1{fill-rule:evenodd;clip-rule:evenodd;fill:#333333;}
</style>
<title>Artboard</title>
<desc>Created with Sketch.</desc>
<g>
	<g id="Artboard">
		<g id="logo-kanselarij-bestuur">
			<path id="Shape" class="st0" d="M375.8,394.2c-20.7-15.7-30.5,0-43.5,0s-21.5-19.2-29.9-14.4c-16.3,8.2,6.5,38.3,16.5,43.5
				c7.3,4.2,14.9,7.9,22.6,11.3c11.6,5.4,19.1,16.9,19.2,29.7c0.6,4.8,0.6,9.6,0,14.4c-5.9,25.3-50.6,48.3-76.7,30.9
				c-14-8.4-23.7-22.3-26.8-38.3c-6.9-33.2-31.1-57.5-38.3-90.1c-4.8-19.2-8.2-40.6-13.4-60.4s-10.5-41.6-15-60.8
				c-4.8-20-10.9-39.7-18-59c-24.7-63.5-35.7-58.9-35.7-58.9s8.8,17.6,41.2,172.5c5.4,33.3,12.6,66.2,21.7,98.7
				c3.1,8.1,8.4,25.3,11.9,33c10.4,22.2,38.3,56,39.3,86.5c1,17.6,3.1,32.2,3.5,45.4c0.7,9.1,2.2,18.1,4.6,26.8
				c6.7,19.2,60.2,78.4,116.9,78.4v-46.2c-39.6-0.9-78.1-13-111-34.9c0.7-11.1,3-22.1,6.7-32.6c6.4-20.5,24.5-35.2,45.8-37.2
				c19.3,0.4,38.5,2.3,57.5,5.9V394.2H375.8z M130.6,228.6c-2.1,33.9-55,80.5-71.5,110.2c-9.4,17.1-16.4,35.4-20.9,54.4
				c-5.7,30.3-1.5,61.7,11.9,89.5c17.4,41.8-2.3,57.5,11.3,48.7c16.9-13.8,14.4-45.8,13-65.8c-1.7-18-1.7-36.1,0-54.1
				c7.6-37.1,23.4-72,46.2-102.2C136.3,285.5,140,255.7,130.6,228.6z M141.4,324.5c0,0,5.6,26.8-19.2,95.9
				c-62.5,181.2,57.5,198.2,90.9,240.8c0,0,13.2-19.2-41-76.7c-19.2-21.5-38.3-69-22-137.1c22.4-98.3-9.6-122.5-9.6-122.5
				L141.4,324.5z M23.1,206.4c-2.9-9.3-4.3-19-4-28.8c3.8-42.6,42.8-59.8,52.3-66.1c8.9-5.8,15.8-14.1,19.7-24
				c10.4,26,0.6,55.7-23.2,70.4C48.6,169.3,33,186.2,23.1,206.4z M121,165.1c2.1,4.4,19.2,27.8-47.5,81.9s-45.2,92.8-45.2,92.8
				s-70.2-38.3,10.7-106s64.2-80.5,64.2-80.5c7.8,0.2,14.7,4.9,17.8,12.1V165.1z M206.5,186c11.3,1.5,19.2,36.8,45.1,44.5
				c19.2,5.6,39.9,2.5,44.5,14.2c-4.3,3.5-4.9,9.8-1.4,14c2.1,2.5,5.2,3.9,8.5,3.6c7.5-21.5,11.1-100.5-96.4-76.3L206.5,186
				L206.5,186z M242.2,202.5c0-2.5,2.3,0,5.2-2.3c3-3.9,6.9-7.1,11.3-9.2c3.9-1.3,8-1.3,11.9,0c2.3,0,0,6.3,0,7.7
				c0,1.3-14.2-1.7-14.2,6.1c0,12.8,17.4,0,26.5,0c4.4,31.4-47.5,22.8-39.9-3.1L242.2,202.5z"/>
			
				<rect id="Rectangle" x="528.9" y="-24.1" transform="matrix(0.94 -0.3412 0.3412 0.94 -108.7385 207.2595)" class="st1" width="12" height="873.8"/>
		</g>
	</g>
	<g>
		<path class="st0" d="M774.6,253.4v109.4h-12.9v-91.6l-30.8,60h-3l-31.5-60.8v92.3h-12.9V253.4h17.8l27.9,55.1h0.3l27.9-55.1H774.6
			z"/>
		<path class="st0" d="M872.8,319.6c0,12.6-3.7,23.2-11.2,31.9s-17,12.9-28.6,12.9s-21-4.3-28.3-12.9s-11-19.1-11-31.7
			s3.7-23.2,11.2-31.9c7.5-8.7,17-13,28.6-13s21.1,4.3,28.3,12.9C869.2,296.6,872.8,307.1,872.8,319.6z M806.6,319.5
			c0,9.5,2.4,17.4,7.1,23.7c4.8,6.3,11.4,9.4,19.8,9.4c8.4,0,14.9-3,19.4-9s6.8-13.7,6.9-23.2c0-9.6-2.3-17.6-6.9-23.9
			c-4.5-6.3-11.1-9.5-19.6-9.5s-15.1,3-19.8,9.1C809,302.1,806.7,309.9,806.6,319.5z"/>
		<path class="st0" d="M905.6,242.6v39.9c6.6-5,13.8-7.6,21.7-7.6s14.7,2,20.4,6c5.8,4,10.1,9.4,12.9,16c2.9,6.6,4.3,14,4.3,22.1
			c0,13.6-3.8,24.5-11.5,32.8s-18.3,12.5-32,12.5c-9.4,0-19-2.1-28.8-6.2v-114l12-1.7h1L905.6,242.6L905.6,242.6z M922.4,352.5
			c9.1,0,16.4-3.2,21.7-9.5s8-14.4,8-24.3c0-9.8-2.2-17.6-6.6-23.2c-4.3-5.7-11-8.6-19.9-8.6s-15.6,3.1-20,9.4v53.6
			C910.1,351.6,915.7,352.5,922.4,352.5z"/>
		<path class="st0" d="M984.8,253.1c0-2.4,0.9-4.5,2.6-6.2c1.7-1.7,3.8-2.6,6.3-2.6s4.6,0.9,6.4,2.6c1.7,1.7,2.6,3.8,2.5,6.2
			c0,2.4-0.9,4.5-2.7,6.3s-3.8,2.6-6.2,2.6s-4.5-0.9-6.3-2.7C985.7,257.6,984.8,255.5,984.8,253.1z M987.3,276.6h12.9v86.2h-12.9
			V276.6z"/>
		<path class="st0" d="M1042.1,242.6v120.2h-12.9V244.3l12-1.7H1042.1z"/>
		<path class="st0" d="M1068.6,253.1c0-2.4,0.9-4.5,2.6-6.2s3.8-2.6,6.3-2.6s4.6,0.9,6.4,2.6c1.7,1.7,2.6,3.8,2.5,6.2
			c0,2.4-0.9,4.5-2.7,6.3c-1.8,1.8-3.8,2.6-6.2,2.6c-2.4,0-4.5-0.9-6.3-2.7C1069.5,257.6,1068.6,255.5,1068.6,253.1z M1071.1,276.6
			h12.9v86.2h-12.9V276.6z"/>
		<path class="st0" d="M1103.1,276.6h9.5v-15.4l12-2.2h0.8v17.7h23.9v12h-23.9V331c0,7.3,1.4,12.7,4.2,16.2
			c2.8,3.5,6.6,5.3,11.5,5.4c4.8,0,10.1-1.7,16.1-5.1l3.5,11.8c-7.7,3.5-15.2,5.3-22.4,5.3c-7.2,0-13.3-2.7-18.3-8.1
			c-4.9-5.4-7.4-13.9-7.4-25.4v-42.3h-9.5L1103.1,276.6L1103.1,276.6z"/>
		<path class="st0" d="M1177.8,402.5c-6.4,0-13.4-1.8-21.2-5.3l3.5-11.8c5.9,3.4,10.9,5.1,14.9,5.1c7.9,0,13-3.1,15.4-9.3l6.4-18.5
			h-4l-29.6-86.1h13.3l25,72.4l25-72.4h13.3l-36.9,107.1C1198.3,396.2,1190,402.5,1177.8,402.5z"/>
		<path class="st0" d="M1333.7,364.5c-10.3,0-18.8-2.9-25.3-8.6c-6.5-5.8-9.8-13.5-9.8-23.3c0-6.4,1.6-11.9,4.7-16.7
			c3.1-4.8,8.1-9.2,14.9-13.2c-6.6-6.8-9.9-14.6-9.9-23.3c0-8.7,2.4-15.5,7.3-20.3c4.9-4.9,11.2-7.3,19.1-7.3s14.2,2,19.1,6.1
			c4.9,4.1,7.4,9.9,7.4,17.5c0,7.5-2.5,13.7-7.6,18.6c-3.3,3.2-8.6,6.5-15.8,10l26.9,26.8c3.7-7.4,6.5-16.9,8.6-28.6h0.7l12.1,4.5
			c-2.4,13.4-6.3,24.5-11.7,33.3l16.1,15.4l-9.1,9l-15-14.1C1357.7,359.7,1346.8,364.5,1333.7,364.5z M1311.4,332.7
			c0,6,1.9,10.8,5.8,14.4s9.3,5.4,16.2,5.4c9.6,0,17.6-3.7,24.1-11L1326,310C1316.3,316.1,1311.4,323.7,1311.4,332.7z M1348.3,275.8
			c0-8.1-4.3-12.1-12.8-12.1c-4.8,0-8.4,1.2-10.8,3.7c-2.4,2.4-3.6,5.8-3.6,10c0,6.9,3,13.2,9,18.9c0.2,0,0.4-0.1,0.7-0.3
			c4.9-1.9,9.1-4.4,12.5-7.5S1348.3,281.2,1348.3,275.8z"/>
		<path class="st0" d="M683.1,542.8V433.4h21.5c18.1,0,31.6,2.8,40.6,8.4s13.4,14.6,13.4,27c0,9.5-2.5,17.1-7.5,22.9
			c-9.1,10.5-24.9,15.7-47.3,15.7H696v35.4H683.1z M696,445.3v50.1h10.3c12.8,0,22.6-1.9,29.4-5.6c6.8-3.7,10.1-10.1,10.1-19.2
			c0-16.9-13.2-25.3-39.5-25.3H696z"/>
		<path class="st0" d="M807.8,532.5c6,0,13.6-2.7,22.7-8.2v-67.7h12.9v86.2h-8.1l-2.6-8.3c-10.1,6.6-19.3,9.9-27.4,9.9
			c-8.2,0-15.1-2.6-20.8-7.8c-5.6-5.2-8.5-13.5-8.5-24.9v-55.1h12.9v54.3C788.9,525.3,795.2,532.5,807.8,532.5z"/>
		<path class="st0" d="M882.8,422.6v39.9c6.6-5,13.8-7.6,21.7-7.6s14.7,2,20.4,6c5.8,4,10.1,9.4,12.9,16c2.9,6.6,4.3,14,4.3,22.1
			c0,13.6-3.8,24.5-11.5,32.8s-18.3,12.5-32,12.5c-9.4,0-19-2.1-28.8-6.2v-114l12-1.7h1L882.8,422.6L882.8,422.6z M899.7,532.5
			c9.1,0,16.4-3.2,21.7-9.5s8-14.4,8-24.3c0-9.8-2.2-17.6-6.6-23.2c-4.3-5.7-11-8.6-19.9-8.6s-15.6,3.1-20,9.4v53.6
			C887.3,531.6,892.9,532.5,899.7,532.5z"/>
		<path class="st0" d="M975,422.6v120.2h-12.9V424.3l12-1.7L975,422.6L975,422.6z"/>
		<path class="st0" d="M1001.4,433.1c0-2.4,0.9-4.5,2.6-6.2c1.7-1.7,3.8-2.6,6.3-2.6s4.6,0.9,6.4,2.6c1.7,1.7,2.6,3.8,2.5,6.2
			c0,2.4-0.9,4.5-2.7,6.3s-3.8,2.6-6.2,2.6s-4.5-0.9-6.3-2.7C1002.3,437.6,1001.4,435.5,1001.4,433.1z M1003.9,456.6h12.9v86.2
			h-12.9V456.6z"/>
		<path class="st0" d="M1079.4,544.5c-11.3,0-20.6-3.5-27.7-10.6c-8.3-8.1-12.4-19.6-12.4-34.6c0-15,3.8-26.1,11.4-33.4
			c7.6-7.2,17.2-10.9,28.8-10.9c8.2,0,16.4,2,24.7,6.1v11.3l-0.6,0.4c-7.7-3.9-15.6-5.9-23.6-5.9s-14.6,2.5-19.8,7.6
			c-5.3,5.1-8,13.2-8,24.2c-0.1,11,2.6,19.3,8.1,25.1c5.4,5.8,12.1,8.6,19.9,8.6c7.9,0,15.7-2,23.4-5.9l0.6,0.4v11.3
			C1095.8,542.4,1087.6,544.5,1079.4,544.5z"/>
		<path class="st0" d="M1229.5,456l-24.8,86.8h-13.1l-31.3-109.4h12.9l24.9,86.9l24.9-86.9h13l24.7,86.8l24.8-86.8h13l-31.3,109.4
			h-12.9L1229.5,456z"/>
		<path class="st0" d="M1378.1,499.6c0,12.6-3.7,23.2-11.2,31.9s-17,12.9-28.6,12.9s-21-4.3-28.3-12.9c-7.3-8.6-11-19.1-11-31.7
			c0-12.6,3.7-23.2,11.2-31.9c7.5-8.7,17-13,28.6-13s21.1,4.3,28.3,12.9C1374.4,476.6,1378.1,487.1,1378.1,499.6z M1311.9,499.5
			c0,9.5,2.4,17.4,7.1,23.7c4.8,6.3,11.4,9.4,19.8,9.4s14.9-3,19.4-9s6.8-13.7,6.9-23.2c0-9.6-2.3-17.6-6.9-23.9
			c-4.5-6.3-11.1-9.5-19.6-9.5s-15.1,3-19.8,9.1C1314.3,482.1,1312,489.9,1311.9,499.5z"/>
		<path class="st0" d="M1391.3,456.6h8.6l3,9.9c6.6-7.7,13.6-11.5,21.2-11.5c5.1,0,9.8,1,14.3,3l-4.5,11.6
			c-3.7-1.8-7.6-2.7-11.9-2.7c-6.9,0-12.8,3.8-17.8,11.5v64.3h-12.9L1391.3,456.6L1391.3,456.6z"/>
		<path class="st0" d="M1466.6,542.8h-12.9v-118l12-2.2h0.8v74.9l34.2-40.8h16.4l-35,41.7c0.4,2,2.9,5.6,7.4,10.9
			s9.5,10.2,14.9,14.9s10.2,7.7,14.4,9l-5.3,11.4c-4-0.2-8.7-2.4-13.9-6.5c-5.2-4.1-11-9.8-17.3-17c-6.4-7.3-11.1-13.6-14.1-18.8
			c-1-1.6-1.6-2.6-1.7-3.1L1466.6,542.8L1466.6,542.8z"/>
		<path class="st0" d="M1546.4,532.5c4.6-0.1,8.5-0.5,11.7-1.4s6-2.4,8.3-4.6c2.4-2.2,3.7-5.1,3.7-8.6s-2.2-6.6-6.5-9.2
			c-1.8-1.1-5.2-2.7-10.4-4.8c-5.2-2.1-9-3.8-11.5-5.2c-8.9-4.7-13.3-11.6-13.3-20.7c0-5.3,1.4-9.8,4.2-13.3
			c5.1-6.5,13.5-9.7,25.3-9.7c5.9,0,11.7,0.8,17.5,2.5v11.9l-0.5,0.2c-6.7-1.8-13-2.7-19-2.7c-9.7,0-14.6,3.3-14.6,10
			c0,4.1,2.2,7.6,6.7,10.4c1.9,1.3,5.7,3.1,11.6,5.5c5.8,2.3,10.4,4.3,13.8,6c3.3,1.7,5.8,4,7.3,6.9s2.4,6.6,2.4,11.3
			c0,8.6-3.5,15.4-10.6,20.2c-7,4.8-14.6,7.3-22.8,7.3s-15.4-1.3-21.5-3.9v-12l0.5-0.4C1535.9,531.1,1541.8,532.5,1546.4,532.5z"/>
	</g>
</g>
</svg>
