<?xml version="1.0" encoding="UTF-8"?>
<svg width="1901px" height="826px" viewBox="0 0 1901 826" version="1.1" xmlns="http://www.w3.org/2000/svg" xmlns:xlink="http://www.w3.org/1999/xlink">
    <!-- Generator: Sketch 52.6 (67491) - http://www.bohemiancoding.com/sketch -->
    <title>Artboard</title>
    <desc>Created with Sketch.</desc>
    <g id="Artboard" stroke="none" stroke-width="1" fill="none" fill-rule="evenodd">
        <g id="logo-kanselarij-bestuur" fill="#333333">
            <path d="M375.8,394.4 C355.1,378.7 345.3,394.4 332.3,394.4 C319.3,394.4 310.8,375.2 302.4,380 C286.1,388.2 308.9,418.3 318.9,423.5 C326.2,427.7 333.8,431.4 341.5,434.8 C353.1,440.2 360.6,451.7 360.7,464.5 C361.3,469.3 361.3,474.1 360.7,478.9 C354.8,504.2 310.1,527.2 284,509.8 C270,501.4 260.3,487.5 257.2,471.5 C250.3,438.3 226.1,414 218.9,381.4 C214.1,362.2 210.7,340.8 205.5,321 C200.3,301.2 195,279.4 190.5,260.2 C185.7,240.2 179.6,220.5 172.5,201.2 C147.8,137.7 136.8,142.3 136.8,142.3 C136.8,142.3 145.6,159.9 178,314.8 C183.4,348.1 190.6,381 199.7,413.5 C202.8,421.6 208.1,438.8 211.6,446.5 C222,468.7 249.9,502.5 250.9,533 C251.9,550.6 254,565.2 254.4,578.4 C255.1,587.5 256.6,596.5 259,605.2 C265.7,624.4 319.2,683.6 375.9,683.6 L375.9,637.4 C336.3,636.5 297.8,624.4 264.9,602.5 C265.6,591.4 267.9,580.4 271.6,569.9 C278,549.4 296.1,534.7 317.4,532.7 C336.7,533.1 355.9,535 374.9,538.6 L374.9,394.4 L375.8,394.4 Z M130.6,228.8 C128.5,262.7 75.6,309.3 59.1,339 C49.7,356.1 42.7,374.4 38.2,393.4 C32.5,423.7 36.7,455.1 50.1,482.9 C67.5,524.7 47.8,540.4 61.4,531.6 C78.3,517.8 75.8,485.8 74.4,465.8 C72.7,447.8 72.7,429.7 74.4,411.7 C82,374.6 97.8,339.7 120.6,309.5 C136.3,285.7 140,255.9 130.6,228.8 Z M141.4,324.7 C141.4,324.7 147,351.5 122.2,420.6 C59.7,601.8 179.7,618.8 213.1,661.4 C213.1,661.4 226.3,642.2 172.1,584.7 C152.9,563.2 133.8,515.7 150.1,447.6 C172.5,349.3 140.5,325.1 140.5,325.1 L141.4,324.7 Z M23.1,206.6 C20.2,197.3 18.8,187.6 19.1,177.8 C22.9,135.2 61.9,118 71.4,111.7 C80.3,105.9 87.2,97.6 91.1,87.7 C101.5,113.7 91.7,143.4 67.9,158.1 C48.6,169.5 33,186.4 23.1,206.6 Z M121,165.3 C123.1,169.7 140.2,193.1 73.5,247.2 C6.8,301.3 28.3,340 28.3,340 C28.3,340 -41.9,301.7 39,234 C119.9,166.3 103.2,153.5 103.2,153.5 C111,153.7 117.9,158.4 121,165.6 L121,165.3 Z M206.5,186.2 C217.8,187.7 225.7,223 251.6,230.7 C270.8,236.3 291.5,233.2 296.1,244.9 C291.8,248.4 291.2,254.7 294.7,258.9 C296.8,261.4 299.9,262.8 303.2,262.5 C310.7,241 314.3,162 206.8,186.2 L206.5,186.2 Z M242.2,202.7 C242.2,200.2 244.5,202.7 247.4,200.4 C250.4,196.5 254.3,193.3 258.7,191.2 C262.6,189.9 266.7,189.9 270.6,191.2 C272.9,191.2 270.6,197.5 270.6,198.9 C270.6,200.2 256.4,197.2 256.4,205 C256.4,217.8 273.8,205 282.9,205 C287.3,236.4 235.4,227.8 243,201.9 L242.2,202.7 Z" id="Shape" fill-rule="nonzero"></path>
            <rect id="Rectangle" transform="translate(535.000052, 412.903810) rotate(-19.949820) translate(-535.000052, -412.903810) " x="529" y="-24.0000001" width="12.0001046" height="873.80762"></rect>
            <path d="M718.500551,350 L705,350 L705,235 L718.500551,235 L718.500551,288.92261 L763.705622,235 L780.254686,235 L780.254686,235.785281 L735.136714,289.44613 L736.530319,291.540212 L736.356119,291.627466 C741.001493,299.480312 748.52108,308.350988 758.915105,318.239757 C769.30913,328.128527 777.670678,334.817889 784,338.308042 C780.690171,344.008627 778.10622,347.905907 776.24807,350 C776.131936,350 775.957737,349.941832 775.725468,349.825494 C769.860684,347.09154 762.776594,341.94364 754.472988,334.381639 C746.169382,326.819639 738.649795,318.908741 731.914002,310.64871 C725.17821,302.388679 720.707104,295.670233 718.500551,290.493172 L718.500551,350 Z M820.583488,339 C836.918561,339 845.057216,331.794718 844.999697,317.383938 L844.999697,310.091772 C840.743376,310.033898 836.918496,310.004961 833.524942,310.004961 C820.295834,309.889211 811.955869,311.799045 808.504797,315.734519 C806.779261,317.644382 805.945265,320.595943 806.002783,324.589292 C806.002783,328.640515 807.498225,332.055067 810.489153,334.833048 C813.5376,337.61103 816.902344,339 820.583488,339 Z M822.515521,352 C814.808166,352 808.385466,350.14937 803.247228,346.448052 C796.415709,341.571714 793,334.257315 793,324.504638 C793,314.751961 795.948603,307.760689 801.845898,303.530612 C807.743193,299.418038 816.355449,297.361781 827.682927,297.361781 C831.82855,297.361781 837.930115,297.714282 845.987804,298.419295 L845.987804,287.05102 C845.929416,280.940909 844.498905,276.50527 841.69623,273.74397 C838.893556,270.98267 834.602024,269.60204 828.821508,269.60204 C819.187314,269.60204 810.078757,271.775797 801.495566,276.123377 L797.99224,264.226345 C804.706981,261.523795 810.283052,259.64379 814.720621,258.58627 C819.158189,257.528751 824.646679,257 831.186253,257 C850.045918,257 859.47561,267.016906 859.47561,287.05102 L859.47561,316.132653 C859.533999,325.826579 861.548391,332.377225 865.518847,335.784787 C867.270519,337.253563 869.430881,338.399192 872,339.221707 L864.292683,352 C858.27861,350.002464 853.695138,345.743075 850.542129,339.221707 C843.185107,347.740611 833.842998,352 822.515521,352 Z M927.028359,269.434782 C920.928862,269.434782 913.04567,272.333304 903.378546,278.130434 L903.378546,349 L890,349 L890,258.73913 L898.976572,258.73913 L901.479654,267.086956 C911.837291,260.362285 921.245332,257 929.704069,257 C938.162805,257 945.326729,259.72461 951.196053,265.173913 C957.065376,270.623215 960,279.318781 960,291.260869 L960,349 L946.621451,349 L946.621451,292.043478 C946.621451,276.970939 940.090484,269.434782 927.028359,269.434782 Z M1000.05749,339.221707 C1004.82907,339.162956 1008.88198,338.663579 1012.21634,337.723562 C1015.5507,336.783545 1018.4251,335.13854 1020.83963,332.788497 C1023.36915,330.438454 1024.63389,327.383445 1024.63389,323.623376 C1024.63389,319.863308 1022.39185,316.602673 1017.90771,313.841373 C1016.06807,312.666352 1012.44632,310.962596 1007.04236,308.730055 C1001.6384,306.497515 997.642973,304.646884 995.055974,303.178107 C985.915234,298.184267 981.344928,290.811119 981.344928,281.058441 C981.344928,275.47709 982.782129,270.835826 985.656576,267.134508 C990.88807,260.378135 999.597513,257 1011.78517,257 C1017.93649,257 1024.00148,257.851878 1029.98033,259.555658 L1029.98033,271.893321 L1029.46294,272.157699 C1022.50677,270.218914 1015.92439,269.249536 1009.71558,269.249536 C999.597528,269.249536 994.538574,272.803922 994.538574,279.912801 C994.538574,284.319131 996.866839,288.020393 1001.52345,291.016697 C1003.47807,292.426723 1007.50224,294.365479 1013.59607,296.833024 C1019.6899,299.300568 1024.4614,301.44495 1027.91075,303.266234 C1031.36008,305.087516 1033.88955,307.52565 1035.49924,310.580705 C1037.10894,313.63576 1037.94251,317.660148 1038,322.653989 C1038,331.877906 1034.32077,339.074804 1026.96218,344.244898 C1019.66108,349.414992 1011.75647,352 1003.24811,352 C994.739744,352 987.323782,350.619371 981,347.85807 L981,335.079777 L981.517392,334.639147 C989.105933,337.694202 995.285903,339.221707 1000.05749,339.221707 Z M1091.2705,270 C1084.55734,270 1079.13527,272.417209 1075.0041,277.2517 C1070.87293,282.086192 1068.20493,288.335563 1067,296 L1109,296 C1108.82787,283.265242 1105.78691,275.247182 1099.87705,271.945578 C1097.52458,270.648519 1094.65576,270 1091.2705,270 Z M1123,307.93692 L1066.45818,307.93692 C1067.09905,317.572095 1070.09943,325.209619 1075.45943,330.849722 C1080.81942,336.489824 1087.6067,339.309833 1095.82147,339.309833 C1104.03624,339.309833 1112.39655,337.136076 1120.90262,332.788497 L1121.1648,332.876623 L1121.1648,345.478664 C1112.36741,349.826243 1103.68668,352 1095.12235,352 C1081.95541,352 1071.6434,347.652486 1064.18602,338.957328 C1056.72864,330.262171 1053,318.747134 1053,304.411874 C1053,290.135365 1056.2043,278.649703 1062.61299,269.954545 C1069.02167,261.318138 1078.75108,257 1091.8015,257 C1104.85192,257 1113.82395,262.287517 1118.71785,272.862708 C1121.51437,278.914068 1122.94174,286.492842 1123,295.599258 L1123,307.93692 Z M1156,223 L1156,350 L1143,350 L1143,224.754144 L1155.15585,223 L1156,223 Z M1205.58349,339 C1221.91857,339 1230.05722,331.794718 1229.9997,317.383938 L1229.9997,310.091772 C1225.74338,310.033898 1221.9185,310.004961 1218.52495,310.004961 C1205.29583,309.889211 1196.95587,311.799045 1193.5048,315.734519 C1191.77926,317.644382 1190.94527,320.595943 1191.00278,324.589292 C1191.00278,328.640515 1192.49822,332.055067 1195.48915,334.833048 C1198.5376,337.61103 1201.90234,339 1205.58349,339 Z M1206.51552,352 C1198.80816,352 1192.38546,350.14937 1187.24723,346.448052 C1180.41571,341.571714 1177,334.257315 1177,324.504638 C1177,314.751961 1179.9486,307.760689 1185.8459,303.530612 C1191.74319,299.418038 1200.35545,297.361781 1211.68292,297.361781 C1215.82855,297.361781 1221.93011,297.714282 1229.9878,298.419295 L1229.9878,287.05102 C1229.92941,280.940909 1228.4989,276.50527 1225.69623,273.74397 C1222.89356,270.98267 1218.60202,269.60204 1212.82151,269.60204 C1203.18731,269.60204 1194.07876,271.775797 1185.49556,276.123377 L1181.99224,264.226345 C1188.70698,261.523795 1194.28305,259.64379 1198.72062,258.58627 C1203.15819,257.528751 1208.64668,257 1215.18625,257 C1234.04591,257 1243.47561,267.016906 1243.47561,287.05102 L1243.47561,316.132653 C1243.534,325.826579 1245.54839,332.377225 1249.51884,335.784787 C1251.27052,337.253563 1253.43088,338.399192 1256,339.221707 L1248.29268,352 C1242.27861,350.002464 1237.69514,345.743075 1234.54213,339.221707 C1227.18511,347.740611 1217.84299,352 1206.51552,352 Z M1273,258.73913 L1282.17108,258.73913 L1285.34567,269 C1292.3416,260.99996 1299.83711,257 1307.83245,257 C1313.24106,257 1318.29686,258.043468 1323,260.130434 L1318.23809,272.217391 C1314.358,270.36231 1310.15463,269.434782 1305.62786,269.434782 C1298.338,269.434782 1292.01825,273.463728 1286.66843,281.521739 L1286.66843,349 L1273,349 L1273,258.73913 Z M1342,259 L1355,259 L1355,350 L1342,350 L1342,259 Z M1342.67869,240.293599 C1340.89289,238.54736 1340,236.435006 1340,233.956473 C1340,231.477939 1340.86498,229.365585 1342.59498,227.619346 C1344.32498,225.873106 1346.44559,225 1348.95687,225 C1351.46816,225 1353.61667,225.873106 1355.40248,227.619346 C1357.18828,229.365585 1358.05327,231.477939 1357.99746,233.956473 C1357.99746,236.435006 1357.10457,238.575525 1355.31877,240.378094 C1353.53297,242.180663 1351.44025,243.05377 1349.04058,242.99744 C1346.5851,242.99744 1344.46449,242.096168 1342.67869,240.293599 Z M1388.34715,259 L1402,259 L1402,356.556728 C1402,368.722136 1399.3869,377.670595 1394.16062,383.402374 C1388.93434,389.134153 1382.47499,392 1374.78238,392 C1367.08977,392 1359.16239,390.15767 1351,386.472955 L1354.69948,374.015171 C1360.98276,377.641398 1366.67873,379.454485 1371.78756,379.454485 C1376.95512,379.395998 1381.00689,377.495181 1383.94301,373.751979 C1386.87912,370.008776 1388.34715,364.277083 1388.34715,356.556728 L1388.34715,259 Z M1386.00254,234.042254 C1385.94673,231.619707 1386.81172,229.507052 1388.59752,227.704225 C1390.38333,225.901399 1392.50393,225 1394.95942,225 C1397.4149,225 1399.5355,225.873231 1401.32131,227.619719 C1403.10711,229.422544 1404,231.563368 1404,234.042254 C1404,236.521139 1403.10711,238.633794 1401.32131,240.380281 C1399.5355,242.126769 1397.4149,243 1394.95942,243 C1392.50393,243 1390.38333,242.126769 1388.59752,240.380281 C1386.86752,238.633794 1386.00254,236.521139 1386.00254,234.042254 Z M735.270492,441 C728.557344,441 723.135267,443.417209 719.004099,448.2517 C714.87293,453.086192 712.204924,459.335563 711,467 L753,467 C752.827868,454.265242 749.786915,446.247182 743.87705,442.945578 C741.524579,441.648519 738.655755,441 735.270492,441 Z M767,477.93692 L710.458177,477.93692 C711.099046,487.572095 714.099432,495.209619 719.459426,500.849722 C724.81942,506.489824 731.606701,509.309833 739.821473,509.309833 C748.036246,509.309833 756.396545,507.136076 764.902622,502.788497 L765.164794,502.876623 L765.164794,515.478664 C756.367413,519.826243 747.686685,522 739.122347,522 C725.955407,522 715.6434,517.652486 708.186018,508.957328 C700.728635,500.262171 697,488.747134 697,474.411874 C697,460.135365 700.204296,448.649703 706.612984,439.954545 C713.021672,431.318138 722.751079,427 735.801498,427 C748.851917,427 757.823946,432.287517 762.717853,442.862708 C765.514371,448.914068 766.941739,456.492842 767,465.599258 L767,477.93692 Z M825.02836,441.434782 C818.928864,441.434782 811.045671,444.333304 801.378545,450.130434 L801.378545,521 L788,521 L788,430.73913 L796.976572,430.73913 L799.479655,439.086956 C809.83729,432.362285 819.245334,429 827.704069,429 C836.162804,429 843.326728,431.72461 849.196054,437.173913 C855.065381,442.623215 858,451.318781 858,463.260869 L858,521 L844.621455,521 L844.621455,464.043478 C844.621455,448.970939 838.090488,441.434782 825.02836,441.434782 Z M952,468 L952,508 L960.767364,508 C976.045218,508 985.88308,507.157597 990.281249,505.472766 C994.679418,503.787936 997.746521,501.638357 999.482636,499.023965 C1001.16089,496.409572 1002,492.894721 1002,488.479303 C1002,480.113248 998.817165,474.477865 992.451387,471.572985 C987.185157,469.190983 977.983862,468 964.847218,468 L952,468 Z M952,418 L952,455 L956.961537,455 C964.621494,454.941686 970.569479,454.795904 974.805669,454.562648 C979.041858,454.329392 982.697688,453.658792 985.773274,452.550827 C991.924453,450.334898 995,445.174193 995,437.068558 C995,428.962923 991.77938,423.598122 985.338056,420.973996 C980.521568,418.991322 971.294942,418 957.657894,418 L952,418 Z M1016,487.494689 C1016,497.383459 1013.47971,504.741757 1008.43905,509.569803 C1003.3984,514.397849 996.880402,517.509857 988.884874,518.905918 C980.889353,520.30198 970.808184,521 958.641083,521 L939,521 L939,406 L956.381491,406 C974.921835,406 988.305451,408.268567 996.53273,412.805767 C1004.76002,417.342967 1008.84462,425.22478 1008.78668,436.451442 C1008.78668,447.619934 1005.36836,455.618084 998.531602,460.44613 C1010.17726,465.216008 1016,474.232104 1016,487.494689 Z M1066.27049,441 C1059.55734,441 1054.13526,443.417209 1050.0041,448.2517 C1045.87293,453.086192 1043.20493,459.335563 1042,467 L1084,467 C1083.82787,454.265242 1080.78691,446.247182 1074.87705,442.945578 C1072.52458,441.648519 1069.65575,441 1066.27049,441 Z M1098,477.93692 L1041.45818,477.93692 C1042.09904,487.572095 1045.09943,495.209619 1050.45943,500.849722 C1055.81942,506.489824 1062.6067,509.309833 1070.82147,509.309833 C1079.03624,509.309833 1087.39654,507.136076 1095.90262,502.788497 L1096.16479,502.876623 L1096.16479,515.478664 C1087.36741,519.826243 1078.68668,522 1070.12235,522 C1056.95541,522 1046.6434,517.652486 1039.18602,508.957328 C1031.72863,500.262171 1028,488.747134 1028,474.411874 C1028,460.135365 1031.20429,448.649703 1037.61299,439.954545 C1044.02167,431.318138 1053.75108,427 1066.80149,427 C1079.85192,427 1088.82395,432.287517 1093.71785,442.862708 C1096.51437,448.914068 1097.94174,456.492842 1098,465.599258 L1098,477.93692 Z M1130.05749,509.221707 C1134.82907,509.162956 1138.88198,508.663579 1142.21634,507.723562 C1145.5507,506.783545 1148.4251,505.13854 1150.83964,502.788497 C1153.36915,500.438454 1154.63389,497.383445 1154.63389,493.623376 C1154.63389,489.863308 1152.39185,486.602673 1147.90772,483.841373 C1146.06807,482.666352 1142.44633,480.962596 1137.04236,478.730055 C1131.6384,476.497515 1127.64298,474.646884 1125.05598,473.178107 C1115.91523,468.184267 1111.34494,460.811119 1111.34494,451.058441 C1111.34494,445.47709 1112.78214,440.835826 1115.65658,437.134508 C1120.88808,430.378135 1129.59752,427 1141.78518,427 C1147.93649,427 1154.00149,427.851878 1159.98033,429.555658 L1159.98033,441.893321 L1159.46294,442.157699 C1152.50677,440.218914 1145.92439,439.249536 1139.71558,439.249536 C1129.59753,439.249536 1124.53858,442.803922 1124.53858,449.912801 C1124.53858,454.319131 1126.86684,458.020393 1131.52345,461.016697 C1133.47807,462.426723 1137.50224,464.365479 1143.59607,466.833024 C1149.68989,469.300568 1154.4614,471.44495 1157.91074,473.266234 C1161.36008,475.087516 1163.88955,477.52565 1165.49924,480.580705 C1167.10894,483.63576 1167.94251,487.660148 1168,492.653989 C1168,501.877906 1164.32077,509.074804 1156.96218,514.244898 C1149.66109,519.414992 1141.75648,522 1133.24811,522 C1124.73975,522 1117.32379,520.619371 1111,517.85807 L1111,505.079777 L1111.5174,504.639147 C1119.10594,507.694202 1125.28591,509.221707 1130.05749,509.221707 Z M1179,429.601888 L1189.10807,429.601888 L1189.10807,413.357986 L1201.85302,411 L1202.73199,411 L1202.73199,429.601888 L1228.04611,429.601888 L1228.04611,442.177812 L1202.73199,442.177812 L1202.73199,486.717545 C1202.73199,494.402871 1204.19691,500.108558 1207.1268,503.834776 C1210.05669,507.560994 1214.09988,509.453186 1219.25648,509.511408 C1224.2959,509.511408 1229.97979,507.706548 1236.30836,504.096774 L1240,516.498033 C1231.85491,520.16603 1223.94432,522 1216.26801,522 C1208.5917,522 1202.14604,519.147157 1196.93084,513.441384 C1191.71563,507.735613 1189.10807,498.827755 1189.10807,486.717545 L1189.10807,442.177812 L1179,442.177812 L1179,429.601888 Z M1286.97164,509.565217 C1293.18622,509.565217 1301.06942,506.695681 1310.62146,500.956521 L1310.62146,430 L1324,430 L1324,520.26087 L1315.54131,520.26087 L1312.8656,511.652174 C1302.33534,518.550759 1292.84098,522 1284.38225,522 C1275.86597,522 1268.67327,519.275389 1262.80395,513.826087 C1256.93462,508.376785 1254,499.681219 1254,487.73913 L1254,430 L1267.37854,430 L1267.37854,486.956522 C1267.37854,502.029061 1273.90951,509.565217 1286.97164,509.565217 Z M1385.97164,509.565217 C1392.18622,509.565217 1400.06942,506.695681 1409.62146,500.956521 L1409.62146,430 L1423,430 L1423,520.26087 L1414.54131,520.26087 L1411.8656,511.652174 C1401.33534,518.550759 1391.84098,522 1383.38225,522 C1374.86597,522 1367.67327,519.275389 1361.80395,513.826087 C1355.93462,508.376785 1353,499.681219 1353,487.73913 L1353,430 L1366.37854,430 L1366.37854,486.956522 C1366.37854,502.029061 1372.90951,509.565217 1385.97164,509.565217 Z M1451,430.73913 L1460.17108,430.73913 L1463.34568,441 C1470.3416,432.99996 1477.83711,429 1485.83246,429 C1491.24106,429 1496.29686,430.043468 1501,432.130434 L1496.23809,444.217391 C1492.358,442.362309 1488.15464,441.434782 1483.62786,441.434782 C1476.338,441.434782 1470.01826,445.463728 1464.66843,453.521739 L1464.66843,521 L1451,521 L1451,430.73913 Z" id="Kanselarij-en-Bestuu" fill-rule="nonzero"></path>
        </g>
    </g>
</svg>