<?xml version="1.0" encoding="utf-8"?>
<!-- Generator: Adobe Illustrator 23.0.4, SVG Export Plug-In . SVG Version: 6.00 Build 0)  -->
<svg version="1.1" id="Layer_1" xmlns="http://www.w3.org/2000/svg" xmlns:xlink="http://www.w3.org/1999/xlink" x="0px" y="0px"
	 viewBox="0 0 2213.7 825.5" style="enable-background:new 0 0 2213.7 825.5;" xml:space="preserve">
<style type="text/css">
	.st0{fill:#495261;}
	.st1{fill:#3E3E40;}
	.st2{fill:#E4762C;}
</style>
<title>Artboard</title>
<desc>Created with Sketch.</desc>
<g>
	<g>
		<path class="st0" d="M676.7,413.8c0-12.3,2-23.8,5.9-34.5c3.9-10.7,9.6-20,16.9-28c7.3-8,16-14.1,25.9-18.5c10-4.4,21-6.6,33-6.6
			c4.9,0,10.3,0.5,16.4,1.4s11.6,2.4,16.8,4.4c5.1,2,9.4,4.7,12.9,8.2c3.4,3.5,5.2,7.7,5.2,12.8c0,4.3-1.4,8.1-4.2,11.2
			c-2.8,3.1-6.3,4.7-10.5,4.7c-2.6,0-6.1-0.9-10.7-2.7c-4.6-1.8-8.6-3.2-12-4.2c-3.4-1-7.9-1.5-13.7-1.5c-7.3,0-13.7,1.4-19.3,4.2
			c-5.6,2.8-10.2,6.7-13.9,11.5c-3.7,4.9-6.6,10.6-8.5,17.2c-2,6.6-3,13.6-3,21c0,14.9,3.9,27.4,11.8,37.5
			c7.9,10.1,18.8,15.1,32.8,15.1c5.9,0,10.5-0.6,14-1.7c3.4-1.2,7.6-2.8,12.5-5c4.9-2.2,8.7-3.2,11.3-3.2c4.9,0,8.7,1.8,11.5,5.5
			c2.8,3.7,4.2,7.2,4.2,10.6c0,7-3,12.5-8.9,16.7c-6,4.2-13.1,7.1-21.3,8.8c-8.2,1.7-16,2.6-23.3,2.6c-15.8,0-29.9-3.8-42.3-11.5
			c-12.4-7.7-22.1-18.2-29-31.6C680.2,444.7,676.7,430,676.7,413.8z"/>
		<path class="st0" d="M1018.6,413.8c0-12.3,2-23.8,5.9-34.5c3.9-10.7,9.6-20,16.9-28c7.3-8,16-14.1,25.9-18.5c10-4.4,21-6.6,33-6.6
			c4.9,0,10.3,0.5,16.4,1.4c6,0.9,11.6,2.4,16.8,4.4c5.1,2,9.4,4.7,12.9,8.2c3.4,3.5,5.2,7.7,5.2,12.8c0,4.3-1.4,8.1-4.2,11.2
			c-2.8,3.1-6.3,4.7-10.5,4.7c-2.6,0-6.1-0.9-10.7-2.7c-4.6-1.8-8.6-3.2-12-4.2c-3.4-1-7.9-1.5-13.7-1.5c-7.3,0-13.7,1.4-19.3,4.2
			c-5.6,2.8-10.2,6.7-13.9,11.5s-6.6,10.6-8.5,17.2c-2,6.6-3,13.6-3,21c0,14.9,3.9,27.4,11.8,37.5c7.9,10.1,18.8,15.1,32.8,15.1
			c5.9,0,10.5-0.6,14-1.7c3.4-1.2,7.6-2.8,12.5-5c4.9-2.2,8.7-3.2,11.3-3.2c4.9,0,8.7,1.8,11.5,5.5c2.8,3.7,4.2,7.2,4.2,10.6
			c0,7-3,12.5-8.9,16.7c-6,4.2-13.1,7.1-21.3,8.8c-8.2,1.7-16,2.6-23.3,2.6c-15.8,0-29.9-3.8-42.3-11.5c-12.4-7.7-22.1-18.2-29-31.6
			C1022.1,444.7,1018.6,430,1018.6,413.8z"/>
		<path class="st0" d="M1236.9,478.9V346.3c0-5.7,1.7-10.2,5-13.5c3.4-3.3,7.6-4.9,12.8-4.9c5.3,0,9.5,1.6,12.8,4.8
			c3.3,3.2,4.9,7.8,4.9,13.6v119.3h42.3c5.7,0,10,1.7,12.8,5.2c2.8,3.4,4.2,7.4,4.2,12c-0.2,4.2-1.9,7.8-5,11
			c-3.1,3.1-7.1,4.7-12.1,4.7h-59.4c-5.7,0-10.3-1.8-13.6-5.3C1238.6,489.6,1236.9,484.8,1236.9,478.9z"/>
		<path class="st0" d="M1404.6,480.5V349.9c0-6.2,1.6-11.2,4.8-15c3.2-3.8,7.8-5.7,13.8-5.7h58.9c5.4,0,9.6,1.6,12.5,4.8
			c2.9,3.2,4.4,7.1,4.4,11.6c0,3-0.7,5.6-2,8.1c-1.3,2.4-3.2,4.4-5.7,6c-2.5,1.6-5.6,2.3-9.1,2.3h-41.9v34.6h39
			c5.6,0,9.9,1.6,12.9,4.8c3,3.2,4.5,7.1,4.5,11.7c0,4.3-1.5,8.1-4.6,11.4c-3.1,3.3-7.3,4.9-12.8,4.9h-39v36.1h44
			c5.5,0,9.7,1.6,12.6,4.8c2.9,3.2,4.4,7.1,4.4,11.7c0,2.6-0.7,5.1-2,7.8c-1.3,2.6-3.2,4.7-5.8,6.3c-2.6,1.5-5.6,2.3-9.2,2.3H1423
			c-5.3,0-9.6-1.6-13.1-4.9C1406.4,490.2,1404.6,485.9,1404.6,480.5z"/>
		<path class="st0" d="M1572.6,475.3l47.8-129.3c2.2-6,5.6-10.7,10-14.3c4.4-3.6,9.6-5.4,15.4-5.4c6.1,0,11.4,1.8,15.7,5.3
			c4.4,3.6,7.6,8.4,9.7,14.4l46.6,129.3c1.2,3.4,1.9,6.3,1.9,8.8c0,3-0.8,5.7-2.3,8.1c-1.5,2.4-3.5,4.3-6,5.6c-2.5,1.3-5.2,2-8.1,2
			c-8.8,0-14.6-4.1-17.4-12.3l-7.1-22.3h-66l-7.2,22.1c-2.6,8.3-8.3,12.5-17.1,12.5c-4.9,0-9-1.6-12.5-4.8
			c-3.4-3.2-5.2-7.1-5.2-11.8C1571,480.9,1571.5,478.3,1572.6,475.3z M1645.6,363.4l-22.5,68.9h45.1l-22.2-68.9H1645.6z"/>
		<path class="st0" d="M1797.4,481.3V347.8c0-5.8,1.6-10.3,4.7-13.6c3.1-3.3,7.7-4.9,13.6-4.9h41.8c19,0,33.5,4.4,43.8,13.2
			c10.2,8.8,15.4,22.3,15.4,40.6c0,6.4-1.1,12.2-3.4,17.4c-2.2,5.2-5.4,9.7-9.5,13.4c-4.1,3.8-8.7,6.8-13.9,9.1
			c-5.2,2.3-11,4-17.2,5l40.5,43.2c3.1,3.4,4.6,6.9,4.6,10.6c0,4.8-1.7,9-5.2,12.7c-3.4,3.7-7.6,5.5-12.6,5.5
			c-5.7,0-10.3-2-13.8-6.1l-52.8-63.9h-0.5v51.6c0,5.9-1.6,10.4-4.9,13.6c-3.3,3.2-7.6,4.8-12.8,4.8c-5.2,0-9.5-1.6-12.8-4.9
			C1799.1,491.6,1797.4,487.1,1797.4,481.3z M1833,362.1v42h24.5c6.6,0,11.9-1.9,16-5.7c4.1-3.8,6.1-8.9,6.1-15.4
			c0-6.7-2-11.9-6.1-15.5c-4.1-3.6-9.4-5.4-16.1-5.4H1833z"/>
	</g>
	<circle class="st1" cx="408.9" cy="414.3" r="47"/>
	<circle class="st2" cx="767.7" cy="50.8" r="47"/>
	<circle class="st2" cx="407.4" cy="50.8" r="47"/>
	<circle class="st2" cx="47" cy="414.3" r="47"/>
	<circle class="st2" cx="767.7" cy="774.7" r="47"/>
	<circle class="st2" cx="407.4" cy="774.7" r="47"/>
	<circle class="st2" cx="916.9" cy="416.3" r="15.3"/>
	<g>
		<path class="st0" d="M986.4,658v-58.7c0-2.5,0.7-4.5,2.1-6c1.4-1.5,3.4-2.2,6-2.2h18.4c5,0,9.6,1,13.7,3.1c4.1,2.1,7.3,5,9.6,8.8
			c2.3,3.8,3.4,8.1,3.4,13c0,3.8-0.7,7.2-2.1,10.3c-1.4,3.1-3.2,5.7-5.6,7.8c-2.4,2.1-5.1,3.8-8.3,4.9c-3.2,1.2-6.6,1.7-10.1,1.7
			H1002V658c0,2.6-0.7,4.6-2.2,6c-1.4,1.4-3.3,2.1-5.6,2.1c-2.3,0-4.2-0.7-5.6-2.2C987.1,662.5,986.4,660.6,986.4,658z M1002,605
			v22.1h10.7c3.2,0,5.8-1,7.8-3.1c2-2.1,3-4.7,3-8c0-2.1-0.4-4-1.3-5.6c-0.9-1.7-2.1-3-3.8-4c-1.6-1-3.5-1.5-5.7-1.5H1002z"/>
		<path class="st0" d="M1109.6,655.4l21-56.8c1-2.6,2.5-4.7,4.4-6.3c2-1.6,4.2-2.4,6.8-2.4c2.7,0,5,0.8,6.9,2.3
			c1.9,1.6,3.3,3.7,4.3,6.3l20.5,56.8c0.5,1.5,0.8,2.8,0.8,3.9c0,1.3-0.3,2.5-1,3.6c-0.7,1.1-1.5,1.9-2.6,2.4
			c-1.1,0.6-2.3,0.9-3.6,0.9c-3.9,0-6.4-1.8-7.7-5.4l-3.1-9.8h-29l-3.2,9.7c-1.2,3.7-3.7,5.5-7.5,5.5c-2.1,0-4-0.7-5.5-2.1
			c-1.5-1.4-2.3-3.1-2.3-5.2C1108.9,657.9,1109.2,656.7,1109.6,655.4z M1141.7,606.2l-9.9,30.3h19.8l-9.7-30.3H1141.7z"/>
		<path class="st0" d="M1248.1,658v-58.7c0-2.6,0.7-4.5,2.1-6c1.4-1.4,3.4-2.2,6-2.2h18.4c8.3,0,14.7,1.9,19.3,5.8
			c4.5,3.9,6.8,9.8,6.8,17.8c0,2.8-0.5,5.4-1.5,7.7c-1,2.3-2.4,4.2-4.2,5.9c-1.8,1.6-3.8,3-6.1,4c-2.3,1-4.8,1.7-7.6,2.2l17.8,19
			c1.4,1.5,2,3,2,4.6c0,2.1-0.8,4-2.3,5.6c-1.5,1.6-3.4,2.4-5.5,2.4c-2.5,0-4.5-0.9-6.1-2.7l-23.2-28.1h-0.2V658
			c0,2.6-0.7,4.6-2.2,6c-1.4,1.4-3.3,2.1-5.6,2.1c-2.3,0-4.2-0.7-5.6-2.2C1248.9,662.5,1248.1,660.6,1248.1,658z M1263.8,605.6v18.5
			h10.8c2.9,0,5.2-0.8,7-2.5c1.8-1.7,2.7-3.9,2.7-6.8c0-3-0.9-5.2-2.7-6.8c-1.8-1.6-4.1-2.4-7.1-2.4H1263.8z"/>
		<path class="st0" d="M1387.7,658.1v-52.4h-11.4c-2.3,0-4.1-0.7-5.3-2.1c-1.2-1.4-1.8-3.1-1.8-5.1c0-1.2,0.3-2.4,0.9-3.5
			c0.6-1.1,1.4-2,2.6-2.7c1.1-0.7,2.3-1,3.7-1h38.4c1.4,0,2.6,0.3,3.7,1c1.1,0.7,2,1.6,2.6,2.7c0.6,1.1,0.9,2.3,0.9,3.5
			c0,2-0.6,3.7-1.8,5.1c-1.2,1.4-3,2.1-5.4,2.1h-11.4v52.4c0,2.6-0.7,4.6-2.2,6c-1.4,1.4-3.3,2.1-5.6,2.1c-2.3,0-4.2-0.7-5.7-2.1
			C1388.4,662.6,1387.7,660.6,1387.7,658.1z"/>
		<path class="st0" d="M1493.6,658v-59.4c0-2.5,0.7-4.5,2.2-6c1.5-1.4,3.3-2.1,5.6-2.1c1.1,0,2.3,0.3,3.6,1c1.3,0.7,2.3,1.5,3,2.4
			l33.2,44.2h0.2v-39.5c0-2.5,0.7-4.5,2.2-6c1.5-1.4,3.3-2.1,5.6-2.1c2.3,0,4.2,0.7,5.7,2.1c1.4,1.4,2.2,3.4,2.2,6V658
			c0,2.6-0.7,4.6-2.2,6c-1.4,1.4-3.3,2.1-5.7,2.1c-1,0-2.1-0.3-3.4-1c-1.3-0.7-2.4-1.5-3.2-2.4l-33.1-43.7h-0.2v39
			c0,2.6-0.7,4.6-2.2,6c-1.4,1.4-3.3,2.1-5.7,2.1c-2.3,0-4.1-0.7-5.6-2.1C1494.3,662.6,1493.6,660.6,1493.6,658z"/>
		<path class="st0" d="M1634.7,657.7v-57.4c0-2.7,0.7-4.9,2.1-6.6c1.4-1.7,3.4-2.5,6.1-2.5h25.9c2.4,0,4.2,0.7,5.5,2.1
			c1.3,1.4,1.9,3.1,1.9,5.1c0,1.3-0.3,2.5-0.9,3.6c-0.6,1.1-1.4,2-2.5,2.6c-1.1,0.7-2.4,1-4,1h-18.4v15.2h17.1
			c2.4,0,4.3,0.7,5.7,2.1c1.3,1.4,2,3.1,2,5.2c0,1.9-0.7,3.6-2,5c-1.4,1.4-3.2,2.2-5.6,2.2h-17.1v15.9h19.3c2.4,0,4.3,0.7,5.5,2.1
			c1.3,1.4,1.9,3.1,1.9,5.1c0,1.1-0.3,2.3-0.9,3.4c-0.6,1.2-1.4,2.1-2.6,2.8c-1.1,0.7-2.5,1-4,1h-26.9c-2.3,0-4.2-0.7-5.8-2.2
			C1635.5,661.9,1634.7,660,1634.7,657.7z"/>
		<path class="st0" d="M1752,658v-58.7c0-2.6,0.7-4.5,2.1-6c1.4-1.4,3.4-2.2,6-2.2h18.4c8.3,0,14.7,1.9,19.3,5.8
			c4.5,3.9,6.8,9.8,6.8,17.8c0,2.8-0.5,5.4-1.5,7.7c-1,2.3-2.4,4.2-4.2,5.9c-1.8,1.6-3.8,3-6.1,4c-2.3,1-4.8,1.7-7.6,2.2l17.8,19
			c1.4,1.5,2,3,2,4.6c0,2.1-0.8,4-2.3,5.6c-1.5,1.6-3.4,2.4-5.5,2.4c-2.5,0-4.5-0.9-6.1-2.7l-23.2-28.1h-0.2V658
			c0,2.6-0.7,4.6-2.2,6c-1.4,1.4-3.3,2.1-5.6,2.1c-2.3,0-4.2-0.7-5.6-2.2C1752.7,662.5,1752,660.6,1752,658z M1767.7,605.6v18.5
			h10.8c2.9,0,5.2-0.8,7-2.5c1.8-1.7,2.7-3.9,2.7-6.8c0-3-0.9-5.2-2.7-6.8c-1.8-1.6-4.1-2.4-7.1-2.4H1767.7z"/>
		<path class="st0" d="M1902.5,589.9c2.4,0,5.2,0.3,8.4,1c3.2,0.7,6.1,1.8,8.4,3.4c2.4,1.6,3.6,3.6,3.6,6c0,2.1-0.6,4-1.9,5.5
			c-1.3,1.5-3,2.3-5,2.3c-1,0-2-0.2-3.1-0.5c-1.1-0.4-2.2-0.8-3.4-1.2c-1.2-0.4-2.3-0.8-3.5-1c-1.2-0.3-2.5-0.4-3.9-0.4
			c-2.3,0-4.4,0.6-6,1.8c-1.7,1.2-2.5,2.9-2.5,4.9c0,2.2,1.9,4,5.7,5.4c3.8,1.3,8,2.8,12.6,4.3c4.6,1.5,8.6,3.9,11.8,7.1
			c3.2,3.2,4.8,7.9,4.8,14c0,4.8-1.2,9-3.6,12.7c-2.4,3.7-5.7,6.6-9.7,8.6c-4.1,2-8.5,3-13.4,3c-6,0-11.7-0.9-17.2-2.6
			c-5.5-1.8-8.2-4.8-8.2-9.1c0-2.1,0.6-3.9,1.9-5.3c1.3-1.4,3-2.1,5.1-2.1c1,0,2.1,0.2,3.4,0.5c1.2,0.3,2.8,0.8,4.7,1.5
			c1.9,0.7,3.6,1.2,5,1.5c1.4,0.4,2.9,0.5,4.5,0.5c2.2,0,4.2-0.4,5.8-1.1c1.6-0.8,2.8-1.8,3.6-3.2c0.8-1.4,1.2-2.9,1.2-4.6
			c0-2.7-0.9-4.4-2.8-5.2c-1.9-0.8-6.1-2.3-12.8-4.4c-6.7-2.1-11.6-4.5-14.7-7.3c-3.1-2.8-4.7-6.9-4.7-12.3c0-4.8,1.2-8.9,3.5-12.5
			c2.4-3.6,5.5-6.3,9.5-8.3C1893.7,590.9,1898,589.9,1902.5,589.9z"/>
	</g>
</g>
</svg>
