<?xml version="1.0" encoding="UTF-8"?>
<svg width="1901px" height="826px" viewBox="0 0 1901 826" version="1.1" xmlns="http://www.w3.org/2000/svg" xmlns:xlink="http://www.w3.org/1999/xlink">
    <!-- Generator: Sketch 52.6 (67491) - http://www.bohemiancoding.com/sketch -->
    <title>Artboard</title>
    <desc>Created with Sketch.</desc>
    <g id="Artboard" stroke="none" stroke-width="1" fill="none" fill-rule="evenodd">
        <g id="logo-kanselarij-bestuur" fill="#333333">
            <path d="M375.8,394.4 C355.1,378.7 345.3,394.4 332.3,394.4 C319.3,394.4 310.8,375.2 302.4,380 C286.1,388.2 308.9,418.3 318.9,423.5 C326.2,427.7 333.8,431.4 341.5,434.8 C353.1,440.2 360.6,451.7 360.7,464.5 C361.3,469.3 361.3,474.1 360.7,478.9 C354.8,504.2 310.1,527.2 284,509.8 C270,501.4 260.3,487.5 257.2,471.5 C250.3,438.3 226.1,414 218.9,381.4 C214.1,362.2 210.7,340.8 205.5,321 C200.3,301.2 195,279.4 190.5,260.2 C185.7,240.2 179.6,220.5 172.5,201.2 C147.8,137.7 136.8,142.3 136.8,142.3 C136.8,142.3 145.6,159.9 178,314.8 C183.4,348.1 190.6,381 199.7,413.5 C202.8,421.6 208.1,438.8 211.6,446.5 C222,468.7 249.9,502.5 250.9,533 C251.9,550.6 254,565.2 254.4,578.4 C255.1,587.5 256.6,596.5 259,605.2 C265.7,624.4 319.2,683.6 375.9,683.6 L375.9,637.4 C336.3,636.5 297.8,624.4 264.9,602.5 C265.6,591.4 267.9,580.4 271.6,569.9 C278,549.4 296.1,534.7 317.4,532.7 C336.7,533.1 355.9,535 374.9,538.6 L374.9,394.4 L375.8,394.4 Z M130.6,228.8 C128.5,262.7 75.6,309.3 59.1,339 C49.7,356.1 42.7,374.4 38.2,393.4 C32.5,423.7 36.7,455.1 50.1,482.9 C67.5,524.7 47.8,540.4 61.4,531.6 C78.3,517.8 75.8,485.8 74.4,465.8 C72.7,447.8 72.7,429.7 74.4,411.7 C82,374.6 97.8,339.7 120.6,309.5 C136.3,285.7 140,255.9 130.6,228.8 Z M141.4,324.7 C141.4,324.7 147,351.5 122.2,420.6 C59.7,601.8 179.7,618.8 213.1,661.4 C213.1,661.4 226.3,642.2 172.1,584.7 C152.9,563.2 133.8,515.7 150.1,447.6 C172.5,349.3 140.5,325.1 140.5,325.1 L141.4,324.7 Z M23.1,206.6 C20.2,197.3 18.8,187.6 19.1,177.8 C22.9,135.2 61.9,118 71.4,111.7 C80.3,105.9 87.2,97.6 91.1,87.7 C101.5,113.7 91.7,143.4 67.9,158.1 C48.6,169.5 33,186.4 23.1,206.6 Z M121,165.3 C123.1,169.7 140.2,193.1 73.5,247.2 C6.8,301.3 28.3,340 28.3,340 C28.3,340 -41.9,301.7 39,234 C119.9,166.3 103.2,153.5 103.2,153.5 C111,153.7 117.9,158.4 121,165.6 L121,165.3 Z M206.5,186.2 C217.8,187.7 225.7,223 251.6,230.7 C270.8,236.3 291.5,233.2 296.1,244.9 C291.8,248.4 291.2,254.7 294.7,258.9 C296.8,261.4 299.9,262.8 303.2,262.5 C310.7,241 314.3,162 206.8,186.2 L206.5,186.2 Z M242.2,202.7 C242.2,200.2 244.5,202.7 247.4,200.4 C250.4,196.5 254.3,193.3 258.7,191.2 C262.6,189.9 266.7,189.9 270.6,191.2 C272.9,191.2 270.6,197.5 270.6,198.9 C270.6,200.2 256.4,197.2 256.4,205 C256.4,217.8 273.8,205 282.9,205 C287.3,236.4 235.4,227.8 243,201.9 L242.2,202.7 Z" id="Shape" fill-rule="nonzero"></path>
            <rect id="Rectangle" transform="translate(535.000052, 412.903810) rotate(-19.949820) translate(-535.000052, -412.903810) " x="529" y="-24.0000001" width="12.0001046" height="873.80762"></rect>
            <path d="M744.838867,257.595703 L744.838867,367 L731.557617,367 L731.557617,275.442383 L700.678711,335.457031 L697.69043,335.457031 L666.147461,274.695312 L666.147461,367 L653.696289,367 L653.696289,257.595703 L671.044922,257.595703 L699.018555,312.712891 L699.350586,312.712891 L727.324219,257.595703 L744.838867,257.595703 Z M776.796875,323.669922 C776.796875,333.188199 779.176408,341.073862 783.935547,347.327148 C788.750024,353.580435 795.362914,356.707031 803.774414,356.707031 C812.185914,356.707031 818.660459,353.71878 823.198242,347.742188 C827.736025,341.765595 830.032552,334.018277 830.087891,324.5 C830.087891,314.871046 827.791364,306.902375 823.198242,300.59375 C818.660459,294.285125 812.130576,291.130859 803.608398,291.130859 C795.08622,291.130859 788.501,294.174449 783.852539,300.261719 C779.204078,306.348989 776.852214,314.151645 776.796875,323.669922 Z M842.954102,323.835938 C842.954102,336.453188 839.218787,347.078082 831.748047,355.710938 C824.277306,364.343793 814.759172,368.660156 803.193359,368.660156 C791.627546,368.660156 782.192419,364.371462 774.887695,355.793945 C767.582971,347.216428 763.930664,336.646873 763.930664,324.084961 C763.930664,311.523049 767.665978,300.898155 775.136719,292.209961 C782.607459,283.521766 792.153262,279.177734 803.774414,279.177734 C815.395566,279.177734 824.830693,283.494097 832.080078,292.126953 C839.329463,300.759809 842.954102,311.329365 842.954102,323.835938 Z M892.592773,356.873047 C901.723678,356.873047 908.945286,353.691113 914.257812,347.327148 C919.570339,340.963184 922.226562,332.856169 922.226562,323.005859 C922.226562,313.15555 920.040712,305.408231 915.668945,299.763672 C911.352517,294.008435 904.711959,291.130859 895.74707,291.130859 C886.782182,291.130859 880.113954,294.257456 875.742188,300.510742 L875.742188,354.216797 C880.224632,355.987639 885.841438,356.873047 892.592773,356.873047 Z M875.742188,246.804688 L875.742188,286.731445 C882.327507,281.695613 889.549114,279.177734 897.407227,279.177734 C905.265339,279.177734 912.071911,281.197571 917.827148,285.237305 C923.582386,289.277038 927.898749,294.617154 930.776367,301.257812 C933.653986,307.898471 935.092773,315.286092 935.092773,323.420898 C935.092773,336.978909 931.274452,347.908162 923.637695,356.208984 C916.000938,364.509807 905.348376,368.660156 891.679688,368.660156 C882.327427,368.660156 872.726286,366.612651 862.875977,362.517578 L862.875977,248.464844 L874.912109,246.804688 L875.742188,246.804688 Z M957.504883,280.837891 L970.288086,280.837891 L970.288086,367 L957.504883,367 L957.504883,280.837891 Z M957.670898,263.489258 C955.900056,261.773754 955.014648,259.69858 955.014648,257.263672 C955.014648,254.828764 955.872387,252.753589 957.587891,251.038086 C959.303394,249.322583 961.406238,248.464844 963.896484,248.464844 C966.386731,248.464844 968.517244,249.322583 970.288086,251.038086 C972.058928,252.753589 972.916667,254.828764 972.861328,257.263672 C972.861328,259.69858 971.97592,261.801423 970.205078,263.572266 C968.434236,265.343108 966.359061,266.200847 963.979492,266.145508 C961.544584,266.145508 959.441741,265.2601 957.670898,263.489258 Z M1012.20703,246.804688 L1012.20703,367 L999.423828,367 L999.423828,248.464844 L1011.37695,246.804688 L1012.20703,246.804688 Z M1041.25977,280.837891 L1054.04297,280.837891 L1054.04297,367 L1041.25977,367 L1041.25977,280.837891 Z M1041.42578,263.489258 C1039.65494,261.773754 1038.76953,259.69858 1038.76953,257.263672 C1038.76953,254.828764 1039.62727,252.753589 1041.34277,251.038086 C1043.05828,249.322583 1045.16112,248.464844 1047.65137,248.464844 C1050.14161,248.464844 1052.27213,249.322583 1054.04297,251.038086 C1055.81381,252.753589 1056.67155,254.828764 1056.61621,257.263672 C1056.61621,259.69858 1055.7308,261.801423 1053.95996,263.572266 C1052.18912,265.343108 1050.11394,266.200847 1047.73438,266.145508 C1045.29947,266.145508 1043.19662,265.2601 1041.42578,263.489258 Z M1073.21777,280.837891 L1082.76367,280.837891 L1082.76367,265.398438 L1094.7998,263.157227 L1095.62988,263.157227 L1095.62988,280.837891 L1119.53613,280.837891 L1119.53613,292.791016 L1095.62988,292.791016 L1095.62988,335.125 C1095.62988,342.429724 1097.01333,347.852847 1099.78027,351.394531 C1102.54721,354.936216 1106.36554,356.7347 1111.23535,356.790039 C1115.99449,356.790039 1121.36227,355.074561 1127.33887,351.643555 L1130.8252,363.430664 C1123.1331,366.91701 1115.66247,368.660156 1108.41309,368.660156 C1101.1637,368.660156 1095.07652,365.948595 1090.15137,360.525391 C1085.22621,355.102186 1082.76367,346.635474 1082.76367,335.125 L1082.76367,292.791016 L1073.21777,292.791016 L1073.21777,280.837891 Z M1175.06836,291.130859 C1168.59372,291.130859 1163.36428,293.399717 1159.37988,297.9375 C1155.39549,302.475283 1152.82227,308.34111 1151.66016,315.535156 L1192.16797,315.535156 C1192.00195,303.581971 1189.06904,296.056005 1183.36914,292.957031 C1181.10025,291.739577 1178.33335,291.130859 1175.06836,291.130859 Z M1204.78516,327.15625 L1151.0791,327.15625 C1151.68783,336.231816 1154.53773,343.425755 1159.62891,348.738281 C1164.72008,354.050808 1171.16695,356.707031 1178.96973,356.707031 C1186.7725,356.707031 1194.7135,354.659526 1202.79297,350.564453 L1203.04199,350.647461 L1203.04199,362.517578 C1194.68583,366.612651 1186.44047,368.660156 1178.30566,368.660156 C1165.79909,368.660156 1156.00427,364.565145 1148.9209,356.375 C1141.83753,348.184855 1138.2959,337.338609 1138.2959,323.835938 C1138.2959,310.388605 1141.33949,299.570028 1147.42676,291.379883 C1153.51403,283.245077 1162.75547,279.177734 1175.15137,279.177734 C1187.54726,279.177734 1196.06931,284.158153 1200.71777,294.119141 C1203.37404,299.819039 1204.72982,306.957639 1204.78516,315.535156 L1204.78516,327.15625 Z M1226.78223,280.837891 L1239.56543,280.837891 L1239.56543,367 L1226.78223,367 L1226.78223,280.837891 Z M1226.94824,263.489258 C1225.1774,261.773754 1224.29199,259.69858 1224.29199,257.263672 C1224.29199,254.828764 1225.14973,252.753589 1226.86523,251.038086 C1228.58074,249.322583 1230.68358,248.464844 1233.17383,248.464844 C1235.66407,248.464844 1237.79459,249.322583 1239.56543,251.038086 C1241.33627,252.753589 1242.19401,254.828764 1242.13867,257.263672 C1242.13867,259.69858 1241.25326,261.801423 1239.48242,263.572266 C1237.71158,265.343108 1235.63641,266.200847 1233.25684,266.145508 C1230.82193,266.145508 1228.71908,265.2601 1226.94824,263.489258 Z M1258.74023,280.837891 L1268.28613,280.837891 L1268.28613,265.398438 L1280.32227,263.157227 L1281.15234,263.157227 L1281.15234,280.837891 L1305.05859,280.837891 L1305.05859,292.791016 L1281.15234,292.791016 L1281.15234,335.125 C1281.15234,342.429724 1282.53579,347.852847 1285.30273,351.394531 C1288.06968,354.936216 1291.888,356.7347 1296.75781,356.790039 C1301.51695,356.790039 1306.88474,355.074561 1312.86133,351.643555 L1316.34766,363.430664 C1308.65556,366.91701 1301.18493,368.660156 1293.93555,368.660156 C1286.68616,368.660156 1280.59898,365.948595 1275.67383,360.525391 C1270.74867,355.102186 1268.28613,346.635474 1268.28613,335.125 L1268.28613,292.791016 L1258.74023,292.791016 L1258.74023,280.837891 Z M1410.39551,291.130859 C1403.92087,291.130859 1398.69143,293.399717 1394.70703,297.9375 C1390.72264,302.475283 1388.14942,308.34111 1386.9873,315.535156 L1427.49512,315.535156 C1427.3291,303.581971 1424.39619,296.056005 1418.69629,292.957031 C1416.4274,291.739577 1413.6605,291.130859 1410.39551,291.130859 Z M1440.1123,327.15625 L1386.40625,327.15625 C1387.01498,336.231816 1389.86488,343.425755 1394.95605,348.738281 C1400.04723,354.050808 1406.4941,356.707031 1414.29688,356.707031 C1422.09965,356.707031 1430.04065,354.659526 1438.12012,350.564453 L1438.36914,350.647461 L1438.36914,362.517578 C1430.01298,366.612651 1421.76762,368.660156 1413.63281,368.660156 C1401.12624,368.660156 1391.33142,364.565145 1384.24805,356.375 C1377.16468,348.184855 1373.62305,337.338609 1373.62305,323.835938 C1373.62305,310.388605 1376.66664,299.570028 1382.75391,291.379883 C1388.84118,283.245077 1398.08262,279.177734 1410.47852,279.177734 C1422.87441,279.177734 1431.39646,284.158153 1436.04492,294.119141 C1438.70119,299.819039 1440.05697,306.957639 1440.1123,315.535156 L1440.1123,327.15625 Z M1495.22949,291.047852 C1489.36358,291.047852 1481.78227,293.814751 1472.48535,299.348633 L1472.48535,367 L1459.61914,367 L1459.61914,280.837891 L1468.25195,280.837891 L1470.65918,288.806641 C1480.62017,282.387338 1489.66793,279.177734 1497.80273,279.177734 C1505.93754,279.177734 1512.82712,281.77862 1518.47168,286.980469 C1524.11624,292.182318 1526.93848,300.483016 1526.93848,311.882812 L1526.93848,367 L1514.07227,367 L1514.07227,312.629883 C1514.07227,298.24179 1507.7914,291.047852 1495.22949,291.047852 Z M659.506836,475.669922 C659.506836,485.188199 661.886369,493.073862 666.645508,499.327148 C671.459985,505.580435 678.072875,508.707031 686.484375,508.707031 C694.895875,508.707031 701.37042,505.71878 705.908203,499.742188 C710.445986,493.765595 712.742513,486.018277 712.797852,476.5 C712.797852,466.871046 710.501325,458.902375 705.908203,452.59375 C701.37042,446.285125 694.840537,443.130859 686.318359,443.130859 C677.796181,443.130859 671.210961,446.174449 666.5625,452.261719 C661.914039,458.348989 659.562175,466.151645 659.506836,475.669922 Z M725.664062,475.835938 C725.664062,488.453188 721.928748,499.078082 714.458008,507.710938 C706.987267,516.343793 697.469133,520.660156 685.90332,520.660156 C674.337507,520.660156 664.90238,516.371462 657.597656,507.793945 C650.292932,499.216428 646.640625,488.646873 646.640625,476.084961 C646.640625,463.523049 650.375939,452.898155 657.84668,444.209961 C665.31742,435.521766 674.863223,431.177734 686.484375,431.177734 C698.105527,431.177734 707.540654,435.494097 714.790039,444.126953 C722.039424,452.759809 725.664062,463.329365 725.664062,475.835938 Z M775.302734,508.873047 C784.046268,508.873047 791.184868,505.77412 796.71875,499.576172 C802.252632,493.378224 804.991862,485.326547 804.936523,475.420898 C804.881185,465.51525 802.695334,457.657256 798.378906,451.84668 C794.062478,446.036104 787.42192,443.130859 778.457031,443.130859 C769.492143,443.130859 762.823915,446.229787 758.452148,452.427734 L758.452148,505.552734 C763.820014,507.766287 769.43682,508.873047 775.302734,508.873047 Z M745.585938,432.837891 L754.21875,432.837891 L756.542969,440.308594 C763.626337,434.221324 771.650346,431.177734 780.615234,431.177734 C791.682998,431.177734 800.647752,435.355752 807.509766,443.711914 C814.371779,452.068076 817.802734,462.6653 817.802734,475.503906 C817.802734,488.342512 814.095089,499.078082 806.679688,507.710938 C799.264286,516.343793 788.501047,520.660156 774.389648,520.660156 C769.132461,520.660156 763.820014,520.079107 758.452148,518.916992 L758.452148,557.017578 L745.585938,557.017578 L745.585938,432.837891 Z M867.856445,443.130859 C861.381804,443.130859 856.152364,445.399717 852.167969,449.9375 C848.183574,454.475283 845.610357,460.34111 844.448242,467.535156 L884.956055,467.535156 C884.790038,455.581971 881.857125,448.056005 876.157227,444.957031 C873.888335,443.739577 871.121436,443.130859 867.856445,443.130859 Z M897.573242,479.15625 L843.867188,479.15625 C844.475915,488.231816 847.325821,495.425755 852.416992,500.738281 C857.508163,506.050808 863.955039,508.707031 871.757812,508.707031 C879.560586,508.707031 887.501587,506.659526 895.581055,502.564453 L895.830078,502.647461 L895.830078,514.517578 C887.473917,518.612651 879.228556,520.660156 871.09375,520.660156 C858.587177,520.660156 848.792353,516.565145 841.708984,508.375 C834.625616,500.184855 831.083984,489.338609 831.083984,475.835938 C831.083984,462.388605 834.127574,451.570028 840.214844,443.379883 C846.302114,435.245077 855.543558,431.177734 867.939453,431.177734 C880.335348,431.177734 888.857399,436.158153 893.505859,446.119141 C896.162123,451.819039 897.517903,458.957639 897.573242,467.535156 L897.573242,479.15625 Z M952.69043,443.047852 C946.824515,443.047852 939.243211,445.814751 929.946289,451.348633 L929.946289,519 L917.080078,519 L917.080078,432.837891 L925.712891,432.837891 L928.120117,440.806641 C938.081104,434.387338 947.128866,431.177734 955.263672,431.177734 C963.398478,431.177734 970.288058,433.77862 975.932617,438.980469 C981.577177,444.182318 984.399414,452.483016 984.399414,463.882812 L984.399414,519 L971.533203,519 L971.533203,464.629883 C971.533203,450.24179 965.252341,443.047852 952.69043,443.047852 Z M1039.84863,508.873047 C1048.97954,508.873047 1056.20115,505.691113 1061.51367,499.327148 C1066.8262,492.963184 1069.48242,484.856169 1069.48242,475.005859 C1069.48242,465.15555 1067.29657,457.408231 1062.9248,451.763672 C1058.60838,446.008435 1051.96782,443.130859 1043.00293,443.130859 C1034.03804,443.130859 1027.36981,446.257456 1022.99805,452.510742 L1022.99805,506.216797 C1027.48049,507.987639 1033.0973,508.873047 1039.84863,508.873047 Z M1022.99805,398.804688 L1022.99805,438.731445 C1029.58337,433.695613 1036.80497,431.177734 1044.66309,431.177734 C1052.5212,431.177734 1059.32777,433.197571 1065.08301,437.237305 C1070.83824,441.277038 1075.15461,446.617154 1078.03223,453.257812 C1080.90985,459.898471 1082.34863,467.286092 1082.34863,475.420898 C1082.34863,488.978909 1078.53031,499.908162 1070.89355,508.208984 C1063.2568,516.509807 1052.60424,520.660156 1038.93555,520.660156 C1029.58329,520.660156 1019.98215,518.612651 1010.13184,514.517578 L1010.13184,400.464844 L1022.16797,398.804688 L1022.99805,398.804688 Z M1122.3584,508.707031 C1138.07462,508.707031 1145.90495,501.817452 1145.84961,488.038086 L1145.84961,481.06543 C1141.75454,481.010091 1138.07456,480.982422 1134.80957,480.982422 C1122.08164,480.871744 1114.05763,482.697898 1110.7373,486.460938 C1109.07714,488.287119 1108.27474,491.109356 1108.33008,494.927734 C1108.33008,498.801452 1109.76887,502.066393 1112.64648,504.722656 C1115.57944,507.37892 1118.81671,508.707031 1122.3584,508.707031 Z M1123.60352,520.660156 C1116.29879,520.660156 1110.21161,518.91701 1105.3418,515.430664 C1098.86716,510.837542 1095.62988,503.947963 1095.62988,494.761719 C1095.62988,485.575475 1098.42445,478.990254 1104.01367,475.005859 C1109.60289,471.132142 1117.76525,469.195312 1128.50098,469.195312 C1132.43003,469.195312 1138.21285,469.52734 1145.84961,470.191406 L1145.84961,459.483398 C1145.79427,453.728161 1144.43849,449.550143 1141.78223,446.949219 C1139.12596,444.348294 1135.05862,443.047852 1129.58008,443.047852 C1120.44917,443.047852 1111.81645,445.095357 1103.68164,449.19043 L1100.36133,437.984375 C1106.72529,435.438789 1112.01007,433.667974 1116.21582,432.671875 C1120.42157,431.675776 1125.62334,431.177734 1131.82129,431.177734 C1149.69573,431.177734 1158.63281,440.612861 1158.63281,459.483398 L1158.63281,486.875977 C1158.68815,496.006882 1160.59731,502.177067 1164.36035,505.386719 C1166.02052,506.770189 1168.06802,507.84928 1170.50293,508.624023 L1163.19824,520.660156 C1157.49834,518.778636 1153.15431,514.766632 1150.16602,508.624023 C1143.19332,516.648152 1134.33925,520.660156 1123.60352,520.660156 Z M1187.10449,432.837891 L1195.7373,432.837891 L1198.72559,442.632812 C1205.31091,434.996056 1212.3665,431.177734 1219.89258,431.177734 C1224.98375,431.177734 1229.74282,432.173818 1234.16992,434.166016 L1229.6875,445.704102 C1226.03514,443.933259 1222.07847,443.047852 1217.81738,443.047852 C1210.95537,443.047852 1205.00654,446.893842 1199.9707,454.585938 L1199.9707,519 L1187.10449,519 L1187.10449,432.837891 Z M1279.6582,443.130859 C1273.18356,443.130859 1267.95412,445.399717 1263.96973,449.9375 C1259.98533,454.475283 1257.41212,460.34111 1256.25,467.535156 L1296.75781,467.535156 C1296.5918,455.581971 1293.65888,448.056005 1287.95898,444.957031 C1285.69009,443.739577 1282.92319,443.130859 1279.6582,443.130859 Z M1309.375,479.15625 L1255.66895,479.15625 C1256.27767,488.231816 1259.12758,495.425755 1264.21875,500.738281 C1269.30992,506.050808 1275.7568,508.707031 1283.55957,508.707031 C1291.36234,508.707031 1299.30335,506.659526 1307.38281,502.564453 L1307.63184,502.647461 L1307.63184,514.517578 C1299.27567,518.612651 1291.03031,520.660156 1282.89551,520.660156 C1270.38893,520.660156 1260.59411,516.565145 1253.51074,508.375 C1246.42737,500.184855 1242.88574,489.338609 1242.88574,475.835938 C1242.88574,462.388605 1245.92933,451.570028 1252.0166,443.379883 C1258.10387,435.245077 1267.34532,431.177734 1279.74121,431.177734 C1292.13711,431.177734 1300.65916,436.158153 1305.30762,446.119141 C1307.96388,451.819039 1309.31966,458.957639 1309.375,467.535156 L1309.375,479.15625 Z M1492.73926,432.837891 L1465.42969,519 L1449.49219,519 L1430.31738,453.423828 L1411.14258,519 L1395.12207,519 L1367.89551,432.837891 L1380.34668,432.837891 L1403.09082,504.805664 L1424.42383,432.837891 L1436.21094,432.837891 L1457.54395,504.805664 L1480.37109,432.837891 L1492.73926,432.837891 Z M1538.64258,443.130859 C1532.16794,443.130859 1526.9385,445.399717 1522.9541,449.9375 C1518.96971,454.475283 1516.39649,460.34111 1515.23438,467.535156 L1555.74219,467.535156 C1555.57617,455.581971 1552.64326,448.056005 1546.94336,444.957031 C1544.67447,443.739577 1541.90757,443.130859 1538.64258,443.130859 Z M1568.35938,479.15625 L1514.65332,479.15625 C1515.26205,488.231816 1518.11195,495.425755 1523.20312,500.738281 C1528.2943,506.050808 1534.74117,508.707031 1542.54395,508.707031 C1550.34672,508.707031 1558.28772,506.659526 1566.36719,502.564453 L1566.61621,502.647461 L1566.61621,514.517578 C1558.26005,518.612651 1550.01469,520.660156 1541.87988,520.660156 C1529.37331,520.660156 1519.57849,516.565145 1512.49512,508.375 C1505.41175,500.184855 1501.87012,489.338609 1501.87012,475.835938 C1501.87012,462.388605 1504.91371,451.570028 1511.00098,443.379883 C1517.08825,435.245077 1526.32969,431.177734 1538.72559,431.177734 C1551.12148,431.177734 1559.64353,436.158153 1564.29199,446.119141 C1566.94826,451.819039 1568.30404,458.957639 1568.35938,467.535156 L1568.35938,479.15625 Z M1587.86621,432.837891 L1596.49902,432.837891 L1599.4873,442.632812 C1606.07262,434.996056 1613.12822,431.177734 1620.6543,431.177734 C1625.74547,431.177734 1630.50454,432.173818 1634.93164,434.166016 L1630.44922,445.704102 C1626.79686,443.933259 1622.84019,443.047852 1618.5791,443.047852 C1611.71709,443.047852 1605.76825,446.893842 1600.73242,454.585938 L1600.73242,519 L1587.86621,519 L1587.86621,432.837891 Z M1663.1543,519 L1650.28809,519 L1650.28809,401.045898 L1662.32422,398.804688 L1663.1543,398.804688 L1663.1543,473.677734 L1697.35352,432.837891 L1713.78906,432.837891 L1678.75977,474.507812 C1679.20248,476.50001 1681.66502,480.124648 1686.14746,485.381836 C1690.68524,490.639024 1695.66566,495.619443 1701.08887,500.323242 C1706.51207,505.027042 1711.32648,508.015293 1715.53223,509.288086 L1710.21973,520.660156 C1706.17999,520.438801 1701.55927,518.280619 1696.35742,514.185547 C1691.15557,510.090474 1685.37275,504.418331 1679.00879,497.168945 C1672.64482,489.864221 1667.9411,483.58336 1664.89746,478.326172 C1663.90136,476.721346 1663.32031,475.697593 1663.1543,475.254883 L1663.1543,519 Z M1761.35254,443.130859 C1754.8779,443.130859 1749.64846,445.399717 1745.66406,449.9375 C1741.67967,454.475283 1739.10645,460.34111 1737.94434,467.535156 L1778.45215,467.535156 C1778.28613,455.581971 1775.35322,448.056005 1769.65332,444.957031 C1767.38443,443.739577 1764.61753,443.130859 1761.35254,443.130859 Z M1791.06934,479.15625 L1737.36328,479.15625 C1737.97201,488.231816 1740.82191,495.425755 1745.91309,500.738281 C1751.00426,506.050808 1757.45113,508.707031 1765.25391,508.707031 C1773.05668,508.707031 1780.99768,506.659526 1789.07715,502.564453 L1789.32617,502.647461 L1789.32617,514.517578 C1780.97001,518.612651 1772.72465,520.660156 1764.58984,520.660156 C1752.08327,520.660156 1742.28845,516.565145 1735.20508,508.375 C1728.12171,500.184855 1724.58008,489.338609 1724.58008,475.835938 C1724.58008,462.388605 1727.62367,451.570028 1733.71094,443.379883 C1739.79821,435.245077 1749.03965,431.177734 1761.43555,431.177734 C1773.83144,431.177734 1782.35349,436.158153 1787.00195,446.119141 C1789.65822,451.819039 1791.014,458.957639 1791.06934,467.535156 L1791.06934,479.15625 Z M1846.18652,443.047852 C1840.32061,443.047852 1832.7393,445.814751 1823.44238,451.348633 L1823.44238,519 L1810.57617,519 L1810.57617,432.837891 L1819.20898,432.837891 L1821.61621,440.806641 C1831.5772,434.387338 1840.62496,431.177734 1848.75977,431.177734 C1856.89457,431.177734 1863.78415,433.77862 1869.42871,438.980469 C1875.07327,444.182318 1877.89551,452.483016 1877.89551,463.882812 L1877.89551,519 L1865.0293,519 L1865.0293,464.629883 C1865.0293,450.24179 1858.74844,443.047852 1846.18652,443.047852 Z" id="Mobiliteit-en-openba"></path>
        </g>
    </g>
</svg>