<?xml version="1.0" encoding="utf-8"?>
<!-- Generator: Adobe Illustrator 23.0.4, SVG Export Plug-In . SVG Version: 6.00 Build 0)  -->
<svg version="1.1" id="vlaanderen-logo" xmlns="http://www.w3.org/2000/svg" xmlns:xlink="http://www.w3.org/1999/xlink" x="0px"
	 y="0px" viewBox="0 0 2213.7 825.5" style="enable-background:new 0 0 2213.7 825.5;" xml:space="preserve">
<style type="text/css">
	.st0{fill:#333333;}
</style>
<g>
	<title>vlaanderen-logo</title>
	<g>
		<path class="st0" d="M375.8,394.4c-20.7-15.7-30.5,0-43.5,0s-21.5-19.2-29.9-14.4c-16.3,8.2,6.5,38.3,16.5,43.5
			c7.3,4.2,14.9,7.9,22.6,11.3c11.6,5.4,19.1,16.9,19.2,29.7c0.6,4.8,0.6,9.6,0,14.4c-5.9,25.3-50.6,48.3-76.7,30.9
			c-14-8.4-23.7-22.3-26.8-38.3c-6.9-33.2-31.1-57.5-38.3-90.1c-4.8-19.2-8.2-40.6-13.4-60.4s-10.5-41.6-15-60.8
			c-4.8-20-10.9-39.7-18-59c-24.7-63.5-35.7-58.9-35.7-58.9s8.8,17.6,41.2,172.5c5.4,33.3,12.6,66.2,21.7,98.7
			c3.1,8.1,8.4,25.3,11.9,33c10.4,22.2,38.3,56,39.3,86.5c1,17.6,3.1,32.2,3.5,45.4c0.7,9.1,2.2,18.1,4.6,26.8
			c6.7,19.2,60.2,78.4,116.9,78.4v-46.2c-39.6-0.9-78.1-13-111-34.9c0.7-11.1,3-22.1,6.7-32.6c6.4-20.5,24.5-35.2,45.8-37.2
			c19.3,0.4,38.5,2.3,57.5,5.9V394.4H375.8z M130.6,228.8c-2.1,33.9-55,80.5-71.5,110.2c-9.4,17.1-16.4,35.4-20.9,54.4
			c-5.7,30.3-1.5,61.7,11.9,89.5c17.4,41.8-2.3,57.5,11.3,48.7c16.9-13.8,14.4-45.8,13-65.8c-1.7-18-1.7-36.1,0-54.1
			c7.6-37.1,23.4-72,46.2-102.2C136.3,285.7,140,255.9,130.6,228.8 M141.4,324.7c0,0,5.6,26.8-19.2,95.9
			c-62.5,181.2,57.5,198.2,90.9,240.8c0,0,13.2-19.2-41-76.7c-19.2-21.5-38.3-69-22-137.1c22.4-98.3-9.6-122.5-9.6-122.5
			 M23.1,206.6c-2.9-9.3-4.3-19-4-28.8c3.8-42.6,42.8-59.8,52.3-66.1c8.9-5.8,15.8-14.1,19.7-24c10.4,26,0.6,55.7-23.2,70.4
			C48.6,169.5,33,186.4,23.1,206.6 M121,165.3c2.1,4.4,19.2,27.8-47.5,81.9S28.3,340,28.3,340S-41.9,301.7,39,234
			s64.2-80.5,64.2-80.5c7.8,0.2,14.7,4.9,17.8,12.1 M206.5,186.2c11.3,1.5,19.2,36.8,45.1,44.5c19.2,5.6,39.9,2.5,44.5,14.2
			c-4.3,3.5-4.9,9.8-1.4,14c2.1,2.5,5.2,3.9,8.5,3.6c7.5-21.5,11.1-100.5-96.4-76.3H206.5z M242.2,202.7c0-2.5,2.3,0,5.2-2.3
			c3-3.9,6.9-7.1,11.3-9.2c3.9-1.3,8-1.3,11.9,0c2.3,0,0,6.3,0,7.7c0,1.3-14.2-1.7-14.2,6.1c0,12.8,17.4,0,26.5,0
			c4.4,31.4-47.5,22.8-39.9-3.1L242.2,202.7z"/>
		<g>
			
				<rect x="528.9" y="-24.2" transform="matrix(0.94 -0.3412 0.3412 0.94 -108.7272 207.261)" class="st0" width="12" height="873.8"/>
		</g>
	</g>
	<g>
		<path class="st0" d="M668.9,302.5h110.2v19.7h-89v59.9h89v19.7h-89v80.9h-21.2V302.5z"/>
		<path class="st0" d="M829,284.7v198h-21.2V287.4l19.8-2.7L829,284.7L829,284.7z"/>
		<path class="st0" d="M908,485.4c-12.1,0-22.2-2.9-30.2-8.6c-10.7-7.6-16.1-18.9-16.1-34s4.6-26,13.9-32.7
			c9.2-6.5,22.7-9.7,40.5-9.7c6.5,0,16,0.5,28.5,1.6v-17.5c-0.1-9.4-2.3-16.2-6.7-20.4c-4.4-4.2-11.1-6.4-20.1-6.4
			c-15,0-29.3,3.3-42.7,10l-5.5-18.4c10.5-4.2,19.2-7.2,26.2-8.8c6.9-1.7,15.5-2.5,25.7-2.5c29.5,0,44.2,15.5,44.2,46.5v45.2
			c0.1,15,3.2,25.2,9.4,30.5c2.7,2.3,6.1,4.1,10.1,5.3l-12,19.8c-9.4-3.1-16.6-9.7-21.6-19.8C940.2,478.8,925.7,485.4,908,485.4z
			 M905.9,465.7c25.8,0,38.7-11.3,38.6-34v-11.5c-6.7-0.1-12.8-0.1-18.1-0.1c-20.9-0.2-34.1,2.8-39.6,9c-2.7,3-4,7.7-4,13.9
			c0,6.4,2.4,11.8,7.1,16.1C894.8,463.5,900.1,465.7,905.9,465.7z"/>
		<path class="st0" d="M1071,357.7c-9.7,0-22.1,4.6-37.5,13.7v111.3h-21.2V340.8h14.2l4,13.2c16.4-10.6,31.3-16,44.7-16
			s24.7,4.3,34,12.9s13.9,22.2,13.9,41v90.8H1102v-89.5C1102,369.6,1091.7,357.7,1071,357.7z"/>
		<path class="st0" d="M1273.6,482.8h-13.4l-4.4-12.6c-11.8,10.1-25.1,15.2-39.9,15.2c-18.2,0-33-7.3-44.3-21.8
			c-11.3-14.6-17-32.4-17-53.5s6.1-38.4,18.2-52c12.1-13.4,29.9-20.1,53.3-20.1c7.7,0,16.5,1,26.2,2.9v-53.5l19.8-2.7h1.4v198.1
			H1273.6z M1224.7,357.7c-14.8,0-26.6,4.6-35.5,13.9s-13.4,22.1-13.3,38.5c-0.1,16.4,3.5,29.7,10.8,40.1s18.2,15.5,32.8,15.5
			c14.6,0,25.6-5.1,32.9-15.4v-87C1242.8,359.6,1233.5,357.7,1224.7,357.7z"/>
		<path class="st0" d="M1416.4,417.1h-88.5c1,14.9,5.7,26.8,14.1,35.5c8.4,8.8,19,13.1,31.9,13.1s25.9-3.4,39.2-10.1l0.4,0.1v19.6
			c-13.8,6.7-27.3,10.1-40.7,10.1c-20.6,0-36.7-6.8-48.4-20.3c-11.7-13.5-17.5-31.4-17.5-53.7c0-22.1,5-39.9,15-53.3
			s25.1-20.1,45.5-20.1s34.4,8.2,42.2,24.6c4.5,9.4,6.7,21.1,6.8,35.3V417.1z M1367,357.7c-10.7,0-19.3,3.7-25.8,11.1
			c-6.6,7.4-10.8,16.9-12.7,28.6h66.7c-0.3-19.4-5.1-31.6-14.5-36.7C1376.9,358.7,1372.4,357.7,1367,357.7z"/>
		<path class="st0" d="M1448.1,340.8h14.2l4.9,16.3c10.8-12.7,22.5-19,34.9-19c8.4,0,16.2,1.6,23.5,4.9l-7.4,19.1
			c-6-2.9-12.5-4.4-19.6-4.4c-11.3,0-21.1,6.3-29.4,19v106H1448L1448.1,340.8L1448.1,340.8z"/>
		<path class="st0" d="M1562,465.7c7.6-0.1,14-0.9,19.3-2.3c5.3-1.5,9.9-4,13.7-7.6c4-3.6,6-8.3,6-14.1c0-5.8-3.5-10.8-10.6-15.1
			c-2.9-1.8-8.6-4.4-17.2-7.9c-8.5-3.4-14.9-6.3-19-8.6c-14.6-7.7-21.9-19.1-21.9-34.1c0-8.8,2.3-16.1,6.9-21.9
			c8.3-10.6,22.2-16,41.6-16c9.7,0,19.3,1.4,28.8,4.1v19.7l-0.8,0.4c-11-3-21.4-4.5-31.2-4.5c-16,0-24,5.5-24,16.5
			c0,6.8,3.7,12.5,11,17.1c3.1,2.2,9.5,5.2,19.1,9s17.2,7.1,22.7,9.9s9.5,6.6,12,11.3s3.9,10.9,4,18.6c0,14.2-5.8,25.3-17.5,33.3
			c-11.6,8-24.1,12-37.6,12s-25.3-2.1-35.5-6.4v-19.7l0.8-0.7C1544.6,463.4,1554.4,465.7,1562,465.7z"/>
	</g>
</g>
</svg>
