<?xml version="1.0" encoding="UTF-8"?>
<svg width="92px" height="40px" viewBox="0 0 92 40" version="1.1" xmlns="http://www.w3.org/2000/svg" xmlns:xlink="http://www.w3.org/1999/xlink">
    <!-- Generator: Sketch 52.6 (67491) - http://www.bohemiancoding.com/sketch -->
    <title>logo-redpencil</title>
    <desc>Created with Sketch.</desc>
    <g id="logo-redpencil" stroke="none" stroke-width="1" fill="none" fill-rule="evenodd">
        <g transform="translate(0.000000, 11.000000)">
            <path d="M2.195,6.368 C2.48300144,5.81599724 2.82499802,5.38250157 3.221,5.0675 C3.61700198,4.75249842 4.0849973,4.595 4.625,4.595 C5.05100213,4.595 5.39299871,4.68799907 5.651,4.874 L5.507,6.539 C5.47699985,6.64700054 5.43350029,6.72349977 5.3765,6.7685 C5.31949972,6.81350022 5.24300048,6.836 5.147,6.836 C5.05699955,6.836 4.92350089,6.82100015 4.7465,6.791 C4.56949912,6.76099985 4.39700084,6.746 4.229,6.746 C3.98299877,6.746 3.76400096,6.78199964 3.572,6.854 C3.37999904,6.92600036 3.20750077,7.02949932 3.0545,7.1645 C2.90149924,7.29950067 2.76650059,7.46299904 2.6495,7.655 C2.53249942,7.84700096 2.42300051,8.06599877 2.321,8.312 L2.321,14 L0.098,14 L0.098,4.766 L1.403,4.766 C1.63100114,4.766 1.78999955,4.80649959 1.88,4.8875 C1.97000045,4.9685004 2.02999985,5.11399895 2.06,5.324 L2.195,6.368 Z M12.761,8.321 C12.761,8.03299856 12.7205004,7.76150127 12.6395,7.5065 C12.5584996,7.25149872 12.4370008,7.02800096 12.275,6.836 C12.1129992,6.64399904 11.9075012,6.49250055 11.6585,6.3815 C11.4094988,6.27049944 11.1200017,6.215 10.79,6.215 C10.1479968,6.215 9.64250185,6.39799817 9.2735,6.764 C8.90449816,7.13000183 8.66900051,7.64899664 8.567,8.321 L12.761,8.321 Z M8.522,9.662 C8.55800018,10.1360024 8.64199934,10.5454983 8.774,10.8905 C8.90600066,11.2355017 9.07999892,11.5204989 9.296,11.7455 C9.51200108,11.9705011 9.76849852,12.1384994 10.0655,12.2495 C10.3625015,12.3605006 10.6909982,12.416 11.051,12.416 C11.4110018,12.416 11.7214987,12.3740004 11.9825,12.29 C12.2435013,12.2059996 12.471499,12.1130005 12.6665,12.011 C12.861501,11.9089995 13.0324993,11.8160004 13.1795,11.732 C13.3265007,11.6479996 13.4689993,11.606 13.607,11.606 C13.7930009,11.606 13.9309996,11.6749993 14.021,11.813 L14.66,12.623 C14.4139988,12.9110014 14.1380015,13.152499 13.832,13.3475 C13.5259985,13.542501 13.2065017,13.6984994 12.8735,13.8155 C12.5404983,13.9325006 12.2015017,14.0149998 11.8565,14.063 C11.5114983,14.1110002 11.1770016,14.135 10.853,14.135 C10.2109968,14.135 9.61400276,14.0285011 9.062,13.8155 C8.50999724,13.6024989 8.03000204,13.2875021 7.622,12.8705 C7.21399796,12.4534979 6.89300117,11.9375031 6.659,11.3225 C6.42499883,10.7074969 6.308,9.99500405 6.308,9.185 C6.308,8.55499685 6.40999898,7.96250277 6.614,7.4075 C6.81800102,6.85249722 7.1104981,6.36950205 7.4915,5.9585 C7.87250191,5.54749794 8.33749726,5.2220012 8.8865,4.982 C9.43550275,4.7419988 10.0549966,4.622 10.745,4.622 C11.3270029,4.622 11.8639975,4.71499907 12.356,4.901 C12.8480025,5.08700093 13.2709982,5.35849821 13.625,5.7155 C13.9790018,6.07250178 14.256499,6.5104974 14.4575,7.0295 C14.658501,7.54850259 14.759,8.14099667 14.759,8.807 C14.759,9.14300168 14.7230004,9.36949941 14.651,9.4865 C14.5789996,9.60350058 14.441001,9.662 14.237,9.662 L8.522,9.662 Z M22.22,7.124 C21.9679987,6.81799847 21.6935015,6.60200063 21.3965,6.476 C21.0994985,6.34999937 20.7800017,6.287 20.438,6.287 C20.1019983,6.287 19.7990014,6.34999937 19.529,6.476 C19.2589987,6.60200063 19.028001,6.79249872 18.836,7.0475 C18.643999,7.30250127 18.4970005,7.62649803 18.395,8.0195 C18.2929995,8.41250196 18.242,8.87599733 18.242,9.41 C18.242,9.9500027 18.2854996,10.4074981 18.3725,10.7825 C18.4595004,11.1575019 18.5839992,11.4634988 18.746,11.7005 C18.9080008,11.9375012 19.1059988,12.1084995 19.34,12.2135 C19.5740012,12.3185005 19.8349986,12.371 20.123,12.371 C20.5850023,12.371 20.9779984,12.275001 21.302,12.083 C21.6260016,11.890999 21.9319986,11.6180018 22.22,11.264 L22.22,7.124 Z M24.443,0.626 L24.443,14 L23.084,14 C22.7899985,14 22.6040004,13.8650013 22.526,13.595 L22.337,12.704 C21.9649981,13.1300021 21.5375024,13.4749987 21.0545,13.739 C20.5714976,14.0030013 20.0090032,14.135 19.367,14.135 C18.8629975,14.135 18.4010021,14.030001 17.981,13.82 C17.5609979,13.6099989 17.1995015,13.305502 16.8965,12.9065 C16.5934985,12.507498 16.3595008,12.0140029 16.1945,11.426 C16.0294992,10.8379971 15.947,10.1660038 15.947,9.41 C15.947,8.72599658 16.0399991,8.09000294 16.226,7.502 C16.4120009,6.91399706 16.6789983,6.40400216 17.027,5.972 C17.3750017,5.53999784 17.7919976,5.20250121 18.278,4.9595 C18.7640024,4.71649878 19.309997,4.595 19.916,4.595 C20.4320026,4.595 20.8729982,4.67599919 21.239,4.838 C21.6050018,5.00000081 21.9319986,5.21899862 22.22,5.495 L22.22,0.626 L24.443,0.626 Z M28.862,11.606 C29.1140013,11.9120015 29.3884985,12.1279994 29.6855,12.254 C29.9825015,12.3800006 30.3049983,12.443 30.653,12.443 C30.9890017,12.443 31.2919987,12.3800006 31.562,12.254 C31.8320014,12.1279994 32.0614991,11.9360013 32.2505,11.678 C32.4395009,11.4199987 32.5849995,11.094502 32.687,10.7015 C32.7890005,10.308498 32.84,9.84500267 32.84,9.311 C32.84,8.7709973 32.7965004,8.31350187 32.7095,7.9385 C32.6224996,7.56349812 32.4980008,7.25900117 32.336,7.025 C32.1739992,6.79099883 31.9775012,6.62000054 31.7465,6.512 C31.5154988,6.40399946 31.2530015,6.35 30.959,6.35 C30.4969977,6.35 30.1040016,6.44749902 29.78,6.6425 C29.4559984,6.83750097 29.1500014,7.11199823 28.862,7.466 L28.862,11.606 Z M28.745,6.026 C29.1230019,5.59999787 29.5519976,5.25500132 30.032,4.991 C30.5120024,4.72699868 31.0759968,4.595 31.724,4.595 C32.2280025,4.595 32.6884979,4.69999895 33.1055,4.91 C33.5225021,5.12000105 33.8824985,5.424498 34.1855,5.8235 C34.4885015,6.22250199 34.7224992,6.71449707 34.8875,7.2995 C35.0525008,7.88450292 35.135,8.55499622 35.135,9.311 C35.135,10.0010034 35.0420009,10.6399971 34.856,11.228 C34.6699991,11.8160029 34.4045017,12.3259978 34.0595,12.758 C33.7144983,13.1900022 33.2975024,13.5274988 32.8085,13.7705 C32.3194976,14.0135012 31.772003,14.135 31.166,14.135 C30.6499974,14.135 30.2090018,14.0555008 29.843,13.8965 C29.4769982,13.7374992 29.1500014,13.5170014 28.862,13.235 L28.862,17.015 L26.639,17.015 L26.639,4.766 L27.998,4.766 C28.2860014,4.766 28.4749996,4.90099865 28.565,5.171 L28.745,6.026 Z M42.812,8.321 C42.812,8.03299856 42.7715004,7.76150127 42.6905,7.5065 C42.6094996,7.25149872 42.4880008,7.02800096 42.326,6.836 C42.1639992,6.64399904 41.9585012,6.49250055 41.7095,6.3815 C41.4604988,6.27049944 41.1710017,6.215 40.841,6.215 C40.1989968,6.215 39.6935018,6.39799817 39.3245,6.764 C38.9554982,7.13000183 38.7200005,7.64899664 38.618,8.321 L42.812,8.321 Z M38.573,9.662 C38.6090002,10.1360024 38.6929993,10.5454983 38.825,10.8905 C38.9570007,11.2355017 39.1309989,11.5204989 39.347,11.7455 C39.5630011,11.9705011 39.8194985,12.1384994 40.1165,12.2495 C40.4135015,12.3605006 40.7419982,12.416 41.102,12.416 C41.4620018,12.416 41.7724987,12.3740004 42.0335,12.29 C42.2945013,12.2059996 42.522499,12.1130005 42.7175,12.011 C42.912501,11.9089995 43.0834993,11.8160004 43.2305,11.732 C43.3775007,11.6479996 43.5199993,11.606 43.658,11.606 C43.8440009,11.606 43.9819996,11.6749993 44.072,11.813 L44.711,12.623 C44.4649988,12.9110014 44.1890015,13.152499 43.883,13.3475 C43.5769985,13.542501 43.2575017,13.6984994 42.9245,13.8155 C42.5914983,13.9325006 42.2525017,14.0149998 41.9075,14.063 C41.5624983,14.1110002 41.2280016,14.135 40.904,14.135 C40.2619968,14.135 39.6650028,14.0285011 39.113,13.8155 C38.5609972,13.6024989 38.081002,13.2875021 37.673,12.8705 C37.264998,12.4534979 36.9440012,11.9375031 36.71,11.3225 C36.4759988,10.7074969 36.359,9.99500405 36.359,9.185 C36.359,8.55499685 36.460999,7.96250277 36.665,7.4075 C36.869001,6.85249722 37.1614981,6.36950205 37.5425,5.9585 C37.9235019,5.54749794 38.3884973,5.2220012 38.9375,4.982 C39.4865027,4.7419988 40.1059966,4.622 40.796,4.622 C41.3780029,4.622 41.9149975,4.71499907 42.407,4.901 C42.8990025,5.08700093 43.3219982,5.35849821 43.676,5.7155 C44.0300018,6.07250178 44.307499,6.5104974 44.5085,7.0295 C44.709501,7.54850259 44.81,8.14099667 44.81,8.807 C44.81,9.14300168 44.7740004,9.36949941 44.702,9.4865 C44.6299996,9.60350058 44.492001,9.662 44.288,9.662 L38.573,9.662 Z M48.554,5.9 C48.7400009,5.71399907 48.936499,5.54150079 49.1435,5.3825 C49.350501,5.2234992 49.5694988,5.08850055 49.8005,4.9775 C50.0315012,4.86649944 50.2789987,4.77950031 50.543,4.7165 C50.8070013,4.65349968 51.0949984,4.622 51.407,4.622 C51.9110025,4.622 52.3579981,4.70749914 52.748,4.8785 C53.138002,5.04950085 53.4634987,5.28949845 53.7245,5.5985 C53.9855013,5.90750154 54.1834993,6.27649785 54.3185,6.7055 C54.4535007,7.13450214 54.521,7.60699742 54.521,8.123 L54.521,14 L52.298,14 L52.298,8.123 C52.298,7.55899718 52.1690013,7.12250154 51.911,6.8135 C51.6529987,6.50449845 51.2600026,6.35 50.732,6.35 C50.3479981,6.35 49.9880017,6.43699913 49.652,6.611 C49.3159983,6.78500087 48.9980015,7.0219985 48.698,7.322 L48.698,14 L46.475,14 L46.475,4.766 L47.834,4.766 C48.1220014,4.766 48.3109996,4.90099865 48.401,5.171 L48.554,5.9 Z M63.242,6.719 C63.1759997,6.80300042 63.1115003,6.86899976 63.0485,6.917 C62.9854997,6.96500024 62.8940006,6.989 62.774,6.989 C62.6599994,6.989 62.5490005,6.95450034 62.441,6.8855 C62.3329995,6.81649965 62.2040008,6.73850043 62.054,6.6515 C61.9039993,6.56449956 61.725501,6.48650034 61.5185,6.4175 C61.311499,6.34849965 61.0550015,6.314 60.749,6.314 C60.3589981,6.314 60.0170015,6.38449929 59.723,6.5255 C59.4289985,6.6665007 59.184501,6.86899868 58.9895,7.133 C58.794499,7.39700132 58.6490005,7.71649812 58.553,8.0915 C58.4569995,8.46650187 58.409,8.89099763 58.409,9.365 C58.409,9.85700246 58.4614995,10.2949981 58.5665,10.679 C58.6715005,11.0630019 58.822999,11.3854987 59.021,11.6465 C59.219001,11.9075013 59.4589986,12.1054993 59.741,12.2405 C60.0230014,12.3755007 60.3409982,12.443 60.695,12.443 C61.0490018,12.443 61.3354989,12.3995004 61.5545,12.3125 C61.7735011,12.2254996 61.9579993,12.1295005 62.108,12.0245 C62.2580008,11.9194995 62.3884994,11.8235004 62.4995,11.7365 C62.6105006,11.6494996 62.7349993,11.606 62.873,11.606 C63.0530009,11.606 63.1879996,11.6749993 63.278,11.813 L63.917,12.623 C63.6709988,12.9110014 63.4040014,13.152499 63.116,13.3475 C62.8279986,13.542501 62.5295015,13.6984994 62.2205,13.8155 C61.9114985,13.9325006 61.5935016,14.0149998 61.2665,14.063 C60.9394984,14.1110002 60.6140016,14.135 60.29,14.135 C59.7199972,14.135 59.1830025,14.0285011 58.679,13.8155 C58.1749975,13.6024989 57.7340019,13.292002 57.356,12.884 C56.9779981,12.475998 56.6795011,11.976503 56.4605,11.3855 C56.2414989,10.794497 56.132,10.1210038 56.132,9.365 C56.132,8.68699661 56.229499,8.05850289 56.4245,7.4795 C56.619501,6.9004971 56.9059981,6.39950211 57.284,5.9765 C57.6620019,5.55349788 58.1299972,5.2220012 58.688,4.982 C59.2460028,4.7419988 59.8879964,4.622 60.614,4.622 C61.3040035,4.622 61.9084974,4.73299889 62.4275,4.955 C62.9465026,5.17700111 63.4129979,5.49499793 63.827,5.909 L63.242,6.719 Z M67.607,4.766 L67.607,14 L65.375,14 L65.375,4.766 L67.607,4.766 Z M67.913,2.075 C67.913,2.26700096 67.8740004,2.44699916 67.796,2.615 C67.7179996,2.78300084 67.6145006,2.92999937 67.4855,3.056 C67.3564994,3.18200063 67.2050009,3.28249962 67.031,3.3575 C66.8569991,3.43250037 66.671001,3.47 66.473,3.47 C66.280999,3.47 66.0995009,3.43250037 65.9285,3.3575 C65.7574991,3.28249962 65.6090006,3.18200063 65.483,3.056 C65.3569994,2.92999937 65.2565004,2.78300084 65.1815,2.615 C65.1064996,2.44699916 65.069,2.26700096 65.069,2.075 C65.069,1.87699901 65.1064996,1.69100087 65.1815,1.517 C65.2565004,1.34299913 65.3569994,1.19300063 65.483,1.067 C65.6090006,0.94099937 65.7574991,0.840500375 65.9285,0.7655 C66.0995009,0.690499625 66.280999,0.653 66.473,0.653 C66.671001,0.653 66.8569991,0.690499625 67.031,0.7655 C67.2050009,0.840500375 67.3564994,0.94099937 67.4855,1.067 C67.6145006,1.19300063 67.7179996,1.34299913 67.796,1.517 C67.8740004,1.69100087 67.913,1.87699901 67.913,2.075 Z M72.125,0.626 L72.125,14 L69.902,14 L69.902,0.626 L72.125,0.626 Z M80.927,4.766 L80.927,14 L78.695,14 L78.695,4.766 L80.927,4.766 Z M81.233,2.075 C81.233,2.26700096 81.1940004,2.44699916 81.116,2.615 C81.0379996,2.78300084 80.9345006,2.92999937 80.8055,3.056 C80.6764994,3.18200063 80.5250009,3.28249962 80.351,3.3575 C80.1769991,3.43250037 79.991001,3.47 79.793,3.47 C79.600999,3.47 79.4195009,3.43250037 79.2485,3.3575 C79.0774991,3.28249962 78.9290006,3.18200063 78.803,3.056 C78.6769994,2.92999937 78.5765004,2.78300084 78.5015,2.615 C78.4264996,2.44699916 78.389,2.26700096 78.389,2.075 C78.389,1.87699901 78.4264996,1.69100087 78.5015,1.517 C78.5765004,1.34299913 78.6769994,1.19300063 78.803,1.067 C78.9290006,0.94099937 79.0774991,0.840500375 79.2485,0.7655 C79.4195009,0.690499625 79.600999,0.653 79.793,0.653 C79.991001,0.653 80.1769991,0.690499625 80.351,0.7655 C80.5250009,0.840500375 80.6764994,0.94099937 80.8055,1.067 C80.9345006,1.19300063 81.0379996,1.34299913 81.116,1.517 C81.1940004,1.69100087 81.233,1.87699901 81.233,2.075 Z M87.281,4.622 C87.9650034,4.622 88.5874972,4.73299889 89.1485,4.955 C89.7095028,5.17700111 90.189498,5.49199796 90.5885,5.9 C90.987502,6.30800204 91.2949989,6.80599706 91.511,7.394 C91.7270011,7.98200294 91.835,8.63899637 91.835,9.365 C91.835,10.0970037 91.7270011,10.7569971 91.511,11.345 C91.2949989,11.9330029 90.987502,12.4339979 90.5885,12.848 C90.189498,13.2620021 89.7095028,13.5799989 89.1485,13.802 C88.5874972,14.0240011 87.9650034,14.135 87.281,14.135 C86.5909966,14.135 85.9640028,14.0240011 85.4,13.802 C84.8359972,13.5799989 84.354502,13.2620021 83.9555,12.848 C83.556498,12.4339979 83.2475011,11.9330029 83.0285,11.345 C82.8094989,10.7569971 82.7,10.0970037 82.7,9.365 C82.7,8.63899637 82.8094989,7.98200294 83.0285,7.394 C83.2475011,6.80599706 83.556498,6.30800204 83.9555,5.9 C84.354502,5.49199796 84.8359972,5.17700111 85.4,4.955 C85.9640028,4.73299889 86.5909966,4.622 87.281,4.622 Z M87.281,12.425 C88.0490038,12.425 88.6174982,12.1670026 88.9865,11.651 C89.3555018,11.1349974 89.54,10.379005 89.54,9.383 C89.54,8.38699502 89.3555018,7.62800261 88.9865,7.106 C88.6174982,6.58399739 88.0490038,6.323 87.281,6.323 C86.5009961,6.323 85.9235019,6.58549737 85.5485,7.1105 C85.1734981,7.63550262 84.986,8.39299505 84.986,9.383 C84.986,10.3730049 85.1734981,11.1274974 85.5485,11.6465 C85.9235019,12.1655026 86.5009961,12.425 87.281,12.425 Z" id="word" fill="#333333"></path>
            <path d="M74.024,12.776 C74.024,12.5899991 74.0584997,12.4130008 74.1275,12.245 C74.1965003,12.0769992 74.2909994,11.9330006 74.411,11.813 C74.5310006,11.6929994 74.6749992,11.5970004 74.843,11.525 C75.0110008,11.4529996 75.190999,11.417 75.383,11.417 C75.575001,11.417 75.7534992,11.4529996 75.9185,11.525 C76.0835008,11.5970004 76.2274994,11.6929994 76.3505,11.813 C76.4735006,11.9330006 76.5709996,12.0769992 76.643,12.245 C76.7150004,12.4130008 76.751,12.5899991 76.751,12.776 C76.751,12.968001 76.7150004,13.1464992 76.643,13.3115 C76.5709996,13.4765008 76.4735006,13.6189994 76.3505,13.739 C76.2274994,13.8590006 76.0835008,13.9534997 75.9185,14.0225 C75.7534992,14.0915003 75.575001,14.126 75.383,14.126 C75.190999,14.126 75.0110008,14.0915003 74.843,14.0225 C74.6749992,13.9534997 74.5310006,13.8590006 74.411,13.739 C74.2909994,13.6189994 74.1965003,13.4765008 74.1275,13.3115 C74.0584997,13.1464992 74.024,12.968001 74.024,12.776 Z" id="dot" fill="#C90813"></path>
        </g>
    </g>
</svg>