<?xml version="1.0" encoding="UTF-8"?>
<svg width="1854px" height="826px" viewBox="0 0 1854 826" version="1.1" xmlns="http://www.w3.org/2000/svg" xmlns:xlink="http://www.w3.org/1999/xlink">
    <!-- Generator: Sketch 52.6 (67491) - http://www.bohemiancoding.com/sketch -->
    <title>logo-flanders</title>
    <desc>Created with Sketch.</desc>
    <g id="Page-1" stroke="none" stroke-width="1" fill="none" fill-rule="evenodd">
        <g id="logo-flanders" fill="#333333">
            <path d="M375.8,394.4 C355.1,378.7 345.3,394.4 332.3,394.4 C319.3,394.4 310.8,375.2 302.4,380 C286.1,388.2 308.9,418.3 318.9,423.5 C326.2,427.7 333.8,431.4 341.5,434.8 C353.1,440.2 360.6,451.7 360.7,464.5 C361.3,469.3 361.3,474.1 360.7,478.9 C354.8,504.2 310.1,527.2 284,509.8 C270,501.4 260.3,487.5 257.2,471.5 C250.3,438.3 226.1,414 218.9,381.4 C214.1,362.2 210.7,340.8 205.5,321 C200.3,301.2 195,279.4 190.5,260.2 C185.7,240.2 179.6,220.5 172.5,201.2 C147.8,137.7 136.8,142.3 136.8,142.3 C136.8,142.3 145.6,159.9 178,314.8 C183.4,348.1 190.6,381 199.7,413.5 C202.8,421.6 208.1,438.8 211.6,446.5 C222,468.7 249.9,502.5 250.9,533 C251.9,550.6 254,565.2 254.4,578.4 C255.1,587.5 256.6,596.5 259,605.2 C265.7,624.4 319.2,683.6 375.9,683.6 L375.9,637.4 C336.3,636.5 297.8,624.4 264.9,602.5 C265.6,591.4 267.9,580.4 271.6,569.9 C278,549.4 296.1,534.7 317.4,532.7 C336.7,533.1 355.9,535 374.9,538.6 L374.9,394.4 L375.8,394.4 Z M130.6,228.8 C128.5,262.7 75.6,309.3 59.1,339 C49.7,356.1 42.7,374.4 38.2,393.4 C32.5,423.7 36.7,455.1 50.1,482.9 C67.5,524.7 47.8,540.4 61.4,531.6 C78.3,517.8 75.8,485.8 74.4,465.8 C72.7,447.8 72.7,429.7 74.4,411.7 C82,374.6 97.8,339.7 120.6,309.5 C136.3,285.7 140,255.9 130.6,228.8 Z M141.4,324.7 C141.4,324.7 147,351.5 122.2,420.6 C59.7,601.8 179.7,618.8 213.1,661.4 C213.1,661.4 226.3,642.2 172.1,584.7 C152.9,563.2 133.8,515.7 150.1,447.6 C172.5,349.3 140.5,325.1 140.5,325.1 L141.4,324.7 Z M23.1,206.6 C20.2,197.3 18.8,187.6 19.1,177.8 C22.9,135.2 61.9,118 71.4,111.7 C80.3,105.9 87.2,97.6 91.1,87.7 C101.5,113.7 91.7,143.4 67.9,158.1 C48.6,169.5 33,186.4 23.1,206.6 Z M121,165.3 C123.1,169.7 140.2,193.1 73.5,247.2 C6.8,301.3 28.3,340 28.3,340 C28.3,340 -41.9,301.7 39,234 C119.9,166.3 103.2,153.5 103.2,153.5 C111,153.7 117.9,158.4 121,165.6 L121,165.3 Z M206.5,186.2 C217.8,187.7 225.7,223 251.6,230.7 C270.8,236.3 291.5,233.2 296.1,244.9 C291.8,248.4 291.2,254.7 294.7,258.9 C296.8,261.4 299.9,262.8 303.2,262.5 C310.7,241 314.3,162 206.8,186.2 L206.5,186.2 Z M242.2,202.7 C242.2,200.2 244.5,202.7 247.4,200.4 C250.4,196.5 254.3,193.3 258.7,191.2 C262.6,189.9 266.7,189.9 270.6,191.2 C272.9,191.2 270.6,197.5 270.6,198.9 C270.6,200.2 256.4,197.2 256.4,205 C256.4,217.8 273.8,205 282.9,205 C287.3,236.4 235.4,227.8 243,201.9 L242.2,202.7 Z" id="Shape" fill-rule="nonzero"></path>
            <rect id="Rectangle" transform="translate(535.000052, 412.903810) rotate(-19.949820) translate(-535.000052, -412.903810) " x="529" y="-24" width="12.0001046" height="873.80762"></rect>
            <path d="M767.515625,197.910156 L822.34375,197.910156 L794.929688,118.5 L767.515625,197.910156 Z M827.894531,214.222656 L761.964844,214.222656 L749.957031,249 L731.832031,249 L783.148438,99.6953125 L806.597656,99.6953125 L858.027344,249 L839.902344,249 L827.894531,214.222656 Z M886.007812,264.066406 C886.007812,279.925861 895.523342,287.855469 914.554688,287.855469 C925.731827,287.855469 935.247357,284.872426 943.101562,278.90625 C950.955768,272.940074 954.882812,266.105507 954.882812,258.402344 C954.882812,250.69918 950.464888,245.375015 941.628906,242.429688 C935.360646,240.466136 924.712315,239.484375 909.683594,239.484375 L896.429688,239.484375 C889.481736,247.414102 886.007812,255.608031 886.007812,264.066406 Z M934.492188,152.371094 C929.65883,147.311173 923.164103,144.78125 915.007812,144.78125 C906.851522,144.78125 900.356795,147.273413 895.523438,152.257812 C890.69008,157.242212 888.273438,162.906218 888.273438,169.25 C888.273438,175.593782 890.69008,181.295548 895.523438,186.355469 C900.356795,191.339869 906.927042,193.832031 915.234375,193.832031 C923.541708,193.832031 929.998675,191.415389 934.605469,186.582031 C939.287784,181.824195 941.628906,176.197949 941.628906,169.703125 C941.628906,163.208301 939.250024,157.431015 934.492188,152.371094 Z M925.316406,224.417969 C940.949297,224.417969 952.768189,227.589812 960.773438,233.933594 C968.778686,240.277375 972.78125,248.131464 972.78125,257.496094 C972.78125,269.957094 966.513084,280.680945 953.976562,289.667969 C941.440041,298.654993 928.072988,303.148438 913.875,303.148438 C899.677012,303.148438 888.613321,299.598994 880.683594,292.5 C872.753867,285.401006 868.789062,276.451877 868.789062,265.652344 C868.789062,260.743465 869.997384,255.64586 872.414062,250.359375 C874.830741,245.07289 878.304665,240.201845 882.835938,235.746094 C879.815089,234.009106 877.473967,231.252623 875.8125,227.476562 C874.151033,223.700502 873.282552,220.151058 873.207031,216.828125 C873.207031,210.182258 876.039034,203.347691 881.703125,196.324219 C878.531234,193.076807 876.114592,188.847682 874.453125,183.636719 C872.791658,178.425755 871.960938,173.32815 871.960938,168.34375 C871.960938,157.015568 876.039022,147.651079 884.195312,140.25 C892.351603,132.848921 902.773374,129.148438 915.460938,129.148438 C924.070356,129.148438 931.660123,130.960919 938.230469,134.585938 C943.139347,130.885398 948.312473,127.977875 953.75,125.863281 C959.187527,123.748687 964.020812,122.691406 968.25,122.691406 L973.460938,137.53125 C965.682253,138.815111 958.319045,141.647114 951.371094,146.027344 C955.902366,152.522168 958.167969,159.809855 958.167969,167.890625 C958.167969,179.218807 954.014364,188.960897 945.707031,197.117188 C937.399698,205.273478 926.940167,209.351562 914.328125,209.351562 C906.776004,209.351562 899.526076,207.652361 892.578125,204.253906 C889.934883,207.57684 888.613281,210.786443 888.613281,213.882812 C888.613281,216.979182 889.897123,219.509105 892.464844,221.472656 C895.032565,223.436208 898.582009,224.417969 903.113281,224.417969 L925.316406,224.417969 Z M1037.23828,145.460938 C1028.4023,145.460938 1021.26565,148.557261 1015.82812,154.75 C1010.3906,160.942739 1006.87891,168.947868 1005.29297,178.765625 L1060.57422,178.765625 C1060.34766,162.453043 1056.34509,152.182313 1048.56641,147.953125 C1045.47004,146.291658 1041.69403,145.460938 1037.23828,145.460938 Z M1077.79297,194.625 L1004.5,194.625 C1005.33073,207.010479 1009.22002,216.828089 1016.16797,224.078125 C1023.11592,231.328161 1031.91401,234.953125 1042.5625,234.953125 C1053.21099,234.953125 1064.04812,232.158882 1075.07422,226.570312 L1075.41406,226.683594 L1075.41406,242.882812 C1064.01036,248.471382 1052.75787,251.265625 1041.65625,251.265625 C1024.58846,251.265625 1011.2214,245.677139 1001.55469,234.5 C991.887972,223.322861 987.054688,208.520925 987.054688,190.09375 C987.054688,171.742096 991.208292,156.97792 999.515625,145.800781 C1007.82296,134.699163 1020.43481,129.148438 1037.35156,129.148438 C1054.26831,129.148438 1065.89841,135.945245 1072.24219,149.539062 C1075.86721,157.317747 1077.71745,167.059837 1077.79297,178.765625 L1077.79297,194.625 Z M1153.01172,145.347656 C1145.00647,145.347656 1134.66022,149.12366 1121.97266,156.675781 L1121.97266,249 L1104.41406,249 L1104.41406,131.414062 L1116.19531,131.414062 L1119.48047,142.289062 C1133.07429,133.528602 1145.42182,129.148438 1156.52344,129.148438 C1167.62506,129.148438 1177.02731,132.697881 1184.73047,139.796875 C1192.43363,146.895869 1196.28516,158.223881 1196.28516,173.78125 L1196.28516,249 L1178.72656,249 L1178.72656,174.800781 C1178.72656,155.165266 1170.15503,145.347656 1153.01172,145.347656 Z M1217.80859,131.414062 L1230.83594,131.414062 L1230.83594,110.34375 L1247.26172,107.285156 L1248.39453,107.285156 L1248.39453,131.414062 L1281.01953,131.414062 L1281.01953,147.726562 L1248.39453,147.726562 L1248.39453,205.5 C1248.39453,215.4688 1250.28253,222.869767 1254.05859,227.703125 C1257.83465,232.536483 1263.04554,234.990885 1269.69141,235.066406 C1276.18623,235.066406 1283.51168,232.725284 1291.66797,228.042969 L1296.42578,244.128906 C1285.92833,248.886743 1275.73312,251.265625 1265.83984,251.265625 C1255.94657,251.265625 1247.63936,247.565141 1240.91797,240.164062 C1234.19658,232.762984 1230.83594,221.208412 1230.83594,205.5 L1230.83594,147.726562 L1217.80859,147.726562 L1217.80859,131.414062 Z M1331.65625,234.839844 C1337.92451,234.764323 1343.24868,234.122402 1347.62891,232.914062 C1352.00914,231.705723 1355.78514,229.591161 1358.95703,226.570312 C1362.27996,223.549464 1363.94141,219.62242 1363.94141,214.789062 C1363.94141,209.955705 1360.99612,205.764341 1355.10547,202.214844 C1352.68879,200.70442 1347.93103,198.514337 1340.83203,195.644531 C1333.73304,192.774725 1328.48439,190.395843 1325.08594,188.507812 C1313.07806,182.08851 1307.07422,172.61074 1307.07422,160.074219 C1307.07422,152.899704 1308.96222,146.933618 1312.73828,142.175781 C1319.61071,133.490842 1331.052,129.148438 1347.0625,129.148438 C1355.14327,129.148438 1363.11064,130.243479 1370.96484,132.433594 L1370.96484,148.292969 L1370.28516,148.632812 C1361.14709,146.140613 1352.50004,144.894531 1344.34375,144.894531 C1331.05202,144.894531 1324.40625,149.463496 1324.40625,158.601562 C1324.40625,164.265653 1327.46481,169.023418 1333.58203,172.875 C1336.14975,174.687509 1341.43616,177.179672 1349.44141,180.351562 C1357.44665,183.523453 1363.71482,186.279936 1368.24609,188.621094 C1372.77737,190.962251 1376.10025,194.096335 1378.21484,198.023438 C1380.32944,201.95054 1381.42448,207.123666 1381.5,213.542969 C1381.5,225.399799 1376.66671,234.651008 1367,241.296875 C1357.40881,247.942742 1347.0248,251.265625 1335.84766,251.265625 C1324.67052,251.265625 1314.92843,249.490903 1306.62109,245.941406 L1306.62109,229.515625 L1307.30078,228.949219 C1317.26958,232.876322 1325.38799,234.839844 1331.65625,234.839844 Z M1454.22656,251.265625 C1438.74471,251.265625 1426.13286,246.43234 1416.39062,236.765625 C1405.21349,225.739528 1399.625,209.993592 1399.625,189.527344 C1399.625,169.061096 1404.76037,153.88156 1415.03125,143.988281 C1425.30213,134.095003 1438.36711,129.148438 1454.22656,129.148438 C1465.4037,129.148438 1476.61843,131.94268 1487.87109,137.53125 L1487.87109,152.9375 L1487.07812,153.503906 C1476.50516,148.1419 1465.7813,145.460938 1454.90625,145.460938 C1444.0312,145.460938 1435.00655,148.934861 1427.83203,155.882812 C1420.582,162.830764 1416.95703,173.856695 1416.95703,188.960938 C1416.88151,203.914137 1420.54423,215.317669 1427.94531,223.171875 C1435.34639,231.026081 1444.4088,234.953125 1455.13281,234.953125 C1465.85682,234.953125 1476.50516,232.272162 1487.07812,226.910156 L1487.87109,227.476562 L1487.87109,242.882812 C1476.61843,248.471382 1465.4037,251.265625 1454.22656,251.265625 Z M1586.53906,174.6875 C1586.53906,155.127506 1577.96753,145.347656 1560.82422,145.347656 C1555.7643,145.423177 1550.81773,146.442699 1545.98438,148.40625 C1541.15102,150.369801 1535.75133,153.126284 1529.78516,156.675781 L1529.78516,249 L1512.22656,249 L1512.22656,87.234375 L1528.65234,84.96875 L1529.78516,84.96875 L1529.78516,140.703125 C1542.3972,132.999961 1553.30985,129.148438 1562.52344,129.148438 C1574.83339,129.148438 1584.83981,132.697881 1592.54297,139.796875 C1600.24613,146.895869 1604.09766,158.223881 1604.09766,173.78125 L1604.09766,249 L1586.53906,249 L1586.53906,174.6875 Z M1666.62891,234.953125 C1688.07693,234.953125 1698.76302,225.550875 1698.6875,206.746094 L1698.6875,197.230469 C1693.09893,197.154948 1688.07685,197.117188 1683.62109,197.117188 C1666.25122,196.966145 1655.3008,199.458308 1650.76953,204.59375 C1648.50389,207.08595 1647.40885,210.937474 1647.48438,216.148438 C1647.48438,221.434922 1649.4479,225.890607 1653.375,229.515625 C1657.37762,233.140643 1661.79555,234.953125 1666.62891,234.953125 Z M1668.32812,251.265625 C1658.35933,251.265625 1650.05212,248.886743 1643.40625,244.128906 C1634.57027,237.860646 1630.15234,228.458396 1630.15234,215.921875 C1630.15234,203.385354 1633.96611,194.398465 1641.59375,188.960938 C1649.22139,183.674453 1660.3606,181.03125 1675.01172,181.03125 C1680.37372,181.03125 1688.26557,181.48437 1698.6875,182.390625 L1698.6875,167.777344 C1698.61198,159.923138 1696.76174,154.221372 1693.13672,150.671875 C1689.5117,147.122378 1683.96097,145.347656 1676.48438,145.347656 C1664.02338,145.347656 1652.24224,148.141899 1641.14062,153.730469 L1636.60938,138.4375 C1645.29431,134.963524 1652.50648,132.546882 1658.24609,131.1875 C1663.98571,129.828118 1671.08459,129.148438 1679.54297,129.148438 C1703.93632,129.148438 1716.13281,142.024611 1716.13281,167.777344 L1716.13281,205.160156 C1716.20833,217.621156 1718.81378,226.041645 1723.94922,230.421875 C1726.21486,232.309905 1729.0091,233.782547 1732.33203,234.839844 L1722.36328,251.265625 C1714.5846,248.697904 1708.65627,243.222698 1704.57812,234.839844 C1695.06245,245.790419 1682.97924,251.265625 1668.32812,251.265625 Z M1795.54297,235.179688 C1807.47532,235.179688 1817.21741,230.950563 1824.76953,222.492188 C1832.32165,214.033812 1836.0599,203.045641 1835.98438,189.527344 C1835.90885,176.009047 1832.92581,165.285196 1827.03516,157.355469 C1821.1445,149.425742 1812.08209,145.460938 1799.84766,145.460938 C1787.61322,145.460938 1778.51305,149.690062 1772.54688,158.148438 L1772.54688,230.648438 C1779.87243,233.669286 1787.53772,235.179688 1795.54297,235.179688 Z M1754.98828,131.414062 L1766.76953,131.414062 L1769.94141,141.609375 C1779.60812,133.302042 1790.55853,129.148438 1802.79297,129.148438 C1817.89721,129.148438 1830.13146,134.850203 1839.49609,146.253906 C1848.86072,157.657609 1853.54297,172.119704 1853.54297,189.640625 C1853.54297,207.161546 1848.48312,221.812441 1838.36328,233.59375 C1828.24344,245.375059 1813.55478,251.265625 1794.29688,251.265625 C1787.12236,251.265625 1779.87243,250.472664 1772.54688,248.886719 L1772.54688,300.882812 L1754.98828,300.882812 L1754.98828,131.414062 Z M759.083008,417.946289 L759.083008,468.249023 L775.061523,468.249023 C790.448319,468.249023 801.790979,466.473651 809.089844,462.922852 C817.506552,458.911764 821.714844,452.171922 821.714844,442.703125 C821.714844,433.234328 817.605184,426.560241 809.385742,422.680664 C802.547166,419.524398 791.664788,417.946289 776.738281,417.946289 L759.083008,417.946289 Z M813.626953,385.890625 C813.626953,368.465408 799.950007,359.75293 772.595703,359.75293 L759.083008,359.75293 L759.083008,407.195312 L767.762695,407.195312 C785.253668,407.195312 796.990855,405.978853 802.974609,403.545898 C806.656919,402.033521 809.352856,399.896498 811.0625,397.134766 C812.772144,394.373033 813.626953,390.625024 813.626953,385.890625 Z M824.969727,383.62207 C824.969727,398.088288 819.512099,407.425435 808.59668,411.633789 C816.816122,413.672211 822.832663,417.255834 826.646484,422.384766 C830.460306,427.513698 832.367188,434.812453 832.367188,444.28125 C832.367188,453.750047 829.539742,461.180312 823.884766,466.572266 C818.229789,471.832709 810.996789,475.219068 802.185547,476.731445 C793.44006,478.243823 782.45905,479 769.242188,479 L747.740234,479 L747.740234,349.001953 L775.554688,349.001953 C808.498212,349.001953 824.969727,360.541877 824.969727,383.62207 Z M870.242188,479 L858.998047,479 L858.998047,376.619141 L870.242188,376.619141 L870.242188,479 Z M870.538086,357.089844 C868.828442,358.733732 866.855805,359.555664 864.620117,359.555664 C862.384429,359.555664 860.411792,358.733732 858.702148,357.089844 C856.992504,355.511711 856.137695,353.604829 856.137695,351.369141 C856.137695,349.133452 856.992504,347.160816 858.702148,345.451172 C860.477548,343.807283 862.450184,342.985352 864.620117,342.985352 C866.79005,342.985352 868.762686,343.807283 870.538086,345.451172 C872.24773,347.160816 873.102539,349.133452 873.102539,351.369141 C873.102539,353.604829 872.24773,355.511711 870.538086,357.089844 Z M948.753906,385.496094 C939.153598,385.496094 929.257538,389.441367 919.06543,397.332031 L919.06543,479 L907.722656,479 L907.722656,376.619141 L915.90918,376.619141 L918.769531,386.087891 C930.605528,378.460248 941.126256,374.646484 950.332031,374.646484 C959.537806,374.646484 967.428353,377.441053 974.003906,383.030273 C980.57946,388.619494 983.83431,396.773058 983.768555,407.491211 L983.768555,479 L972.425781,479 L972.425781,411.633789 C972.425781,403.019814 970.190127,396.510113 965.71875,392.104492 C961.247373,387.698871 955.592482,385.496094 948.753906,385.496094 Z M1060.30762,385.496094 C1050.70731,385.496094 1040.81125,389.441367 1030.61914,397.332031 L1030.61914,479 L1019.27637,479 L1019.27637,376.619141 L1027.46289,376.619141 L1030.32324,386.087891 C1042.15924,378.460248 1052.67997,374.646484 1061.88574,374.646484 C1071.09152,374.646484 1078.98206,377.441053 1085.55762,383.030273 C1092.13317,388.619494 1095.38802,396.773058 1095.32227,407.491211 L1095.32227,479 L1083.97949,479 L1083.97949,411.633789 C1083.97949,403.019814 1081.74384,396.510113 1077.27246,392.104492 C1072.80108,387.698871 1067.14619,385.496094 1060.30762,385.496094 Z M1186.16309,419.03125 C1186.16309,408.773386 1184.81512,400.981472 1182.11914,395.655273 C1178.56834,388.882453 1172.38741,385.496094 1163.57617,385.496094 C1154.76493,385.496094 1147.92646,388.487926 1143.06055,394.47168 C1138.12888,400.455434 1135.07129,408.641875 1133.8877,419.03125 L1186.16309,419.03125 Z M1168.40918,470.22168 C1177.5492,470.22168 1187.18224,467.755884 1197.30859,462.824219 L1197.70312,463.120117 L1197.70312,473.673828 C1187.90555,478.539738 1178.141,480.972656 1168.40918,480.972656 C1154.79778,480.972656 1143.65239,476.369838 1134.97266,467.164062 C1126.29293,457.958287 1121.95312,444.938886 1121.95312,428.105469 C1121.95312,411.272051 1125.33948,398.121141 1132.1123,388.652344 C1138.88513,379.315057 1149.57024,374.646484 1164.16797,374.646484 C1181.39592,374.646484 1191.94952,382.66854 1195.8291,398.712891 C1197.07846,403.973334 1197.76888,410.746052 1197.90039,419.03125 L1197.90039,430.176758 L1133.49316,430.176758 C1133.95345,443.130599 1137.60283,453.026659 1144.44141,459.865234 C1151.27998,466.70381 1159.26916,470.155924 1168.40918,470.22168 Z M1266.54883,385.496094 C1256.94852,385.496094 1247.05246,389.441367 1236.86035,397.332031 L1236.86035,479 L1225.51758,479 L1225.51758,376.619141 L1233.7041,376.619141 L1236.56445,386.087891 C1248.40045,378.460248 1258.92118,374.646484 1268.12695,374.646484 C1277.33273,374.646484 1285.22327,377.441053 1291.79883,383.030273 C1298.37438,388.619494 1301.62923,396.773058 1301.56348,407.491211 L1301.56348,479 L1290.2207,479 L1290.2207,411.633789 C1290.2207,403.019814 1287.98505,396.510113 1283.51367,392.104492 C1279.0423,387.698871 1273.3874,385.496094 1266.54883,385.496094 Z M1348.31543,338.152344 L1348.31543,479 L1337.07129,479 L1337.07129,340.125 L1347.13184,338.152344 L1348.31543,338.152344 Z M1417.75293,430.472656 C1398.28929,430.472656 1388.55762,436.620707 1388.55762,448.916992 C1388.55762,455.032257 1390.59601,460.128235 1394.67285,464.205078 C1398.74969,468.281921 1404.17445,470.287435 1410.94727,470.22168 C1422.12571,470.22168 1430.6738,464.566788 1436.5918,453.256836 L1436.5918,431.360352 C1431.06833,430.768552 1424.78877,430.472656 1417.75293,430.472656 Z M1436.5918,406.800781 C1436.5918,392.597585 1428.53686,385.496094 1412.42676,385.496094 C1404.60185,385.496094 1396.11951,387.797503 1386.97949,392.400391 L1384.02051,381.945312 C1394.54139,377.079403 1404.7991,374.646484 1414.79395,374.646484 C1424.78879,374.646484 1432.81084,377.276666 1438.86035,382.537109 C1444.90986,387.797552 1447.90169,396.411398 1447.83594,408.378906 L1447.83594,444.675781 C1447.83594,451.054068 1449.15103,456.643205 1451.78125,461.443359 C1454.41147,466.243514 1458.35674,469.235346 1463.61719,470.418945 L1457.20605,480.972656 C1449.84143,478.605457 1444.38381,473.279338 1440.83301,464.994141 C1438.40005,469.597028 1434.4219,473.410792 1428.89844,476.435547 C1423.37497,479.460302 1416.70089,480.972656 1408.87598,480.972656 C1401.05107,480.972656 1394.24547,478.901388 1388.45898,474.758789 C1380.76559,469.301079 1376.91895,461.246147 1376.91895,450.59375 C1376.91895,439.941353 1380.00941,432.149439 1386.19043,427.217773 C1392.37145,422.286108 1402.33326,419.820312 1416.07617,419.820312 C1420.67906,419.820312 1427.51753,420.21484 1436.5918,421.003906 L1436.5918,406.800781 Z M1529.30664,385.496094 C1519.70633,385.496094 1509.81027,389.441367 1499.61816,397.332031 L1499.61816,479 L1488.27539,479 L1488.27539,376.619141 L1496.46191,376.619141 L1499.32227,386.087891 C1511.15826,378.460248 1521.67899,374.646484 1530.88477,374.646484 C1540.09054,374.646484 1547.98109,377.441053 1554.55664,383.030273 C1561.13219,388.619494 1564.38704,396.773058 1564.32129,407.491211 L1564.32129,479 L1552.97852,479 L1552.97852,411.633789 C1552.97852,403.019814 1550.74286,396.510113 1546.27148,392.104492 C1541.80011,387.698871 1536.14522,385.496094 1529.30664,385.496094 Z M1641.05762,385.397461 C1629.48464,385.397461 1620.18037,389.079716 1613.14453,396.444336 C1606.10869,403.808956 1602.59082,413.836525 1602.59082,426.527344 C1602.59082,439.218162 1605.28676,449.410118 1610.67871,457.103516 C1616.72822,465.849002 1625.47358,470.22168 1636.91504,470.22168 C1648.3565,470.22168 1657.06898,466.046266 1663.05273,457.695312 L1663.05273,390.723633 C1654.50451,387.172834 1647.17288,385.397461 1641.05762,385.397461 Z M1674.29688,338.152344 L1674.29688,479 L1665.61719,479 L1663.05273,470.123047 C1654.57027,477.356156 1644.97011,480.972656 1634.25195,480.972656 C1621.1666,480.972656 1610.67875,475.712292 1602.78809,465.191406 C1594.89742,454.67052 1590.95215,441.716874 1590.95215,426.330078 C1590.95215,410.943282 1595.19332,398.449918 1603.67578,388.849609 C1612.15825,379.380812 1624.84887,374.646484 1641.74805,374.646484 C1647.27151,374.646484 1654.373,375.731434 1663.05273,377.901367 L1663.05273,340.125 L1673.01465,338.152344 L1674.29688,338.152344 Z M1702.60449,466.473633 C1708.91702,468.906588 1715.78837,470.123047 1723.21875,470.123047 C1730.64913,470.123047 1737.35609,468.479183 1743.33984,465.191406 C1749.3236,461.903629 1752.31543,457.235056 1752.31543,451.185547 C1752.31543,447.634748 1750.93458,444.34702 1748.17285,441.322266 C1745.41112,438.297511 1738.80279,434.681011 1728.34766,430.472656 C1717.89253,426.264302 1710.49514,421.036815 1706.15527,414.790039 C1703.65656,411.304996 1702.40723,406.833686 1702.40723,401.375977 C1702.40723,392.762001 1705.53057,386.153669 1711.77734,381.550781 C1718.02412,376.947894 1726.11193,374.646484 1736.04102,374.646484 C1741.56448,374.646484 1747.74541,375.599925 1754.58398,377.506836 L1754.58398,387.764648 L1753.99219,388.356445 C1747.0221,386.449535 1740.57815,385.496094 1734.66016,385.496094 C1728.74216,385.496094 1723.84344,386.679676 1719.96387,389.046875 C1716.01853,391.414074 1714.0459,395.227838 1714.0459,400.488281 C1714.0459,405.748724 1716.67608,410.121402 1721.93652,413.606445 C1724.69826,415.513356 1730.22164,418.176415 1738.50684,421.595703 C1746.79203,425.014991 1752.70994,428.302719 1756.26074,431.458984 C1761.45543,436.324894 1764.05273,442.40719 1764.05273,449.706055 C1764.05273,459.50363 1760.04171,467.164035 1752.01953,472.6875 C1743.99736,478.210965 1735.12049,480.972656 1725.38867,480.972656 C1715.52534,480.972656 1707.70055,479.657565 1701.91406,477.027344 L1701.91406,467.06543 L1702.60449,466.473633 Z M759.083008,607.946289 L759.083008,658.249023 L775.061523,658.249023 C790.448319,658.249023 801.790979,656.473651 809.089844,652.922852 C817.506552,648.911764 821.714844,642.171922 821.714844,632.703125 C821.714844,623.234328 817.605184,616.560241 809.385742,612.680664 C802.547166,609.524398 791.664788,607.946289 776.738281,607.946289 L759.083008,607.946289 Z M813.626953,575.890625 C813.626953,558.465408 799.950007,549.75293 772.595703,549.75293 L759.083008,549.75293 L759.083008,597.195312 L767.762695,597.195312 C785.253668,597.195312 796.990855,595.978853 802.974609,593.545898 C806.656919,592.033521 809.352856,589.896498 811.0625,587.134766 C812.772144,584.373033 813.626953,580.625024 813.626953,575.890625 Z M824.969727,573.62207 C824.969727,588.088288 819.512099,597.425435 808.59668,601.633789 C816.816122,603.672211 822.832663,607.255834 826.646484,612.384766 C830.460306,617.513698 832.367188,624.812453 832.367188,634.28125 C832.367188,643.750047 829.539742,651.180312 823.884766,656.572266 C818.229789,661.832709 810.996789,665.219068 802.185547,666.731445 C793.44006,668.243823 782.45905,669 769.242188,669 L747.740234,669 L747.740234,539.001953 L775.554688,539.001953 C808.498212,539.001953 824.969727,550.541877 824.969727,573.62207 Z M914.331055,609.03125 C914.331055,598.773386 912.983086,590.981472 910.287109,585.655273 C906.73631,578.882453 900.555383,575.496094 891.744141,575.496094 C882.932899,575.496094 876.094425,578.487926 871.228516,584.47168 C866.29685,590.455434 863.239264,598.641875 862.055664,609.03125 L914.331055,609.03125 Z M896.577148,660.22168 C905.717168,660.22168 915.35021,657.755884 925.476562,652.824219 L925.871094,653.120117 L925.871094,663.673828 C916.073519,668.539738 906.308968,670.972656 896.577148,670.972656 C882.965752,670.972656 871.820356,666.369838 863.140625,657.164062 C854.460894,647.958287 850.121094,634.938886 850.121094,618.105469 C850.121094,601.272051 853.507453,588.121141 860.280273,578.652344 C867.053094,569.315057 877.738208,564.646484 892.335938,564.646484 C909.563888,564.646484 920.117494,572.66854 923.99707,588.712891 C925.246426,593.973334 925.936848,600.746052 926.068359,609.03125 L926.068359,620.176758 L861.661133,620.176758 C862.121422,633.130599 865.770799,643.026659 872.609375,649.865234 C879.447951,656.70381 887.437129,660.155924 896.577148,660.22168 Z M944.512695,656.473633 C950.825227,658.906588 957.696577,660.123047 965.126953,660.123047 C972.557329,660.123047 979.264293,658.479183 985.248047,655.191406 C991.231801,651.903629 994.223633,647.235056 994.223633,641.185547 C994.223633,637.634748 992.842787,634.34702 990.081055,631.322266 C987.319322,628.297511 980.71099,624.681011 970.255859,620.472656 C959.800729,616.264302 952.403342,611.036815 948.063477,604.790039 C945.564766,601.304996 944.31543,596.833686 944.31543,591.375977 C944.31543,582.762001 947.438771,576.153669 953.685547,571.550781 C959.932323,566.947894 968.020133,564.646484 977.949219,564.646484 C983.472684,564.646484 989.653612,565.599925 996.492188,567.506836 L996.492188,577.764648 L995.900391,578.356445 C988.930304,576.449535 982.486358,575.496094 976.568359,575.496094 C970.650361,575.496094 965.751647,576.679676 961.87207,579.046875 C957.926738,581.414074 955.954102,585.227838 955.954102,590.488281 C955.954102,595.748724 958.584284,600.121402 963.844727,603.606445 C966.606459,605.513356 972.129841,608.176415 980.415039,611.595703 C988.700237,615.014991 994.618146,618.302719 998.168945,621.458984 C1003.36363,626.324894 1005.96094,632.40719 1005.96094,639.706055 C1005.96094,649.50363 1001.94991,657.164035 993.927734,662.6875 C985.905559,668.210965 977.028694,670.972656 967.296875,670.972656 C957.433544,670.972656 949.608753,669.657565 943.822266,667.027344 L943.822266,657.06543 L944.512695,656.473633 Z M1042.25781,630.43457 C1042.25781,650.095476 1048.76751,659.925781 1061.78711,659.925781 C1065.66669,659.925781 1070.82842,658.775077 1077.27246,656.473633 L1080.52734,667.224609 C1073.95179,669.72332 1067.11332,670.972656 1060.01172,670.972656 C1052.91012,670.972656 1046.8607,669.00002 1041.86328,665.054688 C1034.56442,659.399711 1030.91504,649.898179 1030.91504,636.549805 L1030.91504,577.764648 L1019.76953,577.764648 L1019.76953,566.619141 L1030.91504,566.619141 L1030.91504,548.076172 L1041.07422,546.202148 L1042.25781,546.202148 L1042.25781,566.619141 L1067.40918,566.619141 L1067.40918,577.764648 L1042.25781,577.764648 L1042.25781,630.43457 Z M1135.26855,660.22168 C1144.80311,660.22168 1154.69917,656.243529 1164.95703,648.287109 L1164.95703,566.619141 L1176.2998,566.619141 L1176.2998,669 L1168.80371,669 L1165.84473,659.333984 C1154.07449,667.093138 1143.488,670.972656 1134.08496,670.972656 C1124.68192,670.972656 1116.69274,668.178088 1110.11719,662.588867 C1103.54163,656.999647 1100.25391,648.846082 1100.25391,638.12793 L1100.25391,566.619141 L1111.59668,566.619141 L1111.59668,633.985352 C1111.66244,642.599327 1113.93097,649.141905 1118.40234,653.613281 C1122.87372,658.084658 1128.49573,660.287435 1135.26855,660.22168 Z M1246.82227,660.22168 C1256.35682,660.22168 1266.25288,656.243529 1276.51074,648.287109 L1276.51074,566.619141 L1287.85352,566.619141 L1287.85352,669 L1280.35742,669 L1277.39844,659.333984 C1265.6282,667.093138 1255.04171,670.972656 1245.63867,670.972656 C1236.23563,670.972656 1228.24645,668.178088 1221.6709,662.588867 C1215.09534,656.999647 1211.80762,648.846082 1211.80762,638.12793 L1211.80762,566.619141 L1223.15039,566.619141 L1223.15039,633.985352 C1223.21615,642.599327 1225.48468,649.141905 1229.95605,653.613281 C1234.42743,658.084658 1240.04945,660.287435 1246.82227,660.22168 Z M1325.33398,566.619141 L1333.52051,566.619141 L1336.67676,577.172852 C1344.3044,568.821898 1352.81961,564.646484 1362.22266,564.646484 C1366.75979,564.646484 1371.42836,565.66568 1376.22852,567.704102 L1372.48047,577.863281 C1367.74607,576.219393 1363.99806,575.397461 1361.23633,575.397461 C1352.03055,575.397461 1343.81123,580.164666 1336.57812,589.699219 L1336.57812,669 L1325.33398,669 L1325.33398,566.619141 Z" id="Agentschap-Binnenlan"></path>
        </g>
    </g>
</svg>