<?xml version="1.0" encoding="utf-8"?>
<!-- Generator: Adobe Illustrator 22.1.0, SVG Export Plug-In . SVG Version: 6.00 Build 0)  -->
<svg version="1.1" id="vlaanderen-logo" xmlns="http://www.w3.org/2000/svg" xmlns:xlink="http://www.w3.org/1999/xlink" x="0px"
	 y="0px" viewBox="0 0 1848.5 825.5" style="enable-background:new 0 0 1848.5 825.5;" xml:space="preserve">
<style type="text/css">
	.st0{fill:#333333;}
</style>
<title>vlaanderen-logo</title>
<g>
	<path class="st0" d="M375.8,394.4c-20.7-15.7-30.5,0-43.5,0s-21.5-19.2-29.9-14.4c-16.3,8.2,6.5,38.3,16.5,43.5
		c7.3,4.2,14.9,7.9,22.6,11.3c11.6,5.4,19.1,16.9,19.2,29.7c0.6,4.8,0.6,9.6,0,14.4c-5.9,25.3-50.6,48.3-76.7,30.9
		c-14-8.4-23.7-22.3-26.8-38.3c-6.9-33.2-31.1-57.5-38.3-90.1c-4.8-19.2-8.2-40.6-13.4-60.4s-10.5-41.6-15-60.8
		c-4.8-20-10.9-39.7-18-59c-24.7-63.5-35.7-58.9-35.7-58.9s8.8,17.6,41.2,172.5c5.4,33.3,12.6,66.2,21.7,98.7
		c3.1,8.1,8.4,25.3,11.9,33c10.4,22.2,38.3,56,39.3,86.5c1,17.6,3.1,32.2,3.5,45.4c0.7,9.1,2.2,18.1,4.6,26.8
		c6.7,19.2,60.2,78.4,116.9,78.4v-46.2c-39.6-0.9-78.1-13-111-34.9c0.7-11.1,3-22.1,6.7-32.6c6.4-20.5,24.5-35.2,45.8-37.2
		c19.3,0.4,38.5,2.3,57.5,5.9V394.4H375.8z M130.6,228.8c-2.1,33.9-55,80.5-71.5,110.2c-9.4,17.1-16.4,35.4-20.9,54.4
		c-5.7,30.3-1.5,61.7,11.9,89.5c17.4,41.8-2.3,57.5,11.3,48.7c16.9-13.8,14.4-45.8,13-65.8c-1.7-18-1.7-36.1,0-54.1
		c7.6-37.1,23.4-72,46.2-102.2C136.3,285.7,140,255.9,130.6,228.8 M141.4,324.7c0,0,5.6,26.8-19.2,95.9
		c-62.5,181.2,57.5,198.2,90.9,240.8c0,0,13.2-19.2-41-76.7c-19.2-21.5-38.3-69-22-137.1c22.4-98.3-9.6-122.5-9.6-122.5 M23.1,206.6
		c-2.9-9.3-4.3-19-4-28.8c3.8-42.6,42.8-59.8,52.3-66.1c8.9-5.8,15.8-14.1,19.7-24c10.4,26,0.6,55.7-23.2,70.4
		C48.6,169.5,33,186.4,23.1,206.6 M121,165.3c2.1,4.4,19.2,27.8-47.5,81.9C6.8,301.3,28.3,340,28.3,340S-41.9,301.7,39,234
		s64.2-80.5,64.2-80.5c7.8,0.2,14.7,4.9,17.8,12.1 M206.5,186.2c11.3,1.5,19.2,36.8,45.1,44.5c19.2,5.6,39.9,2.5,44.5,14.2
		c-4.3,3.5-4.9,9.8-1.4,14c2.1,2.5,5.2,3.9,8.5,3.6c7.5-21.5,11.1-100.5-96.4-76.3H206.5z M242.2,202.7c0-2.5,2.3,0,5.2-2.3
		c3-3.9,6.9-7.1,11.3-9.2c3.9-1.3,8-1.3,11.9,0c2.3,0,0,6.3,0,7.7c0,1.3-14.2-1.7-14.2,6.1c0,12.8,17.4,0,26.5,0
		c4.4,31.4-47.5,22.8-39.9-3.1L242.2,202.7z"/>
	<g>
		<path class="st0" d="M656.8,229.1h19.1l47.4,137.5l47.4-137.5h19.1l-54.2,157.2h-24.7L656.8,229.1z"/>
		<path class="st0" d="M830.3,213.6v172.7h-18.5V216l17.3-2.4L830.3,213.6L830.3,213.6z"/>
		<path class="st0" d="M899.2,388.7c-10.5,0-19.3-2.5-26.4-7.5c-9.3-6.6-14-16.5-14-29.7s4-22.7,12.1-28.5
			c8.1-5.6,19.8-8.5,35.3-8.5c5.6,0,13.9,0.5,24.9,1.4v-15.2c-0.1-8.2-2-14.1-5.8-17.8s-9.6-5.6-17.5-5.6c-13.1,0-25.5,2.9-37.2,8.7
			l-4.8-16.1c9.2-3.7,16.8-6.2,22.8-7.7c6.1-1.4,13.5-2.2,22.5-2.2c25.7,0,38.6,13.5,38.6,40.6v39.5c0.1,13.1,2.8,22,8.2,26.6
			c2.4,2,5.3,3.5,8.8,4.7l-10.5,17.3c-8.2-2.7-14.5-8.5-18.8-17.3C927.3,382.9,914.6,388.7,899.2,388.7z M897.4,371.5
			c22.5,0,33.8-9.9,33.7-29.7v-10c-5.9-0.1-11.1-0.1-15.8-0.1c-18.2-0.2-29.8,2.5-34.5,7.9c-2.4,2.6-3.5,6.7-3.5,12.2
			c0,5.6,2.1,10.3,6.2,14.1C887.7,369.6,892.3,371.5,897.4,371.5z"/>
		<path class="st0" d="M1021.1,388.7c-10.5,0-19.3-2.5-26.4-7.5c-9.3-6.6-14-16.5-14-29.7s4-22.7,12.1-28.5
			c8.1-5.6,19.8-8.5,35.3-8.5c5.6,0,13.9,0.5,24.9,1.4v-15.2c-0.1-8.2-2-14.1-5.8-17.8s-9.6-5.6-17.5-5.6c-13.1,0-25.5,2.9-37.2,8.7
			l-4.8-16.1c9.2-3.7,16.8-6.2,22.8-7.7c6.1-1.4,13.5-2.2,22.5-2.2c25.7,0,38.6,13.5,38.6,40.6v39.5c0.1,13.1,2.8,22,8.2,26.6
			c2.4,2,5.3,3.5,8.8,4.7l-10.5,17.3c-8.2-2.7-14.5-8.5-18.8-17.3C1049.2,382.9,1036.5,388.7,1021.1,388.7z M1019.3,371.5
			c22.5,0,33.8-9.9,33.7-29.7v-10c-5.9-0.1-11.1-0.1-15.8-0.1c-18.2-0.2-29.8,2.5-34.5,7.9c-2.4,2.6-3.5,6.7-3.5,12.2
			c0,5.6,2.1,10.3,6.2,14.1C1009.6,369.6,1014.2,371.5,1019.3,371.5z"/>
		<path class="st0" d="M1163.3,277.3c-8.4,0-19.3,4-32.7,11.9v97.1h-18.5V262.5h12.4l3.5,11.5c14.3-9.3,27.3-13.9,39-13.9
			s21.6,3.7,29.7,11.2s12.2,19.4,12.2,35.8v79.2h-18.5v-78C1190.4,287.6,1181.4,277.3,1163.3,277.3z"/>
		<path class="st0" d="M1340.1,386.4h-11.7l-3.8-11c-10.3,8.8-21.9,13.2-34.8,13.2c-15.9,0-28.8-6.4-38.6-19.1
			c-9.9-12.7-14.8-28.3-14.8-46.7s5.3-33.5,15.9-45.4c10.6-11.7,26.1-17.5,46.5-17.5c6.8,0,14.4,0.8,22.9,2.5v-46.6l17.3-2.4h1.2
			L1340.1,386.4L1340.1,386.4z M1297.4,277.3c-12.9,0-23.2,4-31,12.1s-11.7,19.3-11.6,33.6c-0.1,14.3,3.1,25.9,9.4,35
			c6.4,9,15.9,13.6,28.6,13.6s22.3-4.5,28.7-13.4v-75.9C1313.2,278.9,1305.1,277.3,1297.4,277.3z"/>
		<path class="st0" d="M1464.7,329.1h-77.2c0.9,13,5,23.4,12.3,31s16.6,11.5,27.8,11.5s22.6-2.9,34.2-8.8l0.4,0.1V380
			c-12,5.9-23.8,8.8-35.5,8.8c-18,0-32-5.9-42.2-17.7s-15.3-27.4-15.3-46.9c0-19.3,4.4-34.8,13.1-46.5s21.9-17.5,39.7-17.5
			c17.7,0,30,7.2,36.8,21.5c3.9,8.2,5.9,18.5,6,30.8v16.6H1464.7z M1421.6,277.3c-9.3,0-16.8,3.2-22.5,9.6s-9.4,14.7-11.1,24.9h58.2
			c-0.2-16.9-4.5-27.6-12.6-32C1430.3,278.2,1426.3,277.3,1421.6,277.3z"/>
		<path class="st0" d="M1492.3,262.5h12.4l4.3,14.2c9.5-11,19.6-16.6,30.4-16.6c7.3,0,14.2,1.4,20.5,4.3l-6.4,16.7
			c-5.2-2.5-10.9-3.8-17.1-3.8c-9.9,0-18.4,5.5-25.6,16.6v92.5h-18.5L1492.3,262.5L1492.3,262.5z"/>
		<path class="st0" d="M1657.7,329.1h-77.2c0.9,13,5,23.4,12.3,31s16.6,11.5,27.8,11.5s22.6-2.9,34.2-8.8l0.4,0.1V380
			c-12,5.9-23.8,8.8-35.5,8.8c-18,0-32-5.9-42.2-17.7s-15.3-27.4-15.3-46.9c0-19.3,4.4-34.8,13.1-46.5s21.9-17.5,39.7-17.5
			c17.7,0,30,7.2,36.8,21.5c3.9,8.2,5.9,18.5,6,30.8v16.6H1657.7z M1614.6,277.3c-9.3,0-16.8,3.2-22.5,9.6s-9.4,14.7-11.1,24.9h58.2
			c-0.2-16.9-4.5-27.6-12.6-32C1623.3,278.2,1619.3,277.3,1614.6,277.3z"/>
		<path class="st0" d="M1736.5,277.3c-8.4,0-19.3,4-32.7,11.9v97.1h-18.5V262.5h12.4l3.5,11.5c14.3-9.3,27.3-13.9,39-13.9
			s21.6,3.7,29.7,11.2s12.2,19.4,12.2,35.8v79.2h-18.5v-78C1763.6,287.6,1754.6,277.3,1736.5,277.3z"/>
		<path class="st0" d="M674.7,459.3c-1.9,0-3.6-0.7-5.1-2.1c-1.5-1.3-2.2-3-2.2-4.9s0.7-3.6,2.2-5.1c1.5-1.4,3.2-2.1,5.1-2.1
			s3.5,0.7,5.1,2.1c1.5,1.5,2.2,3.1,2.2,5.1c0,1.9-0.7,3.5-2.2,4.9C678.3,458.6,676.6,459.3,674.7,459.3z M679.5,561.3h-9.6v-87.4
			h9.6V561.3z"/>
		<path class="st0" d="M720.9,553.8c6.3,0,12.1-1.4,17.2-4.2c5.1-2.8,7.7-6.8,7.7-12c0-3-1.2-5.9-3.5-8.4s-8-5.7-16.9-9.3
			s-15.2-8.1-18.8-13.4c-2.1-3-3.1-6.8-3.1-11.5c0-7.3,2.6-13,7.9-16.9c5.3-3.9,12.1-5.9,20.5-5.9c4.7,0,10,0.8,15.8,2.4v8.7
			l-0.5,0.5c-5.9-1.6-11.4-2.4-16.5-2.4s-9.3,1-12.6,3c-3.4,2-5.1,5.3-5.1,9.8s2.3,8.2,6.8,11.2c2.4,1.6,7.1,3.9,14.2,6.8
			c7.1,2.9,12.1,5.7,15,8.4c4.3,4.2,6.4,9.4,6.4,15.6c0,8.4-3.4,14.9-10.2,19.6c-6.8,4.7-14.3,7.1-22.5,7.1
			c-8.3,0-14.9-1.1-19.7-3.3v-8.5l0.6-0.5C708.8,552.7,714.6,553.8,720.9,553.8z"/>
		<path class="st0" d="M839.8,441v120.2h-9.6V442.7l8.6-1.7H839.8z"/>
		<path class="st0" d="M875,549.9c-7.2-8.7-10.8-19.5-10.8-32.3c0-12.9,3.7-23.6,11.1-32.3s16.9-13.1,28.5-13.1
			c11.7,0,21.1,4.3,28.3,13c7.2,8.6,10.8,19.4,10.8,32.3c0,12.8-3.7,23.6-11.1,32.3c-7.4,8.8-16.9,13.1-28.5,13.1
			C891.6,562.9,882.2,558.6,875,549.9z M873.8,517.1c0,10.3,2.7,19,8,26.1s12.6,10.6,21.9,10.5c9.3,0,16.5-3.3,21.7-10
			c5.2-6.6,7.8-15.2,7.8-25.8s-2.6-19.3-7.8-26.3c-5.2-7-12.5-10.4-21.8-10.4s-16.6,3.4-21.9,10.1
			C876.4,498.2,873.8,506.8,873.8,517.1z"/>
		<path class="st0" d="M976.9,561.3h-9.6V442.6l8.5-1.6h1.1v74.3l34.8-41.4h11.3l-35.2,42.7c1,1.2,2.4,3.3,4.2,6.1
			c4.5,7.4,11,14.6,19.5,21.7c4.7,4,10.3,7.5,16.9,10.6l-3.7,8c-5.2-0.3-11.4-3.8-18.6-10.3s-13.9-13.9-20.1-22.2
			c-2.5-3.3-4.5-6.2-6.2-8.8s-2.6-4.2-2.8-4.8v44.4H976.9z"/>
		<path class="st0" d="M1090,499.5c0-12.1-6.9-18.2-20.7-18.2c-6.7,0-13.9,2-21.7,5.9l-2.4-8.9c8.9-4.1,17.6-6.2,26.2-6.2
			c8.5,0,15.4,2.2,20.6,6.7s7.7,11.8,7.7,22v31.1c0,5.4,1.1,10.2,3.4,14.3c2.2,4.1,5.6,6.7,10.1,7.7l-5.5,9c-6.3-2-10.9-6.6-14-13.6
			c-2.1,3.9-5.5,7.2-10.2,9.8s-10.4,3.9-17.1,3.9s-12.5-1.8-17.3-5.3c-6.4-4.7-9.7-11.5-9.7-20.6s2.6-15.8,7.8-20
			c5.2-4.2,13.7-6.4,25.3-6.4c3.9,0,9.8,0.3,17.5,1L1090,499.5L1090,499.5z M1073.9,519.8c-16.7,0-25,5.2-25,15.7
			c0,5.2,1.7,9.6,5.2,13.1s8.1,5.2,13.9,5.1c9.6,0,16.9-4.8,21.9-14.5v-18.7C1085.3,520.1,1079.9,519.8,1073.9,519.8z"/>
		<path class="st0" d="M1177.5,499.5c0-12.1-6.9-18.2-20.7-18.2c-6.7,0-13.9,2-21.7,5.9l-2.4-8.9c8.9-4.1,17.6-6.2,26.2-6.2
			c8.5,0,15.4,2.2,20.6,6.7s7.7,11.8,7.7,22v31.1c0,5.4,1.1,10.2,3.4,14.3c2.2,4.1,5.6,6.7,10.1,7.7l-5.5,9c-6.3-2-10.9-6.6-14-13.6
			c-2.1,3.9-5.5,7.2-10.2,9.8s-10.4,3.9-17.1,3.9s-12.5-1.8-17.3-5.3c-6.4-4.7-9.7-11.5-9.7-20.6s2.6-15.8,7.8-20
			c5.2-4.2,13.7-6.4,25.3-6.4c3.9,0,9.8,0.3,17.5,1L1177.5,499.5L1177.5,499.5z M1161.4,519.8c-16.7,0-25,5.2-25,15.7
			c0,5.2,1.7,9.6,5.2,13.1s8.1,5.2,13.9,5.1c9.6,0,16.9-4.8,21.9-14.5v-18.7C1172.8,520.1,1167.4,519.8,1161.4,519.8z"/>
		<path class="st0" d="M1231.5,441v120.2h-9.6V442.7l8.6-1.7H1231.5z"/>
		<path class="st0" d="M1323.6,441v38.8c6.7-5.1,14.2-7.7,22.4-7.7c11.2,0,20,4.2,26.5,12.6c6.5,8.4,9.7,19.2,9.7,32.2
			s-3.6,24-10.7,32.7c-7.2,8.8-16.3,13.2-27.4,13.2c-6.9,0-13.8-1.4-20.5-4.1v2.4h-9.6V442.7l8.5-1.7H1323.6z M1343.5,553.8
			c8.3,0.1,15.3-3.2,20.8-9.9c5.6-6.6,8.3-15.4,8.3-26.4c0.1-11-2.3-19.7-7-26.2s-11.5-9.8-20.2-9.9c-8.8,0-16.1,3.1-21.8,9.3v58
			C1330.5,552.1,1337.1,553.8,1343.5,553.8z"/>
		<path class="st0" d="M1438.5,553.8c7.8,0,15.9-2.1,24.5-6.3l0.3,0.3v9c-8.2,4.2-16.4,6.2-24.6,6.2c-11.6,0-21-3.9-28.4-11.8
			c-7.4-7.9-11.1-19-11.1-33.4s2.9-25.6,8.6-33.7c5.7-8,14.8-11.9,27.2-11.9c14.5,0,23.4,6.8,26.7,20.5c1.1,4.5,1.6,10.3,1.7,17.3
			v9.5h-54.5c0.4,11.1,3.5,19.5,9.3,25.3C1424,550.8,1430.8,553.7,1438.5,553.8z M1454,510.1c0-8.8-1.2-15.5-3.5-20
			c-3-5.8-8.3-8.7-15.9-8.7s-13.4,2.6-17.5,7.7c-4.2,5.1-6.8,12.1-7.8,21H1454z"/>
		<path class="st0" d="M1497.2,553.8c6.3,0,12.1-1.4,17.2-4.2s7.7-6.8,7.7-12c0-3-1.2-5.9-3.5-8.4s-8-5.7-16.9-9.3
			s-15.2-8.1-18.8-13.4c-2.1-3-3.1-6.8-3.1-11.5c0-7.3,2.6-13,7.9-16.9s12.1-5.9,20.5-5.9c4.7,0,10,0.8,15.8,2.4v8.7l-0.5,0.5
			c-5.9-1.6-11.4-2.4-16.5-2.4s-9.3,1-12.6,3c-3.4,2-5.1,5.3-5.1,9.8s2.3,8.2,6.8,11.2c2.4,1.6,7.1,3.9,14.2,6.8
			c7.1,2.9,12.1,5.7,15,8.4c4.3,4.2,6.4,9.4,6.4,15.6c0,8.4-3.4,14.9-10.2,19.6c-6.8,4.7-14.3,7.1-22.5,7.1
			c-8.3,0-14.9-1.1-19.7-3.3v-8.5l0.6-0.5C1485.1,552.7,1490.9,553.8,1497.2,553.8z"/>
		<path class="st0" d="M1563.2,528.3c0,16.8,5.6,25.1,16.7,25.1c3.3,0,7.7-1,13.2-2.9l2.8,9.2c-5.6,2.2-11.5,3.2-17.5,3.2
			s-11.2-1.7-15.5-5.1c-6.2-4.8-9.3-12.9-9.3-24.3v-50.2h-9.6v-9.5h9.6V458l8.6-1.6h1v17.4h21.6v9.5h-21.6L1563.2,528.3
			L1563.2,528.3z"/>
		<path class="st0" d="M1642.7,553.8c8.2,0,16.6-3.4,25.4-10.2v-69.7h9.6v87.4h-6.4l-2.5-8.3c-10.1,6.6-19.1,9.9-27.1,9.9
			s-14.9-2.4-20.4-7.2c-5.6-4.8-8.4-11.7-8.4-20.9v-61h9.6v57.5c0.1,7.4,2,12.9,5.8,16.8C1632.1,551.9,1636.9,553.8,1642.7,553.8z"
			/>
		<path class="st0" d="M1737.9,553.8c8.2,0,16.6-3.4,25.4-10.2v-69.7h9.6v87.4h-6.4l-2.5-8.3c-10.1,6.6-19.1,9.9-27.1,9.9
			s-14.9-2.4-20.4-7.2c-5.6-4.8-8.4-11.7-8.4-20.9v-61h9.6v57.5c0.1,7.4,2,12.9,5.8,16.8C1727.3,551.9,1732.1,553.8,1737.9,553.8z"
			/>
		<path class="st0" d="M1805,473.9h7l2.7,9c6.5-7.1,13.8-10.7,21.8-10.7c3.9,0,7.9,0.9,12,2.6l-3.2,8.7c-4-1.4-7.2-2.1-9.6-2.1
			c-7.9,0-14.9,4.1-21,12.2v67.7h-9.6L1805,473.9L1805,473.9z"/>
	</g>
	<g>
		
			<rect x="528.9" y="-24.2" transform="matrix(0.94 -0.3412 0.3412 0.94 -108.7266 207.2641)" class="st0" width="12" height="873.8"/>
	</g>
</g>
</svg>
