<?xml version="1.0" encoding="utf-8"?>
<!-- Generator: Adobe Illustrator 22.1.0, SVG Export Plug-In . SVG Version: 6.00 Build 0)  -->
<svg version="1.1" id="Layer_1" xmlns="http://www.w3.org/2000/svg" xmlns:xlink="http://www.w3.org/1999/xlink" x="0px" y="0px"
	 viewBox="0 0 100 70.9" style="enable-background:new 0 0 100 70.9;" xml:space="preserve">
<style type="text/css">
	.st0{fill:#FFFFFF;}
	.st1{fill:#9013FE;}
	.st2{fill:#333333;}
</style>
<g>
	<title>Artboard</title>
	<desc>Created with Sketch.</desc>
	<g>
		<rect x="-0.3" y="18.7" class="st0" width="100" height="33.6"/>
		<path class="st1" d="M35.7,18.7H-0.3v33.6h6.7V35.1c0-7,5.2-12.8,11.7-12.8s11.7,5.7,11.7,12.8v17.1h6V18.7z"/>
		<path class="st1" d="M28.6,35.1c0-6.4-4.8-11.6-10.5-11.6S7.5,28.7,7.5,35.1v17.1h21.1L28.6,35.1z M23.9,27.3c1.4,1,2.3,2.4,2.4,4
			c0.3,2.5-0.3,4.2-1.8,5L24,35.5c1.1-0.6,1.6-1.9,1.4-4.1c-0.1-1.3-0.9-2.5-2.1-3.4L23.9,27.3z M23.4,34.1l-0.7-0.6
			c1.3-1.4,0-3.9-2.2-4.5c-4.7-1.2-7.9,1.4-7.9,4.9c0,3,2,5.1,6.1,6.1l-0.2,0.9c-4.5-1.1-6.8-3.4-6.8-7c0-4.2,3.8-7.1,9.1-5.8
			C23.6,28.8,25.3,32.1,23.4,34.1z M22.2,40.2c0,2.4-2,3.4-4.2,3.4c-1.7,0-3.3-0.6-4.5-1.7l0.5-0.8c1,1,2.5,1.6,4.1,1.6
			c1.7,0,3.2-0.7,3.2-2.3c0.1-3.6-7.1-1.9-7.1-6.3c0-2.2,1.8-3.2,4-3.2c1.4,0,2.5,0.4,3.5,1l-0.4,0.8c-0.9-0.5-1.9-0.9-3.1-0.9
			c-1.7,0-3,0.7-3,2.2C15.2,37.4,22.2,35.8,22.2,40.2z M22.6,26.5l-0.4,0.8c-5.2-2.6-10.3-0.5-11.9,4.4l-0.9-0.3
			C11.2,26.1,16.9,23.7,22.6,26.5z M9.9,33.2c0,3.1,1,5.6,3.1,7.4l-0.6,0.7c-2.2-2-3.3-4.7-3.3-8.1H9.9z M10.6,46.2
			c-1.3-0.9-2.2-1.9-2.8-2.8l0.8-0.5c0.6,0.9,1.4,1.7,2.6,2.6L10.6,46.2z M13.8,45.4c-3-1.6-4.9-3.4-5.7-5.7L9,39.4
			c0.7,2,2.5,3.8,5.3,5.2L13.8,45.4z M14.9,45.9l0.2-0.9c5,1.3,8.2-0.9,8.6-4.5c0.3-3.5-2.2-5.6-6.6-6.4l0.2-0.9
			c4.8,0.9,7.7,3.3,7.3,7.3C24.2,44.8,20.4,47.4,14.9,45.9z M24.3,46.1l-0.6-0.6c2.3-2.3,2.8-5,1.4-8.2l0.9-0.4
			C27.4,40.4,26.9,43.5,24.3,46.1z"/>
		<path class="st2" d="M96,27.8h3.7v15.3c0,5-3.4,8.2-8.7,8.2c-2.6,0-5.5-1.1-7.3-2.6l1-2.7c1.6,1.3,3.9,2.1,5.9,2.2
			c3.3,0,5.3-2,5.3-5.2v-2.7c-1.2,2.1-3.3,3.1-6.4,3.2c-4,0-6.4-2.6-6.4-6.6v-9.1h3.7v8c0,2.6,1.6,4.2,4.1,4.2
			c3.1,0,4.9-2.2,4.9-5.6L96,27.8L96,27.8z M69.2,42c2.9,0,5-2,5.3-5v-1.3c-0.3-3-2.3-5-5.3-5c-3.1,0-5.3,2.4-5.3,5.6
			C64,39.7,66.1,42,69.2,42z M74.5,27.8h3.7v17.1h-3.7V42c-1.3,2-3.3,3-6,3c-5,0-8.3-3.6-8.3-8.8c0-5.1,3.3-8.6,8.2-8.7
			c2.8,0,4.9,1.1,6.2,3L74.5,27.8L74.5,27.8z M56.4,32.1c-1.5-0.9-3.4-1.5-5-1.5c-1.4,0-2.5,0.5-2.5,1.7c0,3.2,9.2,1.4,9.1,7.7
			c0,3.5-3.2,5.1-6.6,5.1c-2.5,0-5.2-0.9-6.9-2.4l1.4-2.6c1.5,1.3,3.9,2.1,5.8,2.1c1.6,0,2.8-0.5,2.8-1.8c0-3.5-9.1-1.6-9.1-7.7
			c0-3.5,3.1-5,6.4-5c2.2,0,4.5,0.6,6,1.7L56.4,32.1z"/>
	</g>
</g>
</svg>
