<?xml version="1.0" encoding="utf-8"?>
<!-- Generator: Adobe Illustrator 22.1.0, SVG Export Plug-In . SVG Version: 6.00 Build 0)  -->
<svg version="1.1" id="Layer_1" xmlns="http://www.w3.org/2000/svg" xmlns:xlink="http://www.w3.org/1999/xlink" x="0px" y="0px"
	 viewBox="0 0 80 75" style="enable-background:new 0 0 80 75;" xml:space="preserve">
<style type="text/css">
	.st0{fill:#9013FE;}
</style>
<title>Artboard</title>
<desc>Created with Sketch.</desc>
<g>
	<path class="st0" d="M80,0H0v75h14.9V36.8c0-15.7,11.6-28.5,25.9-28.5s25.9,12.8,25.9,28.5V75H80V0z"/>
	<path class="st0" d="M64.2,36.8c0-14.4-10.6-26-23.4-26s-23.4,11.6-23.4,26V75h46.9L64.2,36.8z M53.7,19.2c3.1,2.3,5,5.4,5.4,9
		c0.6,5.6-0.7,9.4-4,11.2l-1-1.8c2.5-1.3,3.5-4.3,3-9.2c-0.3-3-2-5.6-4.6-7.6L53.7,19.2z M52.7,34.4L51.2,33c2.9-3.2,0.1-8.8-4.8-10
		C36,20.4,28.8,26.1,28.8,34c0,6.8,4.4,11.3,13.6,13.6l-0.5,2C32,47.1,26.8,41.9,26.8,34c0-9.3,8.5-15.9,20.1-13
		C53.2,22.6,56.8,29.9,52.7,34.4z M50.1,48.1c0,5.3-4.5,7.6-9.4,7.6c-3.8,0-7.4-1.4-9.9-3.9l1-1.7c2.3,2.3,5.6,3.6,9,3.6
		c3.8,0,7-1.6,7.2-5.2c0.2-8-15.7-4.3-15.7-14c0-4.9,4.1-7.1,8.8-7.1c3,0,5.6,0.9,7.7,2.2L48,31.4c-1.9-1.2-4.2-2-6.8-2
		c-3.8,0-6.7,1.5-6.7,4.9C34.4,41.9,50.1,38.2,50.1,48.1z M51,17.6l-0.9,1.8c-11.6-5.8-22.9-1.1-26.4,9.9l-1.9-0.6
		C25.7,16.5,38.3,11.3,51,17.6z M22.8,32.4c0,6.9,2.2,12.4,6.8,16.5l-1.4,1.5c-4.9-4.5-7.4-10.5-7.4-18H22.8z M24.2,61.6
		c-2.8-2.1-4.9-4.2-6.3-6.3l1.7-1.1c1.3,1.9,3.2,3.9,5.8,5.8L24.2,61.6z M31.4,59.7C24.8,56.2,20.6,52,18.8,47l1.9-0.7
		c1.6,4.5,5.5,8.4,11.7,11.6L31.4,59.7z M33.7,60.9l0.5-2c11.1,2.9,18.3-2,19-10c0.6-7.8-4.9-12.4-14.7-14.2l0.4-2
		C49.6,34.6,56,40,55.2,49C54.4,58.3,46,64.1,33.7,60.9z M54.6,61.2l-1.4-1.4c5.2-5.1,6.2-11.2,3.2-18.4l1.9-0.8
		C61.6,48.6,60.4,55.5,54.6,61.2z"/>
</g>
</svg>
