<?xml version="1.0" encoding="utf-8"?>
<!-- Generator: Adobe Illustrator 22.1.0, SVG Export Plug-In . SVG Version: 6.00 Build 0)  -->
<svg version="1.1" id="Layer_1" xmlns="http://www.w3.org/2000/svg" xmlns:xlink="http://www.w3.org/1999/xlink" x="0px" y="0px"
	 viewBox="0 0 80 75" style="enable-background:new 0 0 80 75;" xml:space="preserve">
<style type="text/css">
	.st0{fill:#9013FE;}
</style>
<title>Artboard</title>
<desc>Created with Sketch.</desc>
<g>
	<path class="st0" d="M40,6.2c-14.1,0-25.6,12.5-25.6,28.1V75h2.4V34.3C16.8,20.1,27.2,8.6,40,8.6s23.2,11.5,23.2,25.7V75h2.4V34.3
		C65.6,18.7,54.1,6.2,40,6.2z"/>
	<path id="s" class="st0" d="M47.1,29c-1.8-1.2-4.2-2-6.7-2c-3.7,0-6.6,1.5-6.6,4.8c0,7.5,15.5,3.8,15.5,13.7c0,5.2-4.4,7.5-9.2,7.5
		c-3.7,0-7.3-1.4-9.8-3.9l1-1.7c2.3,2.2,5.5,3.5,8.9,3.5c3.7,0,6.9-1.6,7.1-5.1c0.2-7.9-15.5-4.3-15.5-13.9c0-4.9,4-7,8.7-7
		c3,0,5.5,0.9,7.6,2.2L47.1,29z"/>
	<path id="Path-8" class="st0" d="M37.7,32.3l0.4-2c10.5,1.9,16.9,7.2,16.1,16.1c-0.8,9.1-9.1,14.8-21.2,11.7l0.5-1.9
		c11,2.8,18.1-2,18.8-9.9C52.9,38.6,47.4,34,37.7,32.3z"/>
	<path id="Path-8-Copy" class="st0" d="M41.6,45l-0.5,1.9c-9.8-2.5-14.9-7.6-14.9-15.4c0-9.1,8.3-15.7,19.9-12.8
		c6.2,1.5,9.8,8.7,5.7,13.2l-1.5-1.3c2.9-3.1,0.1-8.7-4.7-9.9c-10.2-2.5-17.4,3-17.4,10.9C28.2,38.3,32.6,42.7,41.6,45z"/>
	<path id="Path-8-Copy-2" class="st0" d="M20.2,30h2c0,6.9,2.2,12.2,6.7,16.3l-1.3,1.5C22.7,43.3,20.2,37.4,20.2,30z"/>
	<path id="Path-8-Copy-3" class="st0" d="M57.3,38l-1.8,0.8C58.4,46,57.4,52,52.3,57l1.4,1.4C59.4,52.8,60.6,45.9,57.3,38z"/>
	<path id="Path-9" class="st0" d="M31.7,55.1l-0.9,1.8c-6.5-3.4-10.7-7.6-12.5-12.5l1.9-0.7C21.8,48.1,25.6,51.9,31.7,55.1z"/>
	<path id="Path-9_1_" class="st0" d="M24.8,57.2l-1.2,1.6c-2.8-2.1-4.8-4.1-6.2-6.2l1.7-1.1C20.3,53.3,22.3,55.2,24.8,57.2z"/>
	<path id="Path_1_" class="st0" d="M54.1,36.8L53.2,35c2.5-1.3,3.5-4.3,2.9-9c-0.3-3-1.9-5.5-4.6-7.5l1.2-1.6c3,2.3,4.9,5.4,5.3,8.9
		C58.7,31.3,57.4,35.1,54.1,36.8z"/>
	<path id="Path_2_" class="st0" d="M50.1,15.3l-0.9,1.8c-11.5-5.7-22.6-1.1-26,9.8l-1.9-0.6C25.1,14.2,37.6,9.1,50.1,15.3z"/>
</g>
</svg>
