<?xml version="1.0" encoding="utf-8"?>
<!-- Generator: Adobe Illustrator 22.1.0, SVG Export Plug-In . SVG Version: 6.00 Build 0)  -->
<svg version="1.1" id="Layer_1" xmlns="http://www.w3.org/2000/svg" xmlns:xlink="http://www.w3.org/1999/xlink" x="0px" y="0px"
	 viewBox="0 0 51 67.5" style="enable-background:new 0 0 51 67.5;" xml:space="preserve">
<style type="text/css">
	.st0{fill:none;stroke:#000000;stroke-width:2;stroke-miterlimit:10;}
</style>
<g>
	<path class="st0" d="M1,67.5V30.1v-4.6C1,12,12,1,25.5,1S50,12,50,25.5v42"/>
	<path class="st0" d="M23.7,25c8.4,1.5,16.1,5.7,15.3,15c-0.6,7.1-7,14.1-20,10.8"/>
	<path class="st0" d="M27.2,39.9C17.7,37.5,13,32.7,13,25.5c0-7.1,6.4-14.9,18.6-11.8c5.2,1.3,8.8,7.6,5.2,11.5"/>
	<path class="st0" d="M7,24c0,7.1,2.3,12.8,7,17"/>
	<path class="st0" d="M43.2,32c3.1,7.5,2,14-3.4,19.3"/>
	<path class="st0" d="M17,50c-6.3-3.3-10.3-7.3-12-12"/>
	<path class="st0" d="M10,52c-2.7-2-4.7-4-6-6"/>
	<path class="st0" d="M35.4,10.6C22.9,4.4,11.4,10,8,20.9 M39.4,30.3c2.9-1.6,4-4.9,3.4-10c-0.4-3.4-2.3-6.2-4.9-8.2"/>
	<path class="st0" d="M33.8,22.2c-2.3-2-11.4-4.2-14.1,1.1c-3,5.9,3.3,8.5,7,9.4c5.9,1.4,9.5,4.6,7.1,9.5C31,47.9,20.5,46,17,42.5"
		/>
</g>
</svg>
