<?xml version="1.0" encoding="UTF-8"?>
<svg width="443px" height="292px" viewBox="0 0 443 292" version="1.1" xmlns="http://www.w3.org/2000/svg" xmlns:xlink="http://www.w3.org/1999/xlink">
    <!-- Generator: Sketch 52.6 (67491) - http://www.bohemiancoding.com/sketch -->
    <title>Artboard</title>
    <desc>Created with Sketch.</desc>
    <g id="Artboard" stroke="none" stroke-width="1" fill="none" fill-rule="evenodd">
        <g id="data-extraction" transform="translate(1.000000, 1.000000)">
            <g id="data-extraction-tablet" transform="translate(0.175926, 27.031056)">
                <path d="M344.366402,261.3791 L426.667824,261.3791 C433.847526,261.3791 439.667824,255.558802 439.667824,248.3791 L439.667824,13.016467 C439.667824,5.83676525 433.847526,0.016467 426.667824,0.016467 L13.248164,0.016467 C6.06846225,0.016467 0.248164,5.83676525 0.248164,13.016467 C0.248164,35.8786267 0.248164,58.7407864 0.248164,81.602946 L0.248164,148.284317 C0.248164,156.568588 6.963892,163.284317 15.248164,163.284317 L197.348187,163.284317" id="Line-Copy-2" stroke="#BD6BFF" stroke-width="2" stroke-linecap="square" stroke-dasharray="5,5" transform="translate(219.957994, 130.697784) scale(-1, 1) rotate(-180.000000) translate(-219.957994, -130.697784) "></path>
                <g id="data-tablet" transform="translate(150.386517, 18.000000)" stroke="#727272">
                    <path d="M1.0036775,194.588496 L32.1745827,38.8987462 C33.4859656,32.1495932 37.0493466,28.5385199 42.8647254,28.0655263 C48.6801043,27.5925326 115.397297,18.2395829 243.016305,0.00667718711 C249.452302,-0.193845471 251.82455,4.12205499 250.133046,12.9543786 C247.59579,26.202864 220.403086,189.5751 219.354794,194.940682 C218.306502,200.306265 218.317145,203.499036 213.93106,204.855062 C213.93106,205.047186 144.552879,203.618455 5.79651715,200.568868 L5.79651717,200.568867 C3.03576045,200.508191 0.846912464,198.220968 0.907588365,195.460211 C0.914024076,195.167386 0.946177438,194.875693 1.0036775,194.588496 Z" id="laptop-frame" fill="#FFFFFF"></path>
                    <polygon id="laptop-screen-outline" points="37.6410064 38.619528 241.497278 12.4359336 210.82765 193.104737 7.67999932 190.206445"></polygon>
                </g>
                <path d="M194.504209,81.0770481 L196.708605,72.1258704 L215.155969,70.2057858 L212.988763,79.3225908 L194.504209,81.0770481 Z M230.458023,78.217892 L232.4623,69.3819827 L241.563835,68.5636861 L239.583161,77.4450754 L230.458023,78.217892 Z M259.21945,75.005988 L261.203755,65.8031101 L298.632338,62.9120467 L296.645787,72.487615 L259.21945,75.005988 Z M192.104957,93.6212447 L194.263916,84.4889552 L229.956802,81.2720249 L227.83121,90.7892792 L192.104957,93.6212447 Z M246.886233,89.689329 L248.673318,80.7635732 L324.290831,74.6086439 L322.4439,84.3341484 L246.886233,89.689329 Z M188.643302,105.960773 L190.566948,97.1368003 L218.192419,94.8162796 L216.297917,103.916004 L188.643302,105.960773 Z M235.078627,103.320255 L236.881928,94.2382518 L274.133854,91.2726556 L272.318654,100.729822 L235.078627,103.320255 Z M290.38692,99.9887314 L292.012902,90.7723784 L311.643335,89.5687639 L310.003775,98.9415894 L290.38692,99.9887314 Z M186.04026,119.852202 L187.891601,110.839555 L243.318293,106.847086 L241.466147,116.487709 L186.04026,119.852202 Z M259.839157,114.297935 L261.699774,104.45287 L290.618969,102.789016 L288.7223,112.926726 L259.839157,114.297935 Z M184.297875,131.730175 L186.202226,122.290321 L213.63246,120.46457 L211.733484,130.199387 L184.297875,131.730175 Z M229.267727,129.600244 L231.050543,119.977655 L269.205797,117.717476 L267.377101,127.754889 L229.267727,129.600244 Z M285.626667,126.374294 L287.189811,116.959937 L325.668932,114.559828 L324.022191,124.350364 L285.626667,126.374294 Z M182.222809,144.891462 L183.747816,136.191995 L220.432815,133.720753 L218.904195,142.801724 L182.222809,144.891462 Z M236.567499,142.096469 L238.10735,132.735766 L257.412451,131.868175 L255.856801,141.400906 L236.567499,142.096469 Z M273.862068,140.398241 L275.380576,130.946595 L313.4862,129.076498 L311.879209,138.910552 L273.862068,140.398241 Z M179.04459,157.94388 L180.503188,149.10351 L216.925142,147.196795 L215.452052,156.425752 L179.04459,157.94388 Z M234.175695,156.26685 L235.772631,146.546383 L273.678714,144.539404 L272.000398,154.671674 L234.175695,156.26685 Z M291.438658,153.497816 L292.819405,144.189028 L312.104009,143.250411 L310.679802,152.712584 L291.438658,153.497816 Z M177.404356,170.685961 L178.684629,161.994126 L234.413725,160.006823 L233.079387,169.319652 L177.404356,170.685961 Z M251.654521,169.848863 L253.343912,159.50703 L272.475732,158.779765 L270.73763,169.303934 L251.654521,169.848863 Z M288.619849,168.623257 L289.990128,159.154202 L327.65622,157.686503 L326.158193,167.527115 L288.619849,168.623257 Z M174.285585,184.515796 L175.660326,175.024811 L194.698177,174.442137 L193.310569,184.124884 L174.285585,184.515796 Z M212.008897,183.757937 L213.470503,173.761569 L223.320875,173.509071 L221.850947,183.57163 L212.008897,183.757937 Z M240.628462,183.229206 L241.808053,174.146575 L269.916343,173.396148 L268.672533,182.749475 L240.628462,183.229206 Z M286.34434,182.46656 L287.708004,172.837869 L334.163898,171.679799 L332.611816,181.796332 L286.34434,182.46656 Z" id="data-tablet-text" fill-opacity="0.6" fill="#9013FE" fill-rule="nonzero"></path>
            </g>
            <g id="data-extraction-phone" transform="translate(30.000000, 0.000000)">
                <path d="M158.819228,41.399269 L24.351259,41.399269 C11.096425,41.399269 0.351259,52.144435 0.351259,65.399269 L0.351259,179.570788 C0.351259,193.217034 7.066987,204.279503 15.351259,204.279503 L268.616649,204.279503" id="Line-Copy-6" stroke="#50E3C2" stroke-width="2" stroke-linecap="square" stroke-dasharray="5,5" transform="translate(134.483954, 122.839386) scale(-1, 1) rotate(-180.000000) translate(-134.483954, -122.839386) "></path>
                <g id="phone" transform="translate(222.282025, 0.000000)" stroke="#979797">
                    <path d="M28.2083724,10.148451 C26.4340079,18.0403003 17.3105968,58.0132568 0.290863082,130.06732 C-0.646619607,137.608919 0.681710257,142.130041 4.28154363,143.62997 C9.67594023,145.902324 45.2839497,160.326774 47.9552086,161.749218 C50.6250202,163.179543 60.2357276,162.179524 62.3503234,153.368454 C64.4499407,144.557384 89.5615655,33.8165563 91.2360857,26.0399288 C92.898938,18.2633014 93.5029935,13.1167834 85.2852123,11.0580654 C79.798255,9.71485976 66.0857162,6.02628342 44.0567073,0.2864669 C35.2597998,-1.04297135 29.973877,2.25660163 28.2083724,10.148451 Z" id="Path-10" fill="#FFFFFF"></path>
                    <polygon id="Path-11" points="27.7912721 18.7676688 82.8685358 33.6197949 56.9688412 146.829409 2.76228453 125.882984"></polygon>
                    <path d="M28.1753022,10.0119992 C30.4023102,4.69647656 33.9041442,2.29785856 38.6790608,2.83323277 C43.4480506,3.3809487 57.0046306,6.72094866 79.253663,13.1749146 C85.979798,14.6055019 88.1733526,20.7795491 85.8248204,31.6733627 C82.2598543,48.0140831 60.7414493,142.13265 58.4555179,151.718994 C56.1521714,161.305337 51.0111958,163.140958 45.4740921,160.838813" id="Path-12"></path>
                </g>
                <g id="data-extraction-phone-text" transform="translate(241.065560, 27.047523)" fill="#50E3C2" stroke="#50E3C2">
                    <polygon id="Path" points="40.5149859 20.5545321 44.9603201 22.002815 43.156212 30.3541867 38.6469269 28.8346417"></polygon>
                    <polygon id="Path" points="36.1261051 28.2163248 31.6208114 26.7216539 33.4651434 18.5112814 38.1039788 19.9980653"></polygon>
                    <polygon id="Path" points="29.4578759 25.7409067 9.14755815 19.913779 11.2572493 11.8419891 31.3692387 17.5765936"></polygon>
                    <polygon id="Path" points="38.8999513 7.42416349 51.112163 10.9767459 49.4100255 19.3581234 37.1450719 15.6569272"></polygon>
                    <polygon id="Path" points="36.7444487 63.0700833 0.492459263 51.4597472 3.76439065 39.8131381 40.1037105 51.0037524"></polygon>
                    <polygon id="Path" points="34.5362871 14.8299308 12.1136849 8.51812578 14.1637222 0.446335874 36.3634064 6.64615507"></polygon>
                    <polygon id="Path" points="36.9960931 41.2145483 5.95595835 31.8274166 8.12850493 23.7556267 38.8812189 32.9667295"></polygon>
                </g>
            </g>
        </g>
    </g>
</svg>