<?xml version="1.0" encoding="utf-8"?>
<!-- Generator: Adobe Illustrator 22.1.0, SVG Export Plug-In . SVG Version: 6.00 Build 0)  -->
<svg version="1.1" id="Layer_1" xmlns="http://www.w3.org/2000/svg" xmlns:xlink="http://www.w3.org/1999/xlink" x="0px" y="0px"
	 viewBox="0 0 101.2 70.9" style="enable-background:new 0 0 101.2 70.9;" xml:space="preserve">
<style type="text/css">
	.st0{fill:#FFFFFF;}
	.st1{fill:#9013FE;}
	.st2{fill:#333333;}
</style>
<title>Artboard</title>
<desc>Created with Sketch.</desc>
<rect x="0.3" y="18.7" class="st0" width="100" height="33.6"/>
<path class="st1" d="M36.3,18.7h-36v33.6H7V35.1c0-7,5.2-12.8,11.7-12.8S30.4,28,30.4,35.1v17.1h6L36.3,18.7L36.3,18.7z"/>
<path class="st1" d="M29.2,35.1c0-6.4-4.8-11.6-10.5-11.6S8.1,28.7,8.1,35.1v17.1h21.1V35.1z M24.5,27.3c1.4,1,2.3,2.4,2.4,4
	c0.3,2.5-0.3,4.2-1.8,5l-0.5-0.8c1.1-0.6,1.6-1.9,1.4-4.1c-0.1-1.3-0.9-2.5-2.1-3.4L24.5,27.3z M24,34.1l-0.7-0.6
	c1.3-1.4,0-3.9-2.2-4.5c-4.7-1.2-7.9,1.4-7.9,4.9c0,3,2,5.1,6.1,6.1l-0.2,0.9c-4.5-1.1-6.8-3.4-6.8-7c0-4.2,3.8-7.1,9.1-5.8
	C24.2,28.8,25.9,32.1,24,34.1z M22.8,40.2c0,2.4-2,3.4-4.2,3.4c-1.7,0-3.3-0.6-4.5-1.7l0.5-0.8c1,1,2.5,1.6,4.1,1.6
	c1.7,0,3.2-0.7,3.2-2.3c0.1-3.6-7.1-1.9-7.1-6.3c0-2.2,1.8-3.2,4-3.2c1.4,0,2.5,0.4,3.5,1l-0.4,0.8c-0.9-0.5-1.9-0.9-3.1-0.9
	c-1.7,0-3,0.7-3,2.2C15.8,37.4,22.8,35.8,22.8,40.2z M23.2,26.5l-0.4,0.8c-5.2-2.6-10.3-0.5-11.9,4.4L10,31.4
	C11.8,26.1,17.5,23.7,23.2,26.5z M10.5,33.2c0,3.1,1,5.6,3.1,7.4L13,41.3c-2.2-2-3.3-4.7-3.3-8.1C9.7,33.2,10.5,33.2,10.5,33.2z
	 M11.2,46.2c-1.3-0.9-2.2-1.9-2.8-2.8l0.8-0.5c0.6,0.9,1.4,1.7,2.6,2.6L11.2,46.2z M14.4,45.4c-3-1.6-4.9-3.4-5.7-5.7l0.9-0.3
	c0.7,2,2.5,3.8,5.3,5.2L14.4,45.4z M15.5,45.9l0.2-0.9c5,1.3,8.2-0.9,8.6-4.5c0.3-3.5-2.2-5.6-6.6-6.4l0.2-0.9
	c4.8,0.9,7.7,3.3,7.3,7.3C24.8,44.8,21,47.4,15.5,45.9z M24.9,46.1l-0.6-0.6c2.3-2.3,2.8-5,1.4-8.2l0.9-0.4
	C28,40.4,27.5,43.5,24.9,46.1z"/>
<g>
	<title>Artboard</title>
	<desc>Created with Sketch.</desc>
	<g>
		<rect x="-144.2" y="174.7" class="st0" width="100" height="33.6"/>
		<path class="st1" d="M-108.2,174.7h-36v33.6h6.7v-17.2c0-7,5.2-12.8,11.7-12.8s11.7,5.7,11.7,12.8v17.1h6L-108.2,174.7
			L-108.2,174.7z"/>
		<path class="st1" d="M-115.3,191.1c0-6.4-4.8-11.6-10.5-11.6s-10.6,5.2-10.6,11.6v17.1h21.1V191.1z M-120,183.3
			c1.4,1,2.3,2.4,2.4,4c0.3,2.5-0.3,4.2-1.8,5l-0.5-0.8c1.1-0.6,1.6-1.9,1.4-4.1c-0.1-1.3-0.9-2.5-2.1-3.4L-120,183.3z
			 M-120.5,190.1l-0.7-0.6c1.3-1.4,0-3.9-2.2-4.5c-4.7-1.2-7.9,1.4-7.9,4.9c0,3,2,5.1,6.1,6.1l-0.2,0.9c-4.5-1.1-6.8-3.4-6.8-7
			c0-4.2,3.8-7.1,9.1-5.8C-120.3,184.8-118.6,188.1-120.5,190.1z M-121.7,196.2c0,2.4-2,3.4-4.2,3.4c-1.7,0-3.3-0.6-4.5-1.7l0.5-0.8
			c1,1,2.5,1.6,4.1,1.6c1.7,0,3.2-0.7,3.2-2.3c0.1-3.6-7.1-1.9-7.1-6.3c0-2.2,1.8-3.2,4-3.2c1.4,0,2.5,0.4,3.5,1l-0.4,0.8
			c-0.9-0.5-1.9-0.9-3.1-0.9c-1.7,0-3,0.7-3,2.2C-128.7,193.4-121.7,191.8-121.7,196.2z M-121.3,182.5l-0.4,0.8
			c-5.2-2.6-10.3-0.5-11.9,4.4l-0.9-0.3C-132.7,182.1-127,179.7-121.3,182.5z M-134,189.2c0,3.1,1,5.6,3.1,7.4l-0.6,0.7
			c-2.2-2-3.3-4.7-3.3-8.1C-134.8,189.2-134,189.2-134,189.2z M-133.3,202.2c-1.3-0.9-2.2-1.9-2.8-2.8l0.8-0.5
			c0.6,0.9,1.4,1.7,2.6,2.6L-133.3,202.2z M-130.1,201.4c-3-1.6-4.9-3.4-5.7-5.7l0.9-0.3c0.7,2,2.5,3.8,5.3,5.2L-130.1,201.4z
			 M-129,201.9l0.2-0.9c5,1.3,8.2-0.9,8.6-4.5c0.3-3.5-2.2-5.6-6.6-6.4l0.2-0.9c4.8,0.9,7.7,3.3,7.3,7.3
			C-119.7,200.8-123.5,203.4-129,201.9z M-119.6,202.1l-0.6-0.6c2.3-2.3,2.8-5,1.4-8.2l0.9-0.4C-116.5,196.4-117,199.5-119.6,202.1z
			"/>
		<path class="st2" d="M-47.9,183.8h3.7v15.3c0,5-3.4,8.2-8.7,8.2c-2.6,0-5.5-1.1-7.3-2.6l1-2.7c1.6,1.3,3.9,2.1,5.9,2.2
			c3.3,0,5.3-2,5.3-5.2v-2.7c-1.2,2.1-3.3,3.1-6.4,3.2c-4,0-6.4-2.6-6.4-6.6v-9.1h3.7v8c0,2.6,1.6,4.2,4.1,4.2
			c3.1,0,4.9-2.2,4.9-5.6L-47.9,183.8L-47.9,183.8z M-74.7,198c2.9,0,5-2,5.3-5v-1.3c-0.3-3-2.3-5-5.3-5c-3.1,0-5.3,2.4-5.3,5.6
			C-79.9,195.7-77.8,198-74.7,198z M-69.4,183.8h3.7v17.1h-3.7V198c-1.3,2-3.3,3-6,3c-5,0-8.3-3.6-8.3-8.8c0-5.1,3.3-8.6,8.2-8.7
			c2.8,0,4.9,1.1,6.2,3L-69.4,183.8L-69.4,183.8z M-87.5,188.1c-1.5-0.9-3.4-1.5-5-1.5c-1.4,0-2.5,0.5-2.5,1.7
			c0,3.2,9.2,1.4,9.1,7.7c0,3.5-3.2,5.1-6.6,5.1c-2.5,0-5.2-0.9-6.9-2.4l1.4-2.6c1.5,1.3,3.9,2.1,5.8,2.1c1.6,0,2.8-0.5,2.8-1.8
			c0-3.5-9.1-1.6-9.1-7.7c0-3.5,3.1-5,6.4-5c2.2,0,4.5,0.6,6,1.7L-87.5,188.1z"/>
	</g>
</g>
<g>
	<path class="st2" d="M48.6,44.4c-1.2-0.4-2.1-0.8-2.8-1.3v-3.7c0-0.2,0.1-0.3,0.2-0.5c0.1-0.1,0.3-0.2,0.6-0.2
		c0.6,0,1.1,0.4,1.3,1.3l0.3,1.5c0.4,0.3,0.9,0.5,1.6,0.7s1.4,0.3,2.1,0.3c2.1,0,3.2-0.6,3.2-1.8c0-0.5-0.1-0.8-0.4-1.1
		c-0.3-0.3-0.6-0.6-1.1-0.8c-0.5-0.2-1.4-0.7-2.8-1.4c-1.7-0.8-3-1.6-3.7-2.4c-0.7-0.8-1.1-1.7-1.1-2.9c0-1.5,0.6-2.6,1.8-3.4
		c1.2-0.8,2.7-1.2,4.5-1.2c1.2,0,2.4,0.2,3.5,0.6c1.1,0.4,2,0.9,2.6,1.4V33c0,0.2-0.1,0.3-0.2,0.4c-0.1,0.1-0.3,0.2-0.6,0.2
		c-0.3,0-0.6-0.1-0.8-0.3c-0.2-0.2-0.4-0.5-0.5-1l-0.4-1.5c-0.4-0.3-0.9-0.5-1.4-0.6c-0.6-0.2-1.2-0.2-1.8-0.2
		c-0.8,0-1.5,0.1-2.1,0.4c-0.5,0.3-0.8,0.8-0.8,1.4c0,0.4,0.1,0.7,0.3,1c0.2,0.3,0.5,0.5,1,0.8c0.4,0.2,1.1,0.6,2.1,1.1l1.1,0.5
		c1.7,0.8,2.9,1.6,3.6,2.3c0.7,0.7,1.1,1.7,1.1,2.9c0,1.6-0.7,2.7-2,3.4c-1.3,0.7-2.9,1.1-4.8,1.1C51,45,49.8,44.8,48.6,44.4z"/>
	<path class="st2" d="M62.4,43.7c-1-0.8-1.5-2-1.5-3.5c0-1.7,0.6-3,1.8-3.8c1.2-0.8,2.8-1.3,4.8-1.6l4-0.6V33c0-1-0.3-1.7-0.9-2.2
		c-0.6-0.5-1.4-0.8-2.4-0.8c-0.6,0-1.3,0.1-2.1,0.3c-0.8,0.2-1.4,0.4-1.8,0.7l-0.3,1.4c-0.1,0.5-0.3,0.8-0.5,1
		c-0.2,0.2-0.5,0.3-0.8,0.3c-0.2,0-0.4-0.1-0.6-0.2c-0.1-0.1-0.2-0.3-0.2-0.5v-3.6c1-0.6,2.1-1,3.3-1.4c1.2-0.4,2.5-0.5,3.6-0.5
		c2,0,3.6,0.5,4.8,1.4c1.2,1,1.8,2.4,1.8,4.2v9.2l1.1,0.4c0.5,0.2,0.8,0.4,1,0.6s0.3,0.4,0.3,0.6c0,0.4-0.2,0.6-0.5,0.6h-5.7v-1.9
		h-0.1c-0.6,0.7-1.4,1.3-2.3,1.7s-1.9,0.6-3,0.6C64.7,45,63.4,44.6,62.4,43.7z M69.4,41.9c0.6-0.3,1.1-0.8,1.5-1.3
		c0.4-0.6,0.6-1.2,0.6-1.8v-2.2L68.2,37c-2.2,0.4-3.4,1.4-3.4,3c0,0.7,0.2,1.3,0.7,1.7c0.5,0.4,1.1,0.6,1.9,0.6
		C68.1,42.4,68.7,42.2,69.4,41.9z"/>
	<path class="st2" d="M79,51.7c-0.4-0.4-0.6-0.8-0.6-1.4c0-0.5,0.1-0.9,0.4-1.3c1.5,0,2.7-0.2,3.6-0.7c0.9-0.5,1.6-1.4,2.2-2.7
		l0.4-1.1l-6.1-14.4h-1.3c-0.5,0-0.8-0.3-0.8-1c0-0.5,0.2-0.8,0.5-1s0.7-0.3,1.3-0.3h6.6c0.4,0,0.5,0.2,0.5,0.6
		c0,0.5-0.4,0.9-1.2,1.2L83,30.1l3.8,9.2c0.1,0.2,0.1,0.5,0.2,0.8c0,0.3,0,0.5,0,0.6h0.2c0-0.1,0-0.3,0.1-0.6s0.1-0.6,0.2-0.8
		l3.9-9.2h-1.8c-0.5,0-0.8-0.3-0.8-1c0-0.5,0.2-0.8,0.5-1s0.7-0.3,1.3-0.3h5.8c0.4,0,0.5,0.2,0.5,0.6c0,0.2-0.1,0.5-0.3,0.6
		s-0.5,0.4-0.9,0.5l-1.3,0.6l-6.4,15c-1,2.3-2,4-3.1,5.2c-1.1,1.2-2.5,1.8-4,1.8C80,52.2,79.5,52,79,51.7z"/>
</g>
<g>
	<title>Artboard</title>
	<desc>Created with Sketch.</desc>
	<g>
		<rect x="-144.2" y="18.7" class="st0" width="100" height="33.6"/>
		<path class="st1" d="M-108.2,18.7h-36v33.6h6.7V35.1c0-7,5.2-12.8,11.7-12.8s11.7,5.7,11.7,12.8v17.1h6L-108.2,18.7L-108.2,18.7z"
			/>
		<path class="st1" d="M-115.3,35.1c0-6.4-4.8-11.6-10.5-11.6s-10.6,5.2-10.6,11.6v17.1h21.1V35.1z M-120,27.3c1.4,1,2.3,2.4,2.4,4
			c0.3,2.5-0.3,4.2-1.8,5l-0.5-0.8c1.1-0.6,1.6-1.9,1.4-4.1c-0.1-1.3-0.9-2.5-2.1-3.4L-120,27.3z M-120.5,34.1l-0.7-0.6
			c1.3-1.4,0-3.9-2.2-4.5c-4.7-1.2-7.9,1.4-7.9,4.9c0,3,2,5.1,6.1,6.1l-0.2,0.9c-4.5-1.1-6.8-3.4-6.8-7c0-4.2,3.8-7.1,9.1-5.8
			C-120.3,28.8-118.6,32.1-120.5,34.1z M-121.7,40.2c0,2.4-2,3.4-4.2,3.4c-1.7,0-3.3-0.6-4.5-1.7l0.5-0.8c1,1,2.5,1.6,4.1,1.6
			c1.7,0,3.2-0.7,3.2-2.3c0.1-3.6-7.1-1.9-7.1-6.3c0-2.2,1.8-3.2,4-3.2c1.4,0,2.5,0.4,3.5,1l-0.4,0.8c-0.9-0.5-1.9-0.9-3.1-0.9
			c-1.7,0-3,0.7-3,2.2C-128.7,37.4-121.7,35.8-121.7,40.2z M-121.3,26.5l-0.4,0.8c-5.2-2.6-10.3-0.5-11.9,4.4l-0.9-0.3
			C-132.7,26.1-127,23.7-121.3,26.5z M-134,33.2c0,3.1,1,5.6,3.1,7.4l-0.6,0.7c-2.2-2-3.3-4.7-3.3-8.1
			C-134.8,33.2-134,33.2-134,33.2z M-133.3,46.2c-1.3-0.9-2.2-1.9-2.8-2.8l0.8-0.5c0.6,0.9,1.4,1.7,2.6,2.6L-133.3,46.2z
			 M-130.1,45.4c-3-1.6-4.9-3.4-5.7-5.7l0.9-0.3c0.7,2,2.5,3.8,5.3,5.2L-130.1,45.4z M-129,45.9l0.2-0.9c5,1.3,8.2-0.9,8.6-4.5
			c0.3-3.5-2.2-5.6-6.6-6.4l0.2-0.9c4.8,0.9,7.7,3.3,7.3,7.3C-119.7,44.8-123.5,47.4-129,45.9z M-119.6,46.1l-0.6-0.6
			c2.3-2.3,2.8-5,1.4-8.2l0.9-0.4C-116.5,40.4-117,43.5-119.6,46.1z"/>
		<path class="st2" d="M-47.9,27.8h3.7v15.3c0,5-3.4,8.2-8.7,8.2c-2.6,0-5.5-1.1-7.3-2.6l1-2.7c1.6,1.3,3.9,2.1,5.9,2.2
			c3.3,0,5.3-2,5.3-5.2v-2.7c-1.2,2.1-3.3,3.1-6.4,3.2c-4,0-6.4-2.6-6.4-6.6v-9.1h3.7v8c0,2.6,1.6,4.2,4.1,4.2
			c3.1,0,4.9-2.2,4.9-5.6L-47.9,27.8L-47.9,27.8z M-74.7,42c2.9,0,5-2,5.3-5v-1.3c-0.3-3-2.3-5-5.3-5c-3.1,0-5.3,2.4-5.3,5.6
			C-79.9,39.7-77.8,42-74.7,42z M-69.4,27.8h3.7v17.1h-3.7V42c-1.3,2-3.3,3-6,3c-5,0-8.3-3.6-8.3-8.8c0-5.1,3.3-8.6,8.2-8.7
			c2.8,0,4.9,1.1,6.2,3L-69.4,27.8L-69.4,27.8z M-87.5,32.1c-1.5-0.9-3.4-1.5-5-1.5c-1.4,0-2.5,0.5-2.5,1.7c0,3.2,9.2,1.4,9.1,7.7
			c0,3.5-3.2,5.1-6.6,5.1c-2.5,0-5.2-0.9-6.9-2.4l1.4-2.6c1.5,1.3,3.9,2.1,5.8,2.1c1.6,0,2.8-0.5,2.8-1.8c0-3.5-9.1-1.6-9.1-7.7
			c0-3.5,3.1-5,6.4-5c2.2,0,4.5,0.6,6,1.7L-87.5,32.1z"/>
	</g>
</g>
</svg>
