<?xml version="1.0" encoding="utf-8"?>
<!-- Generator: Adobe Illustrator 23.0.4, SVG Export Plug-In . SVG Version: 6.00 Build 0)  -->
<svg version="1.1" id="Layer_1" xmlns="http://www.w3.org/2000/svg" xmlns:xlink="http://www.w3.org/1999/xlink" x="0px" y="0px"
	 viewBox="0 0 216.8 185" style="enable-background:new 0 0 216.8 185;" xml:space="preserve">
<style type="text/css">
	.st0{fill:#FFFFFF;}
</style>
<path class="st0" d="M128.1,125.1h-3.8c-7,0-12.5-1.9-15.9-5.4c-3.4,3.5-8.8,5.4-15.9,5.4h-3.9v-7.7h3.9c12,0,12-6.1,12-8v-45
	c0-2,0-8-12-8h-3.9v-7.7h3.9c7,0,12.5,1.9,15.9,5.4c3.4-3.5,8.8-5.4,15.9-5.4h3.9v7.7h-3.9c-12,0-12,6.1-12,8v45c0,2,0,8,12,8h3.9
	L128.1,125.1L128.1,125.1z M216.8,89L216.8,89L216.8,89L216.8,89L216.8,89L216.8,89L216.8,89c0-24.1-11.5-46.7-32.3-63.5
	C164.1,9,137.1,0,108.5,0h-0.2C79.7,0,52.7,9,32.4,25.5C11.5,42.3,0,64.8,0,88.9c0,23.1,11,45.4,30.4,61.8l-5.9,24.4
	c-0.7,3,0.3,6.1,2.6,8c1.5,1.2,3.3,1.9,5.2,1.9c1.1,0,2.2-0.2,3.2-0.7c12.3-5.3,27-11.4,32.1-13c12.9,4.3,26.6,6.5,40.6,6.5
	c24.3,0,48.9-7.8,69.3-21.9c19.5-13.5,32.9-31.3,36.7-48.9c2.1-8.3,2.5-17,2.5-17.9C216.8,89.1,216.8,89.1,216.8,89"/>
</svg>
