<?xml version="1.0" encoding="utf-8"?>
<!-- Generator: Adobe Illustrator 23.0.4, SVG Export Plug-In . SVG Version: 6.00 Build 0)  -->
<svg version="1.1" id="Layer_1" xmlns="http://www.w3.org/2000/svg" xmlns:xlink="http://www.w3.org/1999/xlink" x="0px" y="0px"
	 viewBox="0 0 216.7 185" style="enable-background:new 0 0 216.7 185;" xml:space="preserve">
<style type="text/css">
	.st0{fill:#9240F2;}
</style>
<g>
	<path class="st0" d="M126.9,123.9h-2.6c-7.4,0-12.9-2.1-15.9-6c-3,3.9-8.4,6-15.9,6h-2.6v-5.3h2.6c8.8,0,13.2-3.1,13.2-9.3v-45
		c0-6.2-4.5-9.3-13.2-9.3h-2.6v-5.3h2.6c7.4,0,12.9,2.1,15.9,6c3-3.9,8.4-6,15.9-6h2.6V55h-2.6c-8.8,0-13.2,3.1-13.2,9.3v45
		c0,6.2,4.5,9.3,13.2,9.3h2.6V123.9z M216.7,89L216.7,89L216.7,89L216.7,89L216.7,89L216.7,89L216.7,89c0-24.1-11.5-46.7-32.3-63.5
		C164,9,137.1,0,108.5,0h-0.3C79.6,0,52.7,9,32.3,25.5C11.5,42.3,0,64.8,0,88.9c0,23.1,11,45.4,30.4,61.8l-5.9,24.4
		c-0.7,3,0.3,6.1,2.6,8c1.5,1.2,3.3,1.9,5.2,1.9c1.1,0,2.2-0.2,3.2-0.7c12.3-5.3,27-11.4,32.1-13c12.9,4.3,26.6,6.5,40.6,6.5
		c24.3,0,48.9-7.8,69.3-21.9c19.5-13.5,32.9-31.3,36.7-48.9C216.3,98.7,216.7,90,216.7,89C216.7,89.1,216.7,89.1,216.7,89"/>
</g>
</svg>
