<?xml version="1.0" encoding="utf-8"?>
<!-- Generator: Adobe Illustrator 22.1.0, SVG Export Plug-In . SVG Version: 6.00 Build 0)  -->
<svg version="1.1" id="Layer_1" xmlns="http://www.w3.org/2000/svg" xmlns:xlink="http://www.w3.org/1999/xlink" x="0px" y="0px"
	 viewBox="0 0 282.4 266.8" style="enable-background:new 0 0 282.4 266.8;" xml:space="preserve">
<style type="text/css">
	.st0{fill:#50455B;}
	.st1{fill:#9240F2;}
</style>
<g>
	<path class="st0" d="M6.5,253.4c-2.7-0.7-4.9-1.5-6.5-2.6v-8.8c0-0.3,0.1-0.6,0.3-0.9c0.2-0.2,0.5-0.3,0.9-0.3
		c0.6,0,1.1,0.2,1.5,0.7c0.4,0.5,0.8,1.4,1.2,2.8l1,3.4c0.9,0.6,2.1,1.1,3.8,1.5s3.2,0.6,4.9,0.6c2.4,0,4.5-0.4,6.2-1.3
		c1.7-0.9,2.5-2.3,2.5-4.1c0-1.3-0.3-2.3-0.9-3.2c-0.6-0.9-1.6-1.7-2.9-2.5c-1.3-0.8-3.3-1.7-5.9-2.8c-4-1.7-7-3.6-9.2-5.4
		c-2.1-1.9-3.2-4.3-3.2-7.3c0-2.4,0.6-4.3,1.9-5.9c1.3-1.6,3-2.8,5.1-3.5c2.1-0.8,4.4-1.1,6.8-1.1c2.5,0,5,0.4,7.4,1.1
		c2.4,0.8,4.4,1.7,6,3v8.2c0,0.8-0.4,1.2-1.2,1.2c-0.6,0-1.1-0.2-1.5-0.7c-0.4-0.5-0.8-1.4-1.2-2.8l-1-3.4c-2-1.3-4.6-2-7.9-2
		c-2.1,0-3.8,0.4-5.2,1.2c-1.3,0.8-2,2.1-2,3.8c0,1.1,0.4,2.1,1.1,2.9c0.7,0.8,1.7,1.6,2.9,2.2c1.2,0.7,3.1,1.6,5.6,2.7l1.5,0.7
		c2.4,1.1,4.4,2.2,5.9,3.3c1.5,1.1,2.8,2.4,3.7,3.9c0.9,1.6,1.4,3.4,1.4,5.6c0,3.6-1.4,6.3-4.2,8.1c-2.8,1.8-6.5,2.7-11,2.7
		C11.8,254.5,9.3,254.1,6.5,253.4"/>
	<path class="st0" d="M48.7,249.2c1.1-0.6,1.9-1.3,2.6-2.3c0.7-0.9,1-2,1-3v-3.8l-5.6,0.9c-3.8,0.7-5.7,2.4-5.7,5.1
		c0,1.2,0.4,2.2,1.2,2.9c0.8,0.7,1.8,1.1,3.2,1.1C46.5,250.1,47.6,249.8,48.7,249.2 M36.8,252.3c-1.8-1.4-2.6-3.4-2.6-6
		c0-2.9,1-5.1,3.1-6.4c2.1-1.4,4.8-2.3,8.1-2.8l6.8-1V234c0-1.6-0.5-2.9-1.5-3.8c-1-0.9-2.4-1.4-4.2-1.4c-1.1,0-2.3,0.2-3.6,0.5
		c-1.3,0.3-2.3,0.8-3,1.2l-0.6,2.4c-0.2,0.8-0.5,1.3-0.8,1.7c-0.4,0.4-0.8,0.6-1.4,0.6c-0.4,0-0.7-0.1-1-0.3
		c-0.2-0.2-0.3-0.5-0.3-0.8v-6.2c1.7-1,3.6-1.7,5.7-2.3c2.1-0.6,4.2-0.9,6.2-0.9c3.4,0,6.1,0.8,8.2,2.5c2.1,1.6,3.1,4,3.1,7.1v15.7
		l1.9,0.8c0.8,0.3,1.3,0.7,1.6,1c0.3,0.3,0.5,0.6,0.5,1.1c0,0.7-0.3,1-0.9,1h-9.7v-3.2h-0.2c-1,1.2-2.3,2.2-3.9,2.9
		c-1.6,0.7-3.3,1.1-5.1,1.1C40.7,254.5,38.6,253.8,36.8,252.3"/>
	<path class="st0" d="M67.7,265.9c-0.7-0.6-1.1-1.4-1.1-2.4c0-0.8,0.2-1.6,0.7-2.3c2.6,0,4.6-0.4,6.1-1.2c1.5-0.8,2.7-2.3,3.7-4.5
		l0.8-1.9l-10.4-24.5h-2.2c-0.9,0-1.3-0.5-1.3-1.6c0-0.8,0.3-1.4,0.8-1.7c0.5-0.4,1.3-0.6,2.2-0.6h11.2c0.6,0,0.9,0.3,0.9,1
		c0,0.8-0.7,1.5-2.1,2l-2.6,1l6.4,15.6c0.2,0.3,0.3,0.8,0.3,1.4c0,0.6,0.1,0.9,0.1,1.1h0.3c0-0.2,0-0.6,0.1-1.1
		c0.1-0.5,0.2-1,0.3-1.3l6.7-15.7h-3.1c-0.9,0-1.3-0.5-1.3-1.6c0-0.8,0.3-1.4,0.8-1.7c0.5-0.4,1.3-0.6,2.2-0.6h9.8
		c0.6,0,0.9,0.3,0.9,1c0,0.4-0.2,0.8-0.5,1.1c-0.4,0.3-0.9,0.6-1.5,0.9l-2.3,1l-10.9,25.6c-1.7,3.9-3.4,6.8-5.4,8.9
		c-1.9,2.1-4.2,3.1-6.9,3.1C69.3,266.8,68.4,266.5,67.7,265.9"/>
	<path class="st0" d="M135.8,237.2c0.2-0.5,0.3-1.1,0.3-1.7c0-2.1-0.6-3.7-1.7-4.9c-1.1-1.2-2.6-1.8-4.6-1.8c-2,0-3.7,0.8-5,2.3
		c-1.4,1.5-2.1,3.6-2.3,6.1H135.8z M123,252.8c-2.3-1.1-4-2.8-5.3-5c-1.3-2.2-1.9-4.9-1.9-8c0-3.2,0.6-5.9,1.8-8.2
		c1.2-2.3,2.9-4,5-5.2c2.1-1.2,4.6-1.8,7.3-1.8c2.5,0,4.8,0.5,6.8,1.5c1.9,1,3.5,2.4,4.6,4.3c1.1,1.9,1.6,4,1.6,6.5
		c0,0.7-0.1,1.5-0.3,2.3c-0.2,0.8-0.4,1.6-0.8,2.1h-19.3c0,2.9,0.8,5.2,2.5,6.7c1.6,1.5,3.6,2.3,5.9,2.3c1.4,0,2.5-0.2,3.6-0.5
		c1-0.3,2.2-0.9,3.4-1.6c0.2-0.1,0.4-0.2,0.8-0.4c0.4-0.2,0.7-0.3,0.9-0.3c0.5,0,0.9,0.2,1.3,0.6c0.3,0.4,0.5,0.9,0.5,1.4
		c0,0.5-0.2,1-0.5,1.4c-0.3,0.4-0.9,0.9-1.7,1.3c-2.6,1.5-5.4,2.2-8.6,2.2C127.8,254.5,125.2,253.9,123,252.8"/>
	<path class="st0" d="M166.3,248.5c1.3-1.2,1.9-2.8,1.9-4.8v-12.9c-0.9-0.6-1.8-1.1-3-1.5c-1.1-0.4-2.2-0.6-3.4-0.6
		c-2.5,0-4.5,0.9-6.1,2.8c-1.6,1.9-2.4,4.6-2.4,8.1c0,3.5,0.7,6.1,2.2,7.9c1.4,1.8,3.4,2.7,5.9,2.7
		C163.4,250.3,165,249.7,166.3,248.5 M153.2,252.9c-2-1.1-3.6-2.7-4.8-4.9c-1.2-2.2-1.8-4.9-1.8-8.2c0-3.1,0.6-5.7,1.9-8
		c1.3-2.3,3-4.1,5.1-5.3c2.1-1.2,4.5-1.8,7.2-1.8c2.7,0,5.2,0.7,7.6,2v-10.1h-2.7c-0.9,0-1.3-0.5-1.3-1.6c0-0.8,0.3-1.4,0.8-1.7
		c0.6-0.4,1.3-0.6,2.2-0.6h7.6v37.2l2.1,0.9c0.8,0.3,1.3,0.7,1.6,1c0.3,0.3,0.5,0.6,0.5,1.1c0,0.7-0.3,1-0.9,1h-9.8v-3.1h-0.2
		c-0.9,1.2-2.1,2.2-3.5,2.9c-1.4,0.7-3.1,1.1-5,1.1C157.4,254.5,155.2,253.9,153.2,252.9"/>
	<path class="st0" d="M186.5,219.9c-0.9-0.8-1.3-1.9-1.3-3.2s0.4-2.4,1.3-3.2c0.8-0.8,1.9-1.2,3.2-1.2c1.3,0,2.3,0.4,3.2,1.2
		c0.9,0.8,1.3,1.9,1.3,3.2s-0.4,2.4-1.3,3.2c-0.9,0.8-1.9,1.2-3.2,1.2C188.4,221.1,187.4,220.7,186.5,219.9 M182.5,252
		c0-1.5,1-2.3,3.1-2.3h0.9v-20.6h-2.7c-0.9,0-1.3-0.5-1.3-1.6c0-0.8,0.3-1.4,0.8-1.7c0.5-0.4,1.3-0.6,2.3-0.6h7.7v24.5l2.3,0.9
		c0.8,0.3,1.3,0.7,1.6,1c0.3,0.3,0.5,0.6,0.5,1.1c0,0.7-0.3,1-0.9,1h-13C182.9,253.6,182.5,253.1,182.5,252"/>
	<path class="st0" d="M207.9,252.3c-1.6-1.4-2.5-3.4-2.5-6v-16.7h-3.9c-0.5,0-0.8-0.2-1.1-0.5c-0.3-0.3-0.4-0.7-0.4-1.3
		c0-0.8,0.3-1.4,0.8-1.9c0.6-0.4,1.3-0.6,2.2-0.6h2.4l1-6.5h5.6v6.5h8.9c0.3,0,0.5,0.1,0.7,0.2c0.2,0.2,0.3,0.4,0.3,0.6
		c0,0.6-0.2,1.1-0.7,1.4c-0.5,0.3-1.3,0.6-2.4,0.8l-6.7,1.1v17.1c0,1.2,0.3,2,0.9,2.6c0.6,0.6,1.4,0.9,2.5,0.9
		c1.2,0,2.4-0.4,3.5-1.3c0.1-0.1,0.3-0.2,0.6-0.5c0.3-0.3,0.6-0.4,1-0.4c0.5,0,0.9,0.2,1.2,0.5c0.3,0.3,0.5,0.8,0.5,1.3
		c0,1-0.8,1.9-2.3,2.9c-1.8,1.1-3.8,1.7-6,1.7C211.6,254.5,209.6,253.7,207.9,252.3"/>
	<path class="st0" d="M245.4,247.5c1.3-1.9,1.9-4.5,1.9-8c0-3.4-0.6-6.1-1.9-7.9c-1.3-1.9-3.1-2.8-5.5-2.8c-2.4,0-4.2,0.9-5.5,2.8
		c-1.3,1.9-1.9,4.5-1.9,7.9c0,3.5,0.6,6.1,1.9,8c1.3,1.9,3.1,2.8,5.5,2.8C242.2,250.3,244.1,249.4,245.4,247.5 M232.5,252.8
		c-2.2-1.1-3.9-2.8-5.1-5c-1.3-2.2-1.9-5-1.9-8.2c0-3.2,0.6-6,1.9-8.2c1.3-2.2,3-3.9,5.1-5c2.2-1.1,4.6-1.7,7.3-1.7
		c2.7,0,5.1,0.6,7.3,1.7c2.1,1.1,3.8,2.8,5.1,5c1.3,2.2,1.9,5,1.9,8.2c0,3.2-0.6,6-1.9,8.2c-1.3,2.2-3,3.9-5.1,5
		c-2.1,1.1-4.6,1.7-7.3,1.7C237.1,254.5,234.7,253.9,232.5,252.8"/>
	<path class="st0" d="M258.4,252c0-1.5,1-2.3,3.1-2.3h0.9v-20.6h-2.7c-0.9,0-1.3-0.5-1.3-1.6c0-0.8,0.3-1.4,0.8-1.7
		c0.5-0.4,1.3-0.6,2.3-0.6h7.4v5.9h0.2c1.4-1.8,3-3.3,4.8-4.6c1.8-1.2,3.5-1.9,5.1-1.9c1.1,0,2,0.3,2.6,0.9c0.6,0.6,0.9,1.4,0.9,2.4
		c0,0.6-0.1,1.2-0.3,1.7c-0.2,0.6-0.5,1-0.8,1.4c-4.4,0-8.5,1.5-12.1,4.4v14.3l2.3,0.9c0.8,0.3,1.3,0.7,1.6,1
		c0.3,0.3,0.5,0.6,0.5,1.1c0,0.7-0.3,1-0.9,1h-13C258.8,253.6,258.4,253.1,258.4,252"/>
	<path class="st1" d="M158.6,123.9h-2.6c-7.4,0-12.9-2.1-15.9-6c-3,3.9-8.4,6-15.9,6h-2.6v-5.3h2.6c8.8,0,13.2-3.1,13.2-9.3v-45
		c0-6.2-4.5-9.3-13.2-9.3h-2.6v-5.3h2.6c7.4,0,12.9,2.1,15.9,6c3-3.9,8.4-6,15.9-6h2.6v5.3h-2.6c-8.8,0-13.2,3.1-13.2,9.3v45
		c0,6.2,4.5,9.3,13.2,9.3h2.6V123.9z M248.4,89L248.4,89L248.4,89L248.4,89L248.4,89L248.4,89L248.4,89c0-24.1-11.5-46.7-32.3-63.5
		C195.7,9,168.8,0,140.2,0h-0.3C111.3,0,84.4,9,64,25.5C43.2,42.3,31.7,64.8,31.7,88.9c0,23.1,11,45.4,30.4,61.8l-5.9,24.4
		c-0.7,3,0.3,6.1,2.6,8c1.5,1.2,3.3,1.9,5.2,1.9c1.1,0,2.2-0.2,3.2-0.7c12.3-5.3,27-11.4,32.1-13c12.9,4.3,26.6,6.5,40.6,6.5
		c24.3,0,48.9-7.8,69.3-21.9c19.5-13.5,32.9-31.3,36.7-48.9c2.1-8.3,2.5-17,2.5-17.9C248.4,89.1,248.4,89.1,248.4,89"/>
</g>
</svg>
