<?xml version="1.0" encoding="utf-8"?>
<!-- Generator: Adobe Illustrator 23.0.4, SVG Export Plug-In . SVG Version: 6.00 Build 0)  -->
<svg version="1.1" id="Layer_1" xmlns="http://www.w3.org/2000/svg" xmlns:xlink="http://www.w3.org/1999/xlink" x="0px" y="0px"
	 viewBox="0 0 153.5 131" style="enable-background:new 0 0 153.5 131;" xml:space="preserve">
<style type="text/css">
	.st0{fill:#50455B;}
</style>
<path class="st0" d="M90.7,88.6H88c-5,0-8.8-1.3-11.2-3.8c-2.4,2.5-6.3,3.8-11.2,3.8h-2.7v-5.5h2.6c8.5,0,8.5-4.3,8.5-5.7V45.6
	c0-1.4,0-5.7-8.5-5.7h-2.7v-5.5h2.7c5,0,8.8,1.3,11.2,3.8c2.4-2.5,6.3-3.8,11.2-3.8h2.7v5.5h-2.7c-8.5,0-8.5,4.3-8.5,5.7v31.8
	c0,1.4,0,5.7,8.5,5.7h2.7v5.5H90.7z M153.5,63L153.5,63L153.5,63L153.5,63L153.5,63L153.5,63L153.5,63c0-17.1-8.1-33-22.9-45
	C116.1,6.4,97,0,76.8,0h-0.2C56.4,0,37.3,6.4,22.9,18C8.1,30,0,45.9,0,63c0,16.3,7.8,32.1,21.5,43.8L17.3,124
	c-0.5,2.1,0.2,4.3,1.9,5.7c1,0.9,2.4,1.3,3.7,1.3c0.8,0,1.5-0.2,2.3-0.5c8.7-3.8,19.1-8.1,22.7-9.2c9.1,3,18.8,4.6,28.8,4.6
	c17.2,0,34.6-5.5,49-15.5c13.8-9.6,23.3-22.2,26-34.6c1.5-5.9,1.8-12.1,1.8-12.7C153.4,63.1,153.5,63.1,153.5,63"/>
</svg>
