<?xml version="1.0" encoding="utf-8"?>
<!-- Generator: Adobe Illustrator 23.0.4, SVG Export Plug-In . SVG Version: 6.00 Build 0)  -->
<svg version="1.1" id="Layer_1" xmlns="http://www.w3.org/2000/svg" xmlns:xlink="http://www.w3.org/1999/xlink" x="0px" y="0px"
	 viewBox="0 0 315.2 109.5" style="enable-background:new 0 0 315.2 109.5;" xml:space="preserve">
<style type="text/css">
	.st0{fill:#50455B;}
</style>
<g>
	<g>
		<path class="st0" d="M167.2,86.7c-4.5-1.2-8.1-2.7-10.7-4.5V69.1c0-1.1,0.6-1.7,1.7-1.7c0.9,0,1.6,0.3,2.1,1
			c0.5,0.7,1,1.9,1.4,3.7l1.4,6c1.7,1.2,4,2.2,7,2.9c2.9,0.7,5.9,1,8.8,1c4.5,0,8.3-0.8,11.3-2.4c3-1.6,4.6-4.2,4.6-7.8
			c0-2.4-0.6-4.4-1.7-6c-1.1-1.6-2.9-3.1-5.3-4.4c-2.4-1.3-6-3-10.6-4.9c-6.6-2.8-11.7-5.6-15.2-8.7c-3.5-3-5.2-7-5.2-11.8
			c0-5.6,2.2-9.9,6.6-12.8c4.4-2.9,9.7-4.3,16-4.3c4,0,8,0.6,12,1.9c4,1.3,7.2,2.9,9.8,5v12.5c0,0.5-0.2,0.9-0.4,1.2
			c-0.3,0.3-0.7,0.5-1.2,0.5c-0.9,0-1.6-0.3-2.1-1c-0.6-0.6-1-1.9-1.5-3.8l-1.4-5.9c-1.7-1.2-3.8-2.1-6.3-2.9c-2.5-0.7-5.2-1-8-1
			c-3.9,0-7.1,0.8-9.7,2.4c-2.5,1.6-3.8,4-3.8,7.2c0,2.1,0.6,4,1.9,5.5c1.3,1.5,2.9,2.9,5.2,4c2.2,1.2,5.5,2.8,9.8,4.7l2.1,0.9
			c4.4,1.9,7.9,3.7,10.6,5.5c2.7,1.8,4.8,4,6.3,6.4c1.5,2.5,2.3,5.5,2.3,9.1c0,6-2.3,10.3-6.9,13.2c-4.6,2.9-10.6,4.4-17.9,4.4
			C175.9,88.4,171.8,87.9,167.2,86.7"/>
		<path class="st0" d="M237.1,80.9c2.1-1,3.7-2.5,4.8-4.2c1.2-1.7,1.8-3.7,1.8-5.7v-7.1l-10.8,1.7c-3.4,0.6-6,1.6-7.9,3
			s-2.9,3.5-2.9,6.1c0,2.5,0.8,4.4,2.4,5.8s3.7,2.1,6.2,2.1C232.9,82.5,235.1,81.9,237.1,80.9 M217.5,85c-2.9-2.3-4.4-5.6-4.4-9.8
			c0-4.7,1.7-8.2,5-10.4s7.7-3.7,13-4.6l12.6-1.9v-3.9c0-2.9-1-5.3-2.8-7.1c-1.8-1.7-4.4-2.6-7.5-2.6c-1.9,0-4,0.3-6.3,1
			c-2.4,0.6-4.2,1.4-5.6,2.3l-1,4.1c-0.6,2.1-1.5,3.2-3,3.2c-0.6,0-1-0.2-1.3-0.4c-0.3-0.3-0.4-0.6-0.4-1.1v-9.4
			c2.6-1.5,5.6-2.9,9.1-3.9c3.4-1,6.7-1.5,10-1.5c5.2,0,9.6,1.3,12.9,4c3.3,2.7,5,6.6,5,11.6v27.4l3.4,1c1.1,0.4,1.9,0.8,2.3,1.2
			s0.7,1,0.7,1.7c0,0.9-0.4,1.3-1.3,1.3h-14v-6h-0.4c-1.7,2.2-4,4-6.7,5.3c-2.7,1.3-5.7,2-9,2C223.9,88.4,220.4,87.3,217.5,85"/>
		<path class="st0" d="M266.8,107.8c-1-0.8-1.5-1.9-1.5-3.3c0-1,0.3-2,0.9-3.1c4.4,0,7.9-0.8,10.4-2.3c2.5-1.5,4.6-4.3,6.3-8.3
			l1.4-3.7L267,45.4h-3.9c-1.2,0-1.8-0.7-1.8-2.2c0-1.1,0.4-1.9,1.1-2.4s1.7-0.8,3-0.8h17.4c0.9,0,1.3,0.5,1.3,1.3
			c0,1.3-1,2.3-2.9,2.8l-4.8,1.3L288.2,75c0.2,0.5,0.3,1.2,0.4,1.9c0.1,0.8,0.1,1.3,0.1,1.5h0.5c0-0.2,0-0.8,0.1-1.6
			c0.1-0.8,0.2-1.4,0.4-1.9l12-29.7h-5.7c-1.2,0-1.8-0.7-1.8-2.2c0-1.1,0.4-1.9,1.1-2.4s1.7-0.8,3-0.8h15.6c0.9,0,1.3,0.5,1.3,1.3
			c0,1.1-1,2.1-3,2.8l-4,1.3l-18.1,44.8c-2.5,6.1-5.2,10.7-8.3,14c-3,3.2-6.8,4.8-11.4,4.8C269.1,109,267.8,108.6,266.8,107.8"/>
	</g>
	<path class="st0" d="M109.2,15.1C97.2,5.4,81.2,0,64.3,0h-0.2C47.2,0,31.2,5.4,19.2,15.1C6.8,25,0,38.4,0,52.6
		c0,13.7,6.5,26.8,18,36.6l-3.5,14.4c-0.4,1.8,0.2,3.6,1.6,4.8c0.9,0.7,2,1.1,3.1,1.1c0.6,0,1.3-0.1,1.9-0.4c7.3-3.2,16-6.7,19-7.7
		c7.6,2.5,15.7,3.8,24.1,3.8c14.4,0,28.9-4.6,41-12.9c11.5-8,19.5-18.5,21.7-28.9c1.3-4.9,1.5-10.1,1.5-10.6c0-0.1,0-0.1,0-0.1l0,0
		l0,0l0,0l0,0l0,0l0,0C128.3,38.4,121.5,25,109.2,15.1z M75.8,33.4h-2.3c-7.1,0-7.1,3.6-7.1,4.8v26.6c0,1.2,0,4.8,7.1,4.8h2.3v4.6
		h-2.3c-4.2,0-7.4-1.1-9.4-3.2c-2,2.1-5.2,3.2-9.4,3.2h-2.3v-4.6h2.3c7.1,0,7.1-3.6,7.1-4.8V38.1c0-1.2,0-4.8-7.1-4.8h-2.3v-4.6h2.3
		c4.2,0,7.4,1.1,9.4,3.2c2-2.1,5.2-3.2,9.4-3.2h2.3V33.4z"/>
</g>
</svg>
