<?xml version="1.0" encoding="utf-8"?>
<!-- Generator: Adobe Illustrator 22.1.0, SVG Export Plug-In . SVG Version: 6.00 Build 0)  -->
<svg version="1.1" id="Layer_1" xmlns="http://www.w3.org/2000/svg" xmlns:xlink="http://www.w3.org/1999/xlink" x="0px" y="0px"
	 viewBox="0 0 200 188.9" style="enable-background:new 0 0 200 188.9;" xml:space="preserve">
<style type="text/css">
	.st0{fill:#50455B;}
</style>
<path class="st0" d="M4.6,179.5c-1.9-0.5-3.5-1.1-4.6-1.8v-6.2c0-0.2,0.1-0.5,0.2-0.6c0.1-0.2,0.4-0.2,0.7-0.2c0.4,0,0.8,0.2,1,0.5
	c0.3,0.3,0.5,1,0.8,2l0.7,2.4c0.6,0.4,1.5,0.8,2.7,1s2.3,0.4,3.4,0.4c1.7,0,3.2-0.3,4.4-0.9s1.8-1.6,1.8-2.9c0-0.9-0.2-1.7-0.6-2.3
	c-0.4-0.6-1.1-1.2-2-1.7c-0.9-0.5-2.3-1.2-4.1-2c-2.8-1.2-5-2.5-6.5-3.9c-1.5-1.3-2.3-3.1-2.3-5.2c0-1.7,0.5-3.1,1.4-4.2
	c0.9-1.1,2.1-1.9,3.6-2.5c1.5-0.5,3.1-0.8,4.8-0.8c1.8,0,3.5,0.3,5.2,0.8c1.7,0.5,3.1,1.2,4.2,2.1v5.8c0,0.6-0.3,0.9-0.9,0.9
	c-0.4,0-0.8-0.2-1-0.5s-0.5-1-0.8-2l-0.7-2.4c-1.4-0.9-3.3-1.4-5.6-1.4c-1.5,0-2.7,0.3-3.7,0.9c-0.9,0.6-1.4,1.5-1.4,2.7
	c0,0.8,0.3,1.5,0.8,2.1c0.5,0.6,1.2,1.1,2.1,1.6c0.9,0.5,2.2,1.1,3.9,1.9l1.1,0.5c1.7,0.8,3.1,1.6,4.2,2.3c1.1,0.8,2,1.7,2.6,2.8
	c0.6,1.1,1,2.4,1,4c0,2.6-1,4.5-3,5.8c-2,1.3-4.6,1.9-7.8,1.9C8.4,180.2,6.6,180,4.6,179.5"/>
<path class="st0" d="M34.5,176.5c0.8-0.4,1.4-0.9,1.8-1.6c0.5-0.7,0.7-1.4,0.7-2.2V170l-3.9,0.6c-2.7,0.5-4.1,1.7-4.1,3.6
	c0,0.9,0.3,1.6,0.8,2.1c0.5,0.5,1.3,0.8,2.3,0.8C32.9,177.1,33.7,176.9,34.5,176.5 M26.1,178.7c-1.2-1-1.9-2.4-1.9-4.2
	c0-2.1,0.7-3.6,2.2-4.6c1.5-1,3.4-1.6,5.7-2l4.8-0.7v-1.5c0-1.1-0.4-2.1-1.1-2.7c-0.7-0.7-1.7-1-3-1c-0.8,0-1.6,0.1-2.5,0.4
	c-0.9,0.2-1.6,0.5-2.2,0.9l-0.4,1.7c-0.1,0.5-0.3,1-0.6,1.2c-0.3,0.3-0.6,0.4-1,0.4c-0.3,0-0.5-0.1-0.7-0.2
	c-0.2-0.1-0.2-0.3-0.2-0.6v-4.4c1.2-0.7,2.5-1.2,4-1.7c1.5-0.4,3-0.6,4.4-0.6c2.4,0,4.3,0.6,5.8,1.7c1.5,1.2,2.2,2.8,2.2,5V177
	l1.3,0.5c0.5,0.2,0.9,0.5,1.1,0.7c0.2,0.2,0.3,0.5,0.3,0.8c0,0.5-0.2,0.7-0.6,0.7h-6.9v-2.3h-0.2c-0.7,0.8-1.6,1.5-2.8,2.1
	c-1.1,0.5-2.3,0.8-3.6,0.8C28.8,180.2,27.3,179.7,26.1,178.7"/>
<path class="st0" d="M47.9,188.3c-0.5-0.4-0.8-1-0.8-1.7c0-0.6,0.2-1.1,0.5-1.6c1.8,0,3.2-0.3,4.3-0.8c1.1-0.6,1.9-1.6,2.6-3.2
	l0.5-1.3l-7.4-17.4h-1.6c-0.6,0-0.9-0.4-0.9-1.1c0-0.5,0.2-1,0.6-1.2c0.4-0.3,0.9-0.4,1.6-0.4h8c0.4,0,0.7,0.2,0.7,0.7
	c0,0.6-0.5,1.1-1.5,1.4l-1.8,0.7l4.6,11.1c0.1,0.2,0.2,0.6,0.2,1c0,0.4,0,0.7,0,0.8h0.2c0-0.1,0-0.4,0.1-0.8c0-0.4,0.1-0.7,0.2-0.9
	l4.7-11.1h-2.2c-0.6,0-0.9-0.4-0.9-1.1c0-0.5,0.2-1,0.6-1.2c0.4-0.3,0.9-0.4,1.6-0.4h7c0.4,0,0.7,0.2,0.7,0.7c0,0.3-0.1,0.6-0.4,0.8
	s-0.6,0.4-1.1,0.7l-1.6,0.7l-7.7,18.1c-1.2,2.7-2.4,4.8-3.8,6.3c-1.4,1.5-3,2.2-4.9,2.2C49.1,188.9,48.4,188.7,47.9,188.3"/>
<path class="st0" d="M96.2,168c0.1-0.4,0.2-0.8,0.2-1.2c0-1.5-0.4-2.6-1.2-3.5c-0.8-0.8-1.9-1.3-3.2-1.3c-1.4,0-2.6,0.5-3.6,1.6
	c-1,1.1-1.5,2.5-1.6,4.4H96.2z M87.1,179c-1.6-0.8-2.9-2-3.8-3.5c-0.9-1.6-1.4-3.4-1.4-5.7c0-2.2,0.4-4.2,1.3-5.8
	c0.9-1.6,2.1-2.8,3.6-3.7c1.5-0.8,3.2-1.3,5.2-1.3c1.8,0,3.4,0.4,4.8,1.1c1.4,0.7,2.5,1.7,3.2,3c0.8,1.3,1.2,2.8,1.2,4.6
	c0,0.5-0.1,1-0.2,1.6c-0.1,0.6-0.3,1.1-0.5,1.5H86.8c0,2.1,0.6,3.7,1.7,4.7c1.2,1.1,2.6,1.6,4.2,1.6c1,0,1.8-0.1,2.5-0.3
	c0.7-0.2,1.5-0.6,2.4-1.1c0.1-0.1,0.3-0.2,0.6-0.3c0.3-0.2,0.5-0.2,0.6-0.2c0.4,0,0.7,0.1,0.9,0.4c0.2,0.3,0.4,0.6,0.4,1
	c0,0.4-0.1,0.7-0.4,1c-0.2,0.3-0.6,0.6-1.2,0.9c-1.8,1-3.8,1.6-6.1,1.6C90.5,180.2,88.7,179.8,87.1,179"/>
<path class="st0" d="M117.8,176c0.9-0.8,1.4-2,1.4-3.4v-9.1c-0.6-0.4-1.3-0.8-2.1-1.1c-0.8-0.3-1.6-0.4-2.4-0.4
	c-1.8,0-3.2,0.7-4.3,2c-1.1,1.3-1.7,3.2-1.7,5.7c0,2.5,0.5,4.3,1.5,5.6c1,1.3,2.4,1.9,4.2,1.9C115.7,177.2,116.9,176.8,117.8,176
	 M108.5,179.1c-1.4-0.8-2.5-1.9-3.4-3.5c-0.9-1.6-1.3-3.5-1.3-5.8c0-2.2,0.4-4.1,1.3-5.7c0.9-1.6,2.1-2.9,3.6-3.7
	c1.5-0.9,3.2-1.3,5.1-1.3c1.9,0,3.7,0.5,5.4,1.4v-7.2h-1.9c-0.6,0-0.9-0.4-0.9-1.1c0-0.5,0.2-1,0.6-1.2c0.4-0.3,0.9-0.4,1.6-0.4h5.4
	v26.3l1.5,0.7c0.5,0.2,0.9,0.5,1.2,0.7c0.2,0.2,0.3,0.5,0.3,0.8c0,0.5-0.2,0.7-0.6,0.7h-6.9v-2.2h-0.2c-0.6,0.8-1.5,1.5-2.5,2
	c-1,0.5-2.2,0.8-3.5,0.8C111.4,180.2,109.9,179.8,108.5,179.1"/>
<path class="st0" d="M132.1,155.7c-0.6-0.6-0.9-1.3-0.9-2.3c0-1,0.3-1.7,0.9-2.3c0.6-0.6,1.4-0.9,2.3-0.9c0.9,0,1.7,0.3,2.3,0.9
	c0.6,0.6,0.9,1.3,0.9,2.3c0,1-0.3,1.7-0.9,2.3c-0.6,0.6-1.4,0.9-2.3,0.9C133.4,156.6,132.7,156.3,132.1,155.7 M129.2,178.5
	c0-1.1,0.7-1.6,2.2-1.6h0.7v-14.6h-1.9c-0.6,0-0.9-0.4-0.9-1.1c0-0.5,0.2-1,0.6-1.2c0.4-0.3,0.9-0.4,1.6-0.4h5.5v17.4l1.6,0.7
	c0.5,0.2,0.9,0.5,1.1,0.7c0.2,0.2,0.3,0.5,0.3,0.8c0,0.5-0.2,0.7-0.6,0.7h-9.2C129.5,179.6,129.2,179.2,129.2,178.5"/>
<path class="st0" d="M147.3,178.7c-1.2-1-1.7-2.4-1.7-4.2v-11.8h-2.8c-0.3,0-0.6-0.1-0.8-0.3c-0.2-0.2-0.3-0.5-0.3-0.9
	c0-0.6,0.2-1,0.6-1.3c0.4-0.3,0.9-0.5,1.6-0.5h1.7l0.7-4.6h4v4.6h6.3c0.2,0,0.3,0.1,0.5,0.2c0.1,0.1,0.2,0.3,0.2,0.5
	c0,0.4-0.2,0.8-0.5,1c-0.3,0.2-0.9,0.4-1.7,0.6l-4.8,0.8v12.1c0,0.8,0.2,1.4,0.6,1.8c0.4,0.4,1,0.6,1.7,0.6c0.9,0,1.7-0.3,2.5-0.9
	c0.1-0.1,0.2-0.2,0.4-0.3c0.2-0.2,0.4-0.3,0.7-0.3c0.4,0,0.6,0.1,0.9,0.3c0.2,0.2,0.3,0.5,0.3,0.9c0,0.7-0.5,1.4-1.6,2.1
	c-1.3,0.8-2.7,1.2-4.3,1.2C149.9,180.2,148.4,179.7,147.3,178.7"/>
<path class="st0" d="M173.8,175.3c0.9-1.3,1.4-3.2,1.4-5.7c0-2.4-0.5-4.3-1.4-5.6c-0.9-1.3-2.2-2-3.9-2c-1.7,0-3,0.7-3.9,2
	c-0.9,1.3-1.4,3.2-1.4,5.6c0,2.5,0.5,4.4,1.4,5.7c0.9,1.3,2.2,2,3.9,2C171.5,177.2,172.8,176.6,173.8,175.3 M164.7,179
	c-1.5-0.8-2.7-2-3.6-3.6c-0.9-1.6-1.3-3.5-1.3-5.8s0.4-4.2,1.3-5.8c0.9-1.6,2.1-2.8,3.6-3.6c1.5-0.8,3.3-1.2,5.2-1.2
	c1.9,0,3.6,0.4,5.1,1.2c1.5,0.8,2.7,2,3.6,3.6c0.9,1.6,1.3,3.5,1.3,5.8s-0.4,4.2-1.3,5.8c-0.9,1.6-2.1,2.8-3.6,3.6
	c-1.5,0.8-3.2,1.2-5.1,1.2C167.9,180.2,166.2,179.8,164.7,179"/>
<path class="st0" d="M183,178.5c0-1.1,0.7-1.6,2.2-1.6h0.7v-14.6h-1.9c-0.6,0-0.9-0.4-0.9-1.1c0-0.5,0.2-1,0.6-1.2
	c0.4-0.3,0.9-0.4,1.6-0.4h5.3v4.1h0.1c1-1.3,2.1-2.4,3.4-3.2c1.3-0.9,2.5-1.3,3.6-1.3c0.8,0,1.4,0.2,1.8,0.7c0.4,0.4,0.7,1,0.7,1.7
	c0,0.4-0.1,0.8-0.2,1.2c-0.1,0.4-0.3,0.7-0.6,1c-3.1,0-6,1-8.6,3.1v10.1l1.6,0.7c0.5,0.2,0.9,0.5,1.1,0.7c0.2,0.2,0.3,0.5,0.3,0.8
	c0,0.5-0.2,0.7-0.6,0.7h-9.2C183.3,179.6,183,179.2,183,178.5"/>
<path class="st0" d="M113.2,88.6h-2.7c-5,0-8.8-1.3-11.2-3.8c-2.4,2.5-6.3,3.8-11.2,3.8h-2.7v-5.5H88c8.5,0,8.5-4.3,8.5-5.7V45.6
	c0-1.4,0-5.7-8.5-5.7h-2.7v-5.5H88c5,0,8.8,1.3,11.2,3.8c2.4-2.5,6.3-3.8,11.2-3.8h2.7v5.5h-2.7c-8.5,0-8.5,4.3-8.5,5.7v31.8
	c0,1.4,0,5.7,8.5,5.7h2.7V88.6z M176,63L176,63L176,63L176,63L176,63L176,63L176,63c0-17.1-8.1-33-22.9-45C138.6,6.4,119.5,0,99.3,0
	h-0.2C78.9,0,59.8,6.4,45.4,18C30.6,30,22.5,45.9,22.5,63c0,16.3,7.8,32.1,21.5,43.8L39.8,124c-0.5,2.1,0.2,4.3,1.9,5.7
	c1,0.9,2.4,1.3,3.7,1.3c0.8,0,1.5-0.2,2.3-0.5c8.7-3.8,19.1-8.1,22.7-9.2c9.1,3,18.8,4.6,28.8,4.6c17.2,0,34.6-5.5,49-15.5
	c13.8-9.6,23.3-22.2,26-34.6c1.5-5.9,1.8-12.1,1.8-12.7C175.9,63.1,176,63.1,176,63"/>
</svg>
