<?xml version="1.0" encoding="utf-8"?>
<!-- Generator: Adobe Illustrator 23.0.4, SVG Export Plug-In . SVG Version: 6.00 Build 0)  -->
<svg version="1.1" id="Layer_1" xmlns="http://www.w3.org/2000/svg" xmlns:xlink="http://www.w3.org/1999/xlink" x="0px" y="0px"
	 viewBox="0 0 208.6 237.1" style="enable-background:new 0 0 208.6 237.1;" xml:space="preserve">
<style type="text/css">
	.st0{fill:#50455B;}
	.st1{fill:#9240F2;}
</style>
<path class="st0" d="M13.5,209c-5.7-1.5-10.2-3.4-13.5-5.7v-16.5c0-1.4,0.7-2.1,2.2-2.1c1.1,0,2,0.4,2.7,1.3
	c0.6,0.9,1.3,2.4,1.8,4.7l1.8,7.5c2.1,1.5,5,2.8,8.8,3.6c3.7,0.9,7.4,1.3,11.1,1.3c5.7,0,10.4-1,14.3-3c3.8-2,5.8-5.3,5.8-9.8
	c0-3-0.7-5.5-2.1-7.5c-1.4-2-3.6-3.9-6.7-5.6c-3-1.7-7.5-3.8-13.4-6.2c-8.3-3.5-14.7-7.1-19.1-11c-4.4-3.8-6.6-8.8-6.6-14.9
	c0-7.1,2.8-12.5,8.3-16.1c5.5-3.6,12.2-5.4,20.2-5.4c5.1,0,10.1,0.8,15.1,2.4s9.1,3.7,12.3,6.3V148c0,0.6-0.2,1.1-0.5,1.5
	c-0.4,0.4-0.9,0.6-1.5,0.6c-1.1,0-2-0.4-2.7-1.3c-0.7-0.8-1.3-2.4-1.9-4.8l-1.8-7.4c-2.2-1.5-4.8-2.7-8-3.6
	c-3.1-0.9-6.5-1.3-10.1-1.3c-4.9,0-9,1-12.2,3s-4.8,5-4.8,9.1c0,2.7,0.8,5,2.4,6.9s3.7,3.6,6.5,5.1s6.9,3.5,12.4,5.9l2.6,1.1
	c5.5,2.4,10,4.7,13.4,6.9c3.4,2.3,6.1,5,8,8.1s2.9,6.9,2.9,11.5c0,7.5-2.9,13-8.7,16.6s-13.3,5.5-22.5,5.5
	C24.5,211.2,19.3,210.5,13.5,209"/>
<path class="st0" d="M101.6,201.7c2.6-1.3,4.6-3.1,6.1-5.3s2.3-4.6,2.3-7.2v-9l-13.6,2.2c-4.3,0.7-7.6,2-10,3.8s-3.6,4.4-3.6,7.7
	c0,3.2,1,5.6,3,7.3s4.6,2.6,7.8,2.6C96.4,203.7,99.1,203,101.6,201.7 M76.9,206.9c-3.6-2.9-5.5-7-5.5-12.4c0-5.9,2.1-10.3,6.3-13.1
	c4.2-2.8,9.7-4.7,16.4-5.8l15.9-2.4v-4.9c0-3.7-1.2-6.7-3.5-8.9s-5.5-3.3-9.5-3.3c-2.4,0-5,0.4-8,1.2s-5.3,1.8-7.1,2.9l-1.2,5.2
	c-0.7,2.7-1.9,4-3.8,4c-0.7,0-1.3-0.2-1.6-0.5c-0.4-0.4-0.5-0.8-0.5-1.4v-11.9c3.3-1.9,7.1-3.6,11.5-4.9c4.3-1.3,8.5-1.9,12.6-1.9
	c6.6,0,12.1,1.7,16.3,5.1c4.2,3.4,6.3,8.3,6.3,14.6V203l4.3,1.3c1.4,0.5,2.4,1,2.9,1.5s0.9,1.2,0.9,2.1c0,1.1-0.5,1.7-1.6,1.7h-17.6
	V202h-0.5c-2.2,2.8-5,5.1-8.4,6.7c-3.4,1.7-7.2,2.5-11.3,2.5C85,211.2,80.6,209.8,76.9,206.9"/>
<path class="st0" d="M139.1,235.6c-1.3-1-1.9-2.4-1.9-4.2c0-1.2,0.4-2.5,1.1-3.9c5.6,0,10-1,13.1-2.9c3.2-1.9,5.8-5.4,7.9-10.4
	l1.8-4.6l-21.8-52.7h-4.9c-1.5,0-2.3-0.9-2.3-2.8c0-1.4,0.5-2.4,1.4-3s2.2-1,3.8-1h21.9c1.1,0,1.6,0.6,1.6,1.7
	c0,1.7-1.2,2.9-3.6,3.5l-6.1,1.7l14.9,37.3c0.2,0.6,0.4,1.5,0.5,2.4c0.1,1,0.1,1.6,0.1,1.9h0.6c0-0.3,0-1,0.1-2s0.2-1.8,0.5-2.4
	l15.1-37.4h-7.2c-1.5,0-2.3-0.9-2.3-2.8c0-1.4,0.5-2.4,1.4-3s2.2-1,3.8-1h19.7c1.1,0,1.7,0.6,1.7,1.7c0,1.4-1.3,2.6-3.8,3.5l-5,1.7
	l-22.8,56.5c-3.2,7.7-6.6,13.5-10.4,17.6c-3.8,4-8.6,6-14.4,6C141.9,237.1,140.3,236.6,139.1,235.6"/>
<path class="st1" d="M189.5,15.1c-12-9.7-28-15.1-44.9-15.1h-0.2c-16.9,0-32.9,5.4-44.9,15.1C87.1,25,80.3,38.4,80.3,52.6
	c0,13.7,6.5,26.8,18,36.6l-3.5,14.4c-0.4,1.8,0.2,3.6,1.6,4.8c0.9,0.7,2,1.1,3.1,1.1c0.6,0,1.3-0.1,1.9-0.4c7.3-3.2,16-6.7,19-7.7
	c7.6,2.5,15.7,3.8,24.1,3.8c14.4,0,28.9-4.6,41-12.9c11.5-8,19.5-18.5,21.7-28.9c1.3-4.9,1.5-10.1,1.5-10.6c0-0.1,0-0.1,0-0.1l0,0
	l0,0l0,0l0,0l0,0l0,0C208.6,38.4,201.8,25,189.5,15.1z M156.1,33.4h-2.3c-7.1,0-7.1,3.6-7.1,4.8v26.6c0,1.2,0,4.8,7.1,4.8h2.3v4.6
	h-2.3c-4.2,0-7.4-1.1-9.4-3.2c-2,2.1-5.2,3.2-9.4,3.2h-2.3v-4.6h2.3c7.1,0,7.1-3.6,7.1-4.8V38.1c0-1.2,0-4.8-7.1-4.8h-2.3v-4.6h2.3
	c4.2,0,7.4,1.1,9.4,3.2c2-2.1,5.2-3.2,9.4-3.2h2.3V33.4z"/>
</svg>
